<svg width="178" height="197" viewBox="0 0 178 197" fill="none" xmlns="http://www.w3.org/2000/svg">
<path d="M177.93 160.757V166.008C174.313 166.968 170.705 167.971 167.079 168.869C164.436 169.524 161.741 169.977 159.098 170.64C155.994 171.416 152.959 172.446 149.846 173.152C145.247 174.199 140.525 174.801 135.987 176.074C130.97 177.487 126.118 179.502 121.162 181.151C117.902 182.232 114.511 182.93 111.311 184.151C101.955 187.745 92.5825 190.798 82.5574 192.446C69.0283 194.662 55.5514 193.676 42.0571 194.008C41.3441 194.025 40.0226 192.778 39.9791 192.071C39.8748 190.048 40.1269 187.972 40.5355 185.974C41.5876 180.863 44.4395 176.615 47.3522 172.419C48.6912 170.492 49.9781 168.538 51.7344 165.947C52.3343 168.922 52.7343 170.884 53.1604 172.995C57.3078 172.149 61.2813 171.556 65.1331 170.5C70.6195 169 76.0624 167.325 81.4184 165.406C85.0615 164.098 88.5916 162.397 92.0434 160.626C99.0601 157.024 105.99 153.265 112.946 149.54C114.832 148.528 116.58 147.237 118.536 146.391C127.988 142.292 138.021 142.963 147.942 143.312C149.116 143.356 150.559 146.06 151.133 147.787C151.368 148.511 149.872 150.334 148.777 150.875C145.899 152.296 142.777 153.204 139.83 154.503C138.917 154.904 138.265 155.881 137.491 156.597L138.187 157.408C145.342 154.704 152.507 151.991 159.576 149.313C162.645 151.965 165.61 154.529 168.784 157.286C167.714 157.704 167.036 158.071 166.314 158.228C156.359 160.408 146.403 162.572 136.43 164.7C131.3 165.799 126.127 166.689 121.04 167.927C117.536 168.782 114.215 170.527 110.685 171.128C101.216 172.742 92.4173 176.257 83.6877 180.025C82.6704 180.462 81.8792 181.456 80.9923 182.197C81.1749 182.485 81.3488 182.782 81.5314 183.07C82.6878 182.677 83.8442 182.311 84.9919 181.901C91.8782 179.432 98.7297 176.85 105.651 174.513C110.137 172.995 114.728 171.791 119.293 170.509C122.51 169.602 125.718 168.616 128.996 167.988C138.917 166.087 148.838 164.194 158.802 162.58C165.123 161.551 171.209 157.521 177.939 160.757H177.93ZM133.891 152.523C133.283 152.523 132.518 152.323 131.926 152.549C123.884 155.655 115.902 158.934 107.824 161.952C99.7731 164.962 91.7304 168.076 83.4965 170.5C72.6714 173.693 61.6465 176.24 50.7345 179.145C49.865 179.371 49.1608 180.226 48.3782 180.784C77.8796 174.138 107.077 167.09 133.891 152.523Z" fill="#262626"/>
<path d="M111.537 2.09342C111.981 2.11086 112.433 2.1283 112.876 2.14575C112.876 2.77378 112.876 3.39309 112.876 4.02111C115.971 5.56501 119.145 6.96935 122.136 8.69642C124.588 10.1182 127.196 11.5749 129.074 13.6247C131.744 16.5467 133.665 20.1405 136.178 23.2195C137.378 24.6936 139.221 25.6357 140.778 26.822C141.447 30.0319 142.551 32.9627 144.195 35.9283C147.299 41.5457 149.49 47.6689 152.055 53.5829L150.742 53.6439C148.533 49.178 146.055 44.8254 144.195 40.2199C142.03 34.8555 138.708 32.6399 133.283 33.2331C131.022 33.4773 128.631 32.4742 126.344 32.6225C124.11 32.7708 121.232 28.9154 119.554 33.5296C119.432 33.8611 118.319 34.1402 117.832 33.9658C114.328 32.7446 111.041 32.2125 107.207 33.4424C101.799 35.1695 95.8343 31.6107 90.1132 35.6143C87.7917 37.2367 82.7574 37.0884 79.5229 33.4599H83.2356C76.7493 30.2499 69.7674 27.197 63.1941 23.4376C56.7774 19.7654 51.2301 14.8284 43.9526 12.3337C39.5965 10.8422 37.0663 12.6565 33.9536 14.3487C28.0933 15.5524 24.4241 19.6258 21.3201 24.2837C20.3115 25.7927 21.4157 26.6737 23.0156 26.8394C28.2237 27.3628 33.0841 28.7758 37.0141 32.4742C39.3791 34.6985 42.1702 35.8149 45.3959 36.0417C45.7524 36.0679 46.048 36.8355 46.3784 37.2542C44.8829 37.481 43.3874 37.7165 41.8919 37.9433C40.8572 37.3676 39.7356 36.914 38.814 36.2075C35.3361 33.5296 32.4928 29.8923 27.7107 29.273C25.0936 28.9415 22.5113 28.4008 19.9115 27.9559C19.8159 28.2525 19.7202 28.5403 19.6246 28.8369C20.4767 29.5521 21.3288 30.2674 22.1809 30.9826C23.9198 32.4044 25.7196 33.7651 27.3803 35.2829C27.8411 35.7016 27.902 36.5564 28.1542 37.2018C26.4587 36.2075 24.711 35.2916 23.0851 34.1925C21.3548 33.0237 20.381 33.1284 19.442 35.2393C16.3814 42.0952 13.0514 48.8291 9.9821 55.6763C8.86048 58.171 8.76479 60.5522 10.7559 63.0905C12.1992 64.931 13.773 67.0418 12.234 70.2081C8.53005 77.7881 5.35641 85.6297 2.05239 93.4015C1.66113 94.3261 1.3916 95.6258 1.73939 96.4718C2.93058 99.3852 9.88644 101.156 12.5644 99.4026C15.2076 100.414 17.8508 101.426 20.4941 102.447C20.6332 102.115 20.781 101.793 20.9201 101.461C20.5375 101.034 20.1637 100.606 19.7811 100.188C20.8505 100.205 21.92 100.319 22.9721 100.205C24.0329 100.092 25.9022 99.8649 25.9544 99.4811C26.137 98.2076 25.9544 96.6724 25.3371 95.556C24.9371 94.832 23.5633 94.579 22.5808 94.2476C21.6766 93.9423 20.7114 93.8114 19.7724 93.6021C24.5632 92.3722 27.5803 93.6806 28.0672 96.8469C28.2324 97.9372 28.1976 99.5422 27.5455 100.153C26.5021 101.13 24.8676 101.47 22.4765 102.525C24.2676 103.633 25.5892 104.488 26.9456 105.282C28.4672 106.163 30.0149 106.983 31.5538 107.829C31.3365 108.047 31.0321 108.509 30.9278 108.465C28.1629 107.305 24.7371 107.611 22.7547 104.662C22.3287 104.026 21.3896 103.432 20.6245 103.354C15.9554 102.865 11.2776 102.534 6.59982 102.159C5.66079 101.662 4.73913 101.112 3.76532 100.676C1.45251 99.6382 -0.590816 98.1466 0.156935 95.3641C1.44376 90.5928 2.96539 85.8652 4.73913 81.2597C6.46939 76.7588 8.62572 72.4324 10.1473 69.0306C9.40825 67.0069 8.97348 65.8119 8.53874 64.6257C8.89523 64.7478 9.2604 64.8699 9.61689 64.992C9.74731 64.8612 9.86904 64.7303 9.99946 64.5995C9.32996 64.0064 8.66045 63.4045 7.98226 62.8114C7.591 61.7908 6.8259 60.7441 6.88677 59.7497C6.9911 57.918 7.58235 56.1124 7.97361 54.2981C8.13881 53.862 8.30397 53.4259 8.46917 52.9897C11.9384 46.1687 15.4076 39.3563 18.8594 32.5265C18.9986 32.2561 19.0942 31.8374 18.9899 31.5845C16.651 26.3858 20.2071 22.3996 22.8243 19.2769C25.6066 15.9623 30.1366 13.8689 34.2405 11.9936C38.2923 10.1356 42.7614 9.21105 47.0479 7.8765C47.0566 8.26029 47.074 8.65281 47.0827 9.0366C45.8133 9.49018 44.5351 9.93503 42.8309 10.5456C43.7091 11.0428 44.0308 11.3481 44.3873 11.4179C50.691 12.6565 55.5949 16.4246 60.7596 19.9398C65.7504 23.3329 71.3063 25.8974 76.671 28.7235C79.9924 30.468 83.3921 32.0642 86.8092 33.6256C87.3656 33.8785 88.1829 33.7303 88.8351 33.582C90.8783 33.1109 92.8781 32.2212 94.9388 32.0817C98.5036 31.8374 102.355 32.858 105.616 31.8375C109.346 30.6686 112.563 30.6948 116.067 31.9247C116.597 32.1079 117.441 31.3839 118.832 30.7907C103.616 23.455 90.6349 13.4153 74.6973 9.23722C78.723 9.60357 82.7226 10.1793 86.2179 11.8278C93.5215 15.2733 100.529 19.338 107.703 23.0538C114.232 26.4382 120.267 31.0786 129.127 31.2443C126.918 29.6917 125.44 28.5578 123.875 27.5634C121.127 25.8189 117.997 24.5192 115.606 22.3822C110.042 17.4016 104.781 12.1593 96.8603 11.0864C94.1736 10.7201 91.4783 10.0222 88.9394 9.07149C85.8701 7.92883 82.966 6.35876 79.9924 4.97187C80.1315 4.64041 80.2707 4.30895 80.4098 3.98622C81.1141 4.09961 81.8444 4.11707 82.5052 4.35258C87.1135 5.94009 91.6087 7.93756 96.3213 9.10639C104.938 11.2434 111.833 15.8402 117.676 22.3734C118.728 23.551 120.362 24.3099 121.867 24.9466C125.092 26.3248 128.831 26.9877 129.344 30.7558C131.831 31.1222 133.926 31.4275 135.961 31.7328C133.448 27.6506 131.153 23.8388 128.744 20.0968C128.396 19.5473 127.553 19.2944 126.909 18.9629C117.415 14.1219 107.911 9.28084 98.4167 4.44853C98.634 4.0124 98.8427 3.56754 99.0601 3.13141C104.433 4.72764 108.781 8.47836 113.72 11.0254C118.936 13.7119 124.318 16.0583 129.631 18.5529C129.866 18.3698 130.1 18.1866 130.335 17.9947C128.553 15.9187 127.153 13.1973 124.918 11.9063C120.032 9.08021 114.737 6.96935 109.607 4.57064C110.25 3.75072 110.902 2.93079 111.546 2.11086L111.537 2.09342ZM137.056 28.6886C135.265 23.9261 132.639 20.7685 130.622 20.6551C132.839 23.0189 133.413 26.6562 137.056 28.6886Z" fill="#262626"/>
<path d="M177.93 160.757C171.192 157.521 165.114 161.56 158.793 162.58C148.829 164.194 138.9 166.087 128.988 167.988C125.71 168.616 122.501 169.602 119.284 170.509C114.719 171.791 110.129 173.004 105.642 174.513C98.7123 176.85 91.8608 179.432 84.9832 181.901C83.8355 182.311 82.6791 182.686 81.5227 183.07C81.3401 182.782 81.1662 182.485 80.9836 182.197C81.8792 181.465 82.6617 180.47 83.679 180.025C92.4086 176.257 101.208 172.742 110.676 171.128C114.206 170.527 117.528 168.791 121.032 167.927C126.118 166.68 131.3 165.79 136.422 164.7C146.386 162.572 156.35 160.4 166.306 158.228C167.027 158.071 167.705 157.696 168.775 157.286C165.593 154.529 162.628 151.974 159.567 149.313C152.498 151.991 145.334 154.695 138.178 157.408L137.482 156.597C138.256 155.881 138.917 154.904 139.821 154.503C142.769 153.212 145.89 152.296 148.768 150.875C149.864 150.334 151.359 148.511 151.124 147.787C150.559 146.068 149.107 143.356 147.933 143.312C138.021 142.963 127.988 142.292 118.528 146.391C116.58 147.237 114.824 148.528 112.937 149.54C105.981 153.265 99.0514 157.024 92.0347 160.626C88.5829 162.397 85.0615 164.098 81.4097 165.406C76.0537 167.325 70.6108 168.991 65.1244 170.5C61.2726 171.556 57.2991 172.149 53.1516 172.995C52.7256 170.884 52.3343 168.922 51.7257 165.947C49.9693 168.538 48.6825 170.5 47.3435 172.419C44.4221 176.615 41.5702 180.863 40.5268 185.974C40.1182 187.972 39.8661 190.048 39.9704 192.071C40.0052 192.778 41.3354 194.025 42.0484 194.008C55.5427 193.668 69.0196 194.662 82.5487 192.446C92.5825 190.807 101.947 187.745 111.302 184.151C114.502 182.921 117.893 182.232 121.154 181.151C126.11 179.502 130.961 177.487 135.978 176.074C140.508 174.801 145.229 174.199 149.838 173.152C152.95 172.446 155.994 171.416 159.089 170.64C161.732 169.977 164.427 169.524 167.071 168.869C170.705 167.971 174.305 166.968 177.922 166.008C177.948 166.427 177.965 166.846 177.991 167.256C173.809 168.625 169.627 169.986 165.436 171.355L165.167 171.285L164.923 171.416C158.428 172.908 151.924 174.399 145.429 175.891C144.56 175.891 143.69 175.891 142.83 175.891C135.787 178.264 128.735 180.636 121.693 183.017C121.38 183.113 121.075 183.209 120.762 183.305C117.989 184.134 115.206 184.928 112.441 185.791C104.52 188.268 96.6081 190.772 88.6872 193.266C88.4611 193.258 88.2699 193.319 88.096 193.467C84.1746 194.112 80.2707 195.142 76.3233 195.316C67.9241 195.7 59.5075 195.604 51.0997 195.805C49.2042 195.848 47.2914 196.197 45.4394 196.642C40.7964 197.759 38.1966 196.267 37.814 192.115C38.101 189.08 38.3879 186.035 38.6749 183C39.014 182.067 39.2139 181.055 39.7182 180.217C42.5788 175.429 44.083 169.689 49.3086 166.54C49.8476 166.218 50.0476 165.319 50.4041 164.691C51.0649 164.665 51.7257 164.639 52.3865 164.613C52.9777 166.017 53.4212 167.526 54.2298 168.791C54.7341 169.585 55.7514 170.361 56.6383 170.518C57.586 170.684 58.6468 169.995 59.6814 169.855C68.8283 168.59 77.4449 165.572 85.644 161.49C96.0517 156.309 106.329 150.84 116.624 145.423C121.284 142.972 126.083 141.419 131.431 141.759C132.839 141.847 134.283 141.419 135.717 141.227C140.447 141.489 145.186 141.672 149.898 142.117C150.611 142.187 151.359 143.443 151.803 144.298C152.62 145.859 153.237 147.525 153.994 149.287C155.55 148.581 156.689 148.066 157.819 147.551C158.472 147.551 159.124 147.569 159.776 147.577C161.715 149.017 163.958 150.194 165.54 151.956C168.966 155.785 172.879 158.577 178 159.458C177.983 159.885 177.957 160.312 177.939 160.749L177.93 160.757Z" fill="#0D0D0D"/>
<path d="M12.4427 163.278C9.17345 163.549 9.19956 160.138 7.52147 158.629C6.26072 157.495 5.94769 155.297 5.21733 153.57C5.21733 153.134 5.21733 152.698 5.21733 152.27C5.88683 149.305 6.59112 146.348 7.19106 143.373C7.37365 142.44 7.49535 141.367 7.21712 140.486C5.37382 134.494 9.04306 130.368 11.9819 125.989C12.8253 125.815 13.6774 125.649 14.5208 125.474C14.4686 127.603 14.4946 129.74 14.3381 131.868C14.1556 134.354 13.8252 136.831 13.5382 139.308C13.5035 139.614 13.3209 139.893 13.1383 140.364C12.4862 140.024 11.9123 139.718 11.4515 139.474C10.4603 140.538 9.55603 141.393 8.80828 142.379C8.52135 142.754 8.35615 143.687 8.59091 143.923C10.0082 145.344 11.5471 146.635 13.3122 148.206C13.9469 146.051 13.8686 143.87 16.7901 145.475C17.8943 146.086 20.4593 145.772 21.2766 144.873C26.2066 139.474 29.8323 133.517 27.5108 125.631C27.0065 123.922 27.0934 122.038 26.9021 120.241L27.1716 120.215L27.4325 120.267C28.1107 121.043 29.2497 121.741 29.3888 122.605C30.5626 130.054 30.5452 137.259 24.7893 143.242C21.8157 146.33 20.5202 149.915 22.9025 154.076C23.0851 154.39 22.7808 154.974 22.7112 155.437C22.4591 155.48 22.1982 155.532 21.9461 155.576C21.2244 153.456 20.4941 151.346 19.5985 148.72C18.3465 148.86 16.2684 148.485 15.225 149.348C13.3035 150.944 12.1819 150.308 10.8516 148.938C9.92124 147.979 9.01694 146.993 8.0953 146.016C7.73881 146.199 7.37364 146.382 7.01715 146.574C7.34756 149.034 7.31279 151.625 8.11271 153.919C9.23433 157.155 10.982 160.164 12.4514 163.278H12.4427ZM13.7469 128.667L12.3645 128.239C10.7472 131.755 7.91272 134.816 7.9475 138.933C8.35616 139.09 8.76479 139.256 9.17344 139.413C10.695 135.828 12.2253 132.243 13.7469 128.667Z" fill="#262626"/>
<path d="M153.359 72.5719L151.42 77.8666C151.133 76.9158 150.855 75.9738 150.568 75.023L150.733 53.6352L152.046 53.5741C152.446 58.1797 152.863 62.7765 153.246 67.382C153.35 68.6642 153.333 69.9639 153.368 71.2548C153.368 71.691 153.368 72.1271 153.368 72.5632L153.359 72.5719Z" fill="#040404"/>
<path d="M131.205 112.417C131.126 114.371 131.048 116.324 130.97 118.278C130.387 118.278 129.796 118.278 129.214 118.278C129.292 113.315 129.266 108.335 129.535 103.38C129.596 102.246 130.657 101.165 131.257 100.057C131.839 100.1 132.431 100.135 133.013 100.179C132.413 102.299 131.813 104.418 131.205 106.538C131.205 108.5 131.205 110.454 131.205 112.417Z" fill="#0D0D0D"/>
<path d="M133.891 152.514C107.077 167.081 77.8796 174.138 48.3782 180.776C49.1608 180.217 49.865 179.363 50.7345 179.136C61.6465 176.231 72.6714 173.684 83.4965 170.492C91.7304 168.067 99.7731 164.953 107.824 161.944C115.902 158.926 123.884 155.655 131.926 152.541C132.518 152.314 133.283 152.514 133.891 152.514Z" fill="#0D0D0D"/>
<path d="M111.537 2.09342C110.894 2.91334 110.242 3.73327 109.598 4.55319C103.712 3.55009 97.8168 2.53827 91.9304 1.53517C90.4697 1.53517 89.0089 1.53517 87.5395 1.53517C84.8876 1.55262 82.2444 1.57879 79.5925 1.59624C79.4012 1.70091 79.2099 1.79685 79.0186 1.90152C75.5668 2.4336 72.1063 2.86973 68.6805 3.52392C65.8025 4.07344 62.9681 4.82359 60.1249 5.55628C55.7601 6.6815 51.4214 7.86778 47.0653 9.02788C47.0566 8.64409 47.0392 8.25157 47.0305 7.86778C55.7166 5.48651 64.3766 3.03546 73.0888 0.77631C74.7147 0.357626 76.5406 0.697801 78.2709 0.689079C81.8357 0.706524 85.3919 0.802471 88.9567 0.715245C91.9304 0.645465 94.8953 0.375068 97.8689 0.200616C102.425 0.828642 106.981 1.46539 111.537 2.09342Z" fill="#0D0D0D"/>
<path d="M140.769 26.822C139.213 25.6357 137.369 24.6936 136.169 23.2195C133.648 20.1405 131.735 16.5467 129.066 13.6247C127.196 11.5749 124.588 10.1095 122.127 8.69642C119.136 6.96935 115.963 5.56501 112.867 4.02111C114.372 4.15195 115.876 4.28279 117.389 4.41363C120.041 5.72202 122.684 7.04785 125.379 8.26901C125.579 8.35624 126.144 7.63227 126.536 7.28337C127.405 7.88523 128.283 8.48707 129.153 9.09765C128.744 9.18488 128.344 9.28083 127.562 9.45528C132.683 13.0577 135.665 17.89 137.952 23.2631C138.161 23.7603 139.143 23.9261 139.769 24.2401C140.108 25.1036 140.439 25.9671 140.778 26.8307L140.769 26.822Z" fill="#DCCBA6"/>
<path d="M139.76 24.2314C139.134 23.9086 138.152 23.7429 137.943 23.2544C135.665 17.8813 132.674 13.0577 127.553 9.44657C128.335 9.27211 128.744 9.17616 129.144 9.08894C134.778 12.6565 137.474 18.3 139.752 24.2314H139.76Z" fill="#262626"/>
<path d="M126.527 7.27464C126.136 7.62354 125.57 8.34752 125.37 8.26029C122.675 7.03913 120.032 5.70458 117.38 4.40491C117.38 4.07345 117.397 3.73326 117.397 3.4018C120.441 4.69275 123.484 5.98369 126.527 7.27464Z" fill="#262626"/>
<path d="M97.8602 0.191898C94.8866 0.375072 91.9217 0.645469 88.948 0.706528C85.3919 0.785031 81.827 0.697806 78.2622 0.680361C79.349 0.444851 80.4359 0 81.5227 0C86.9657 0 92.4086 0.122117 97.8515 0.191898H97.8602Z" fill="#262626"/>
<path d="M117.406 3.4018C117.406 3.73326 117.389 4.07345 117.389 4.40491C115.884 4.27407 114.38 4.14324 112.867 4.0124C112.867 3.38437 112.867 2.76506 112.867 2.13703C114.38 2.55572 115.893 2.9744 117.397 3.4018H117.406Z" fill="#0D0D0D"/>
<path d="M150.724 53.6439C150.672 60.7703 150.611 67.9054 150.559 75.0317C150.385 75.1102 150.203 75.18 150.02 75.2498V57.7087C149.333 60.4999 148.255 63.4917 148.933 66.0213C150.403 71.5165 147.69 75.5812 145.455 79.8902C144.534 81.6522 143.212 83.2135 142.073 84.8621C142.264 85.0016 142.464 85.1412 142.656 85.2808C143.421 84.9929 144.186 84.7051 144.951 84.4259C144.125 85.996 143.586 87.8365 142.412 89.0751C140.221 91.3953 137.743 93.4538 135.23 95.4426C134.326 96.1578 132.987 96.7859 131.892 96.7073C126.153 96.2799 120.78 97.8238 115.38 99.3416C106.72 99.359 98.0602 99.3765 89.4002 99.3939C88.9307 98.4868 88.4525 97.5883 87.9829 96.6812C89.0263 94.7622 89.9219 92.7386 91.1304 90.933C93.6432 87.1736 94.8083 83.2309 94.7388 78.5818C94.6432 72.3626 94.4084 66.344 91.1391 60.8052C89.0263 57.2289 86.1223 55.8944 82.2531 57.508C78.5752 59.0432 74.9842 60.8488 71.5585 62.8724C68.6283 64.5995 68.6023 65.8468 70.6977 68.577C72.1323 70.4436 73.5844 72.3016 75.0277 74.1595C74.8191 74.3775 74.6017 74.5956 74.393 74.8137C72.2454 73.1128 70.1065 71.4118 67.9589 69.7109C67.7589 70.0162 67.5589 70.3128 67.3502 70.6181C70.6977 72.8336 72.4454 77.5526 77.497 76.5843C77.8187 79.3668 78.097 81.7568 78.3665 84.1468C78.0187 84.3911 77.6796 84.6266 77.3318 84.8708C74.7408 82.3151 72.141 79.7594 69.55 77.2036C69.2891 77.4915 69.0283 77.788 68.7675 78.0759C71.6889 81.1375 74.6104 84.1992 77.5231 87.2521C77.7318 87.0602 77.9318 86.8596 78.1404 86.6676V89.9037C75.4538 89.3106 73.0018 88.7698 70.9151 88.3075C70.6803 87.0165 70.5238 86.1792 70.3673 85.3418C67.9328 85.839 68.0458 83.0914 66.5851 82.3587C66.3069 76.8547 66.6981 71.2112 65.5852 65.8904C64.1505 59.0345 61.5073 52.4315 59.3858 45.7238C59.0293 44.6684 58.5946 43.6304 58.3511 42.5401C58.2642 42.1388 58.638 41.6329 58.7946 41.1706C59.1163 41.1532 59.6727 41.2142 59.7162 41.1008C61.3595 36.3558 64.594 35.876 68.9501 37.167C70.889 37.7426 73.5061 37.7339 72.9236 34.1751C73.8887 33.9919 74.7495 33.8349 75.6103 33.6692C74.4887 32.8667 72.9932 32.3346 72.3671 32.8493C69.6457 35.1084 67.5415 32.9801 65.2287 32.2038C58.8554 27.7204 52.4647 23.2719 46.1263 18.7449C42.4744 16.1368 38.8053 13.677 33.9797 14.4621L33.9014 14.3661C37.0141 12.6739 39.5443 10.8596 43.9004 12.3512C51.1779 14.8459 56.7252 19.7828 63.1419 23.455C69.7152 27.2145 76.6971 30.2674 83.1834 33.4773H79.4708C82.7052 37.1059 87.7395 37.2629 90.061 35.6318C95.7822 31.6281 101.747 35.1957 107.155 33.4599C110.989 32.23 114.276 32.762 117.78 33.9832C118.267 34.1489 119.38 33.8698 119.502 33.5471C121.18 28.9328 124.058 32.7795 126.292 32.6399C128.588 32.4916 130.97 33.4947 133.231 33.2505C138.647 32.6661 141.969 34.8729 144.143 40.2373C146.003 44.8428 148.481 49.1954 150.69 53.6614L150.724 53.6439Z" fill="#DCCBA6"/>
<path d="M12.4427 163.278C10.9646 160.173 9.22563 157.155 8.104 153.919C7.30408 151.625 7.34755 149.034 7.00845 146.574C7.36494 146.391 7.73011 146.208 8.0866 146.016C8.99955 146.993 9.90384 147.979 10.8429 148.938C12.1732 150.308 13.2948 150.953 15.2163 149.348C16.2597 148.476 18.3378 148.86 19.5898 148.72C20.4854 151.346 21.2071 153.456 21.9374 155.576C22.1896 155.532 22.4504 155.48 22.7025 155.437C22.7808 154.974 23.0764 154.39 22.8938 154.076C20.5115 149.915 21.807 146.33 24.7806 143.242C30.5365 137.259 30.5539 130.054 29.3802 122.605C29.241 121.741 28.102 121.043 27.4238 120.267C27.5543 119.595 27.6759 118.924 27.8151 118.191C32.4494 120.197 40.9007 118.906 43.7091 115.74H36.2925C36.0751 115.932 35.3708 116.543 34.6752 117.162C34.597 116.874 34.5187 116.577 34.4405 116.29C33.2928 116.29 32.1103 116.089 31.0148 116.324C28.3368 116.909 25.3545 114.99 23.6677 115.47C20.5636 116.359 19.2159 114.65 17.2335 113.629C15.7032 111.475 19.555 113.036 18.529 111.065C17.8248 110.89 16.8249 110.646 15.825 110.393C14.4773 108.587 13.1383 106.773 11.7906 104.968C11.5471 105.098 11.3124 105.221 11.069 105.351C11.0081 105.962 10.9472 106.564 10.8863 107.174C10.582 107.183 10.2777 107.201 9.9734 107.209C9.84298 106.128 9.72122 105.046 9.55602 103.685C8.06631 105.418 8.18808 107.692 9.92123 110.506C9.87776 110.908 9.83427 111.318 9.79949 111.719C7.59972 111.501 6.64329 110.245 6.59112 108.073C6.57373 107.297 6.20856 106.538 5.99988 105.77C6.31289 104.575 4.287 103.005 6.59112 102.142C11.2689 102.525 15.9554 102.857 20.6245 103.337C21.381 103.415 22.32 104.008 22.7547 104.645C24.7371 107.593 28.1629 107.288 30.9278 108.448C31.0321 108.492 31.3365 108.038 31.5538 107.811C32.4233 107.759 33.2928 107.707 34.1709 107.654H34.0579C34.9013 108.134 35.7534 108.622 36.5968 109.102C37.2402 109.599 37.8836 110.097 38.2401 110.367C39.3096 108.919 40.4312 107.986 40.7355 106.834C41.0485 105.631 40.579 104.226 40.3964 102.36C39.3878 103.738 38.84 104.47 38.3009 105.212C37.3097 102.63 35.2665 101.836 32.7102 101.897C32.6754 101.697 32.6842 101.505 32.745 101.313C33.0667 101.339 33.4754 101.505 33.6927 101.365C38.8835 98.1291 40.1095 98.5914 44.3004 103.04C46.7871 105.674 46.0567 108.43 45.535 111.03C45.3524 111.946 42.5614 112.329 40.9355 112.966C41.1703 113.115 41.6833 113.699 42.1528 113.664C45.4133 113.429 48.1348 113.62 48.0131 118.069C47.9696 119.604 48.7521 121.148 49.0303 122.709C49.4477 125.047 50.3954 126.896 52.6647 127.969C51.6127 124.323 50.6476 120.974 49.6824 117.615C49.2999 116.29 49.3607 114.467 48.5 113.725C46.761 112.242 47.1088 110.838 47.6305 109.128C48.1261 107.497 48.3782 105.796 48.9434 104.2C49.4477 102.778 50.2215 101.444 50.8736 100.074C51.3779 107.672 55.8644 112.722 60.0727 118.017C55.821 109.66 49.9259 101.653 54.9602 90.9853C56.9078 98.5042 65.733 107.89 67.8458 107.82C65.8547 105.788 64.7766 102.883 62.8551 100.737C58.099 95.46 55.9253 93.1398 58.6642 86.8159C59.5249 86.72 60.3857 86.6153 61.2465 86.5194C61.0117 86.2577 60.777 86.0047 60.5422 85.743C61.3769 84.6091 62.2203 83.4752 63.0637 82.3412C63.9767 82.5942 64.8983 82.8471 65.8112 83.1001C67.0198 86.7113 71.402 90.6713 74.3495 90.8109C79.0186 91.0289 79.8881 91.9971 80.0533 97.1522C76.2856 94.5645 74.1611 93.4102 73.68 93.6893C77.8274 98.6612 82.5487 103.258 86.3048 109.643C83.6269 109.102 82.0618 108.779 80.488 108.465C80.375 108.797 80.2533 109.137 80.1403 109.468C81.914 110.166 83.6877 110.873 85.531 111.597V120.564C83.1573 119.648 81.2445 118.906 79.3316 118.165C79.2186 118.461 79.1056 118.758 78.9926 119.055C85.0963 121.663 86.0962 123.948 83.879 128.091C81.2532 126.573 78.4447 125.3 76.0711 123.477C73.6974 121.645 71.7498 119.264 69.6196 117.118C69.3239 117.397 69.037 117.676 68.7414 117.956C70.8629 120.241 72.7584 122.831 75.1842 124.742C77.6883 126.713 80.7141 128.013 84.0442 129.906C82.4357 131.397 81.0532 132.662 79.6881 133.927C82.0444 135.436 81.9748 137.372 79.2273 138.994C74.8451 141.594 70.7847 145.222 64.8374 143.521C64.8809 143.897 64.9244 144.272 64.9592 144.655C66.6025 144.9 68.2458 145.135 69.8978 145.379C69.9413 145.641 69.9848 145.903 70.0195 146.156C64.5244 147.56 59.7423 152.131 53.2994 149.156C54.2385 150.055 55.1688 150.962 56.6209 152.357C54.4559 153.57 52.8213 154.521 51.1606 155.402C48.1869 156.98 47.9695 157.216 47.7609 159.466C46.3088 158.847 44.8482 158.228 43.3961 157.608C43.3005 157.748 43.1961 157.896 43.1005 158.036C43.7091 158.83 44.3264 159.623 44.9351 160.417C44.7786 160.705 44.6308 160.993 44.4743 161.281C41.718 160.522 38.9531 159.754 36.2316 159.004C38.2054 162.484 37.901 165.023 35.1796 165.956C33.2667 166.61 31.2321 166.924 29.2236 167.221C27.0325 167.543 25.2501 166.863 24.0503 164.796C23.659 164.124 22.8156 163.714 22.1721 163.182C21.9809 163.383 21.7896 163.575 21.5983 163.775C22.0678 164.787 22.546 165.799 23.2242 167.256C21.5896 167.256 20.3289 167.256 19.0768 167.256C18.1899 166.191 17.3031 165.127 16.4075 164.063C16.3379 163.2 16.2684 162.345 16.1206 160.557C14.686 161.917 13.9121 162.65 13.1383 163.383C12.9122 163.339 12.6949 163.296 12.4688 163.252L12.4427 163.278ZM37.8749 132.06C38.6053 128.292 35.823 126.451 34.1014 124.026C33.7275 124.236 33.3623 124.454 32.9885 124.663C34.6318 127.114 36.2751 129.557 37.9184 132.008C37.9184 132.444 37.9184 132.88 37.9184 133.316L37.901 133.333C36.3099 132.226 34.7187 131.118 33.1189 130.001C32.9189 130.202 32.7189 130.403 32.519 130.603C33.258 131.493 34.0231 132.357 34.7187 133.281C35.6751 134.546 36.9272 135.715 37.4576 137.154C39.04 141.402 40.2138 145.798 41.7789 150.055C42.5179 152.052 43.7874 153.858 44.822 155.751C45.135 155.611 45.4481 155.463 45.7524 155.323C44.6308 152.654 43.5091 149.994 42.3875 147.325C45.622 149.627 47.3262 153.613 51.491 154.076C49.0651 151.058 46.4132 148.458 44.6568 145.344C43.3439 143.033 43.1179 140.085 42.5354 137.389C41.9528 134.694 40.8659 132.557 37.8662 132.051L37.8749 132.06ZM43.6222 124.096C43.3092 124.419 42.9875 124.75 42.6744 125.073C43.6309 125.745 44.8742 126.216 45.4828 127.123C46.8305 129.12 48.3087 131.205 48.926 133.482C50.665 139.832 53.0734 145.501 59.9857 147.935C59.8031 147.037 59.351 146.321 58.7598 145.763C57.1078 144.219 54.8297 143.05 53.8472 141.175C52.0387 137.738 50.9519 133.918 49.6216 130.237C48.5086 127.175 46.3871 125.291 43.6222 124.096ZM62.3681 112.678C62.1421 112.888 61.9247 113.097 61.6986 113.298C62.6638 114.746 63.6811 116.159 64.594 117.633C66.8807 121.34 69.0284 125.143 71.4455 128.763C72.0802 129.722 73.5061 130.15 74.5669 130.813C73.3844 128.353 71.8454 126.617 70.6021 124.689C68.8631 121.985 67.4372 119.072 65.6809 116.377C64.7853 114.999 63.4724 113.9 62.3507 112.67L62.3681 112.678ZM80.3924 114.859C80.3576 114.641 80.3229 114.423 80.2968 114.196C78.4274 112.207 76.4102 110.349 74.7408 108.204C73.0453 106.023 71.7933 103.494 70.1326 101.269C69.6109 100.571 68.411 100.388 67.5241 99.9609C69.8978 104.47 72.4367 108.474 75.419 112.103C76.5406 113.463 78.7056 113.961 80.3924 114.842V114.859ZM61.3595 140.704C61.8986 140.503 62.4377 140.294 62.9767 140.093C60.4292 133.194 57.8816 126.294 55.334 119.395L53.9864 119.909C56.4383 126.844 58.8989 133.778 61.3508 140.704H61.3595ZM37.9097 155.402C38.214 155.314 38.5096 155.227 38.814 155.14C36.8403 148.537 34.8752 141.925 32.9015 135.322C32.5103 142.614 35.0491 149.06 37.901 155.41L37.9097 155.402ZM30.3104 112.766C26.0326 110.332 21.6766 107.855 17.2944 105.369C17.9726 109.434 25.3023 114.606 30.3104 112.766ZM44.9612 134.04C43.1874 126.373 40.466 121.855 37.1098 121.933C41.5963 124.846 40.3964 130.691 44.9612 134.04ZM27.7107 147.891C27.3803 147.857 27.0499 147.822 26.7108 147.787C25.8935 151.433 26.9456 155.079 27.5455 158.708C27.6672 159.449 28.3628 160.094 28.7889 160.783C28.9801 160.644 29.1715 160.504 29.3627 160.356C28.8063 156.204 28.2585 152.052 27.702 147.9L27.7107 147.891ZM19.4159 161.856C18.6334 158.489 17.8509 155.114 17.077 151.782C14.2077 153.57 15.5207 159.519 19.4159 161.856ZM70.0369 96.0444C70.2195 95.8002 70.4108 95.556 70.5934 95.3204C67.5937 92.8694 64.594 90.4096 61.203 87.6358C62.4464 92.913 66.7764 93.8638 70.0369 96.0531V96.0444ZM63.4985 129.67C63.9506 129.452 64.394 129.234 64.8461 129.016L61.803 122.927C61.3856 123.137 60.9596 123.355 60.5422 123.564C61.5247 125.597 62.5159 127.629 63.4985 129.67Z" fill="#DCCBA6"/>
<path d="M63.0463 82.3587C62.2029 83.4926 61.3682 84.6266 60.5248 85.7605C60.7596 86.0222 60.9944 86.2751 61.2291 86.5368C60.3684 86.6328 59.5075 86.7374 58.6468 86.8334C56.7513 88.3947 54.4124 89.642 53.0473 91.5785C51.0214 94.4569 49.5346 97.7541 48.1174 100.999C47.2479 103.005 46.9088 103.589 45.2568 101.514C41.6137 96.9341 36.1708 98.6525 31.4234 97.4575C31.9625 99.0537 32.3363 100.196 32.7189 101.33C32.6581 101.522 32.6494 101.714 32.6842 101.915L32.7189 102.037C32.0929 102.7 31.4669 103.363 30.6235 104.244C32.2146 104.689 33.3189 104.994 34.4231 105.308C34.3275 106.093 34.2318 106.887 34.1362 107.672C33.2667 107.724 32.3972 107.776 31.519 107.829C29.9801 106.983 28.4237 106.163 26.9108 105.282C25.5544 104.497 24.2328 103.642 22.4417 102.525C24.8327 101.47 26.4674 101.13 27.5108 100.153C28.1629 99.5422 28.1976 97.9285 28.0324 96.8469C27.5455 93.6806 24.5284 92.3722 19.7376 93.6021C20.6767 93.8114 21.6418 93.9423 22.546 94.2476C23.5285 94.579 24.8936 94.8233 25.3023 95.556C25.9196 96.6724 26.1022 98.2076 25.9196 99.4811C25.8674 99.8649 23.9981 100.092 22.9373 100.205C21.8852 100.319 20.8071 100.205 19.7463 100.188C19.1725 99.5509 18.5899 98.9142 18.5464 98.8618C16.2249 99.0712 14.373 99.2456 12.5297 99.4114C9.85168 101.165 2.90451 99.3852 1.70463 96.4806C1.35684 95.6345 1.62637 94.3261 2.01763 93.4102C5.32165 85.6384 8.49529 77.7968 12.1993 70.2169C13.7469 67.0505 12.1645 64.9397 10.7211 63.0992C8.73003 60.5609 8.82566 58.1797 9.94729 55.685C13.0165 48.8378 16.3553 42.1039 19.4072 35.248C20.3463 33.1371 21.3201 33.0324 23.0503 34.2013C24.6763 35.3003 26.4239 36.2162 28.1194 37.2106C28.5715 37.2367 29.0324 37.2629 29.4845 37.2978C30.2322 37.9433 30.9191 38.7021 31.7538 39.208C34.5101 40.8566 37.4663 42.1999 40.0573 44.0578C42.0745 45.5057 43.6482 47.5905 45.4741 49.3263C45.935 49.7711 46.6132 49.9979 47.3697 50.4166C48.5956 44.555 46.048 40.8566 41.8224 37.9258L41.8658 37.9607C43.3613 37.7339 44.8568 37.4984 46.3523 37.2716C47.6826 37.2891 49.013 37.3065 50.3433 37.324C51.6909 37.7426 53.0386 38.2049 54.4037 38.5713C56.1253 39.0336 58.6207 38.1264 58.812 41.1706C58.6468 41.6329 58.2816 42.1388 58.3685 42.5401C58.6033 43.6217 59.0467 44.6597 59.4032 45.7238C59.0641 46.1512 58.3511 46.6833 58.4381 47.006C59.3684 50.5387 60.151 54.1411 61.4987 57.5168C64.0723 63.9889 64.0114 70.81 64.5679 77.5438C64.6983 79.1052 63.5854 80.7712 63.0376 82.3849L63.0463 82.3587ZM24.2067 64.5123C33.4928 62.2008 41.1963 67.6524 49.5607 69.8331C49.7433 69.5278 49.9172 69.2138 50.0998 68.9085C45.5959 66.2306 41.092 63.5615 36.5968 60.8837C31.3799 58.6856 26.1544 58.232 20.8853 60.7005C20.2245 61.0145 19.4855 61.2936 18.7725 61.3198C17.0944 61.3721 14.9468 62.445 14.3817 59.5404C14.3469 59.3572 13.2861 59.3747 12.7035 59.2962C13.0774 61.4419 13.2426 63.6662 13.9295 65.7073C14.1817 66.4574 15.625 67.1116 16.5988 67.2512C19.1377 67.6001 21.72 67.635 23.6677 67.7571C23.6677 71.3333 23.6068 73.8891 23.7198 76.4361C23.7372 76.8896 24.3807 77.5351 24.8676 77.7008C29.9801 79.4802 38.614 76.1046 41.6398 71.3682C36.5098 65.2624 29.0758 67.2076 22.3461 66.5534C22.3634 66.2045 22.3808 65.8643 22.3982 65.5154C22.9982 65.1752 23.6068 64.8437 24.2067 64.5035V64.5123ZM35.823 50.0677C30.4844 48.0789 25.111 47.8172 19.7376 50.0677H35.823ZM11.9384 84.9231C14.4512 84.5306 16.4597 80.0298 18.2073 71.3595C17.7726 71.3333 17.0336 71.1851 16.9901 71.2985C15.3033 75.7383 13.6774 80.2042 11.9384 84.9231ZM49.3781 53.234C50.065 57.7174 50.6302 61.4594 51.3345 66.0649C52.8995 63.6575 52.2735 61.3896 52.1778 59.3485C52.0822 57.2289 52.4039 54.743 49.3781 53.234Z" fill="#EDE2DA"/>
<path d="M79.5838 1.59624C82.2357 1.57879 84.8789 1.55262 87.5308 1.53517C88.9916 1.53517 90.4523 1.53517 91.9217 1.53517C97.8081 2.53827 103.703 3.55009 109.589 4.55319C114.719 6.9519 120.023 9.06277 124.901 11.8889C127.127 13.1798 128.535 15.9013 130.318 17.9773C130.083 18.1604 129.848 18.3436 129.614 18.5355C124.301 16.0408 118.91 13.6945 113.702 11.0079C108.763 8.46091 104.416 4.71019 99.0427 3.11396C98.8253 3.55009 98.6167 3.99495 98.3993 4.43108C107.903 9.27211 117.397 14.1044 126.892 18.9455C127.535 19.2769 128.379 19.5299 128.727 20.0794C131.135 23.8214 133.431 27.6419 135.943 31.7153C133.9 31.4188 131.813 31.1048 129.327 30.7384C128.814 26.9615 125.084 26.3073 121.849 24.9292C120.354 24.2924 118.71 23.5336 117.658 22.356C111.807 15.8315 104.912 11.226 96.3038 9.08894C91.6 7.92011 87.0961 5.92264 82.4878 4.33513C81.827 4.10834 81.088 4.0909 80.3924 3.96878C80.2533 4.30024 80.1142 4.63169 79.9751 4.95442C82.9487 6.34132 85.8614 7.91139 88.922 9.05405C91.4609 10.0048 94.1562 10.7026 96.8429 11.069C104.764 12.1331 110.024 17.3841 115.589 22.3647C117.98 24.5018 121.11 25.8014 123.858 27.5459C125.423 28.5403 126.909 29.6742 129.109 31.2269C120.249 31.0611 114.215 26.412 107.685 23.0364C100.512 19.3205 93.5041 15.2558 86.2005 11.8104C82.7052 10.1618 78.7143 9.59484 74.6799 9.21977C90.6262 13.3892 103.599 23.4289 118.815 30.7733C117.423 31.3752 116.571 32.0991 116.05 31.9072C112.546 30.6686 109.329 30.6512 105.599 31.82C102.338 32.8405 98.4863 31.82 94.9214 32.0642C92.8607 32.2038 90.8609 33.0848 88.8176 33.5645C88.1655 33.7128 87.3482 33.8698 86.7917 33.6081C83.3834 32.0468 79.9751 30.4506 76.6537 28.706C71.289 25.8799 65.7243 23.3155 60.7422 19.9224C55.5775 16.3985 50.665 12.639 44.3699 11.4004C44.0048 11.3306 43.6917 11.0341 42.8135 10.5282C44.5177 9.9263 45.7872 9.47273 47.0653 9.01915C51.4127 7.85905 55.7601 6.67278 60.1249 5.54757C62.9594 4.81487 65.8025 4.06473 68.6805 3.5152C72.1063 2.86101 75.5755 2.42488 79.0186 1.8928C79.2099 1.78813 79.4012 1.69218 79.5925 1.5875L79.5838 1.59624ZM51.3605 9.6908C51.2736 9.90886 51.1779 10.1269 51.091 10.345C51.9518 10.8247 52.7604 11.4528 53.682 11.7668C57.1773 12.9618 60.7422 13.9823 64.2288 15.2209C68.524 16.7474 72.7845 18.3698 77.0188 20.062C81.1749 21.7192 85.7049 22.8968 89.2784 25.4263C92.5477 27.7378 96.0169 28.8369 99.6165 29.9359C100.66 30.2587 101.886 29.9883 103.034 29.9883C99.1209 27.9995 95.2083 26.7609 91.4695 25.1211C87.7743 23.5074 84.3398 21.2918 80.6358 19.6956C75.0886 17.2969 69.4631 15.0377 63.7593 13.049C59.7249 11.6446 55.4992 10.7898 51.3605 9.69951V9.6908Z" fill="#DCCBA6"/>
<path d="M50.3607 37.3065C49.0304 37.2891 47.7 37.2716 46.3697 37.2542C46.048 36.8355 45.7437 36.0592 45.3872 36.0417C42.1615 35.8237 39.3704 34.6985 37.0054 32.4742C33.0754 28.7758 28.215 27.3628 23.0069 26.8394C21.3983 26.6737 20.3028 25.7927 21.3114 24.2837C24.4154 19.6258 28.0933 15.5524 33.9449 14.3487L34.0231 14.4446C33.8145 16.3636 35.11 16.1368 36.4229 16.4944C39.1183 17.2358 41.9441 18.0558 44.2656 19.5473C51.1693 23.9784 57.8642 28.7409 64.6375 33.3814C64.1419 36.2511 62.1855 34.4891 60.9335 34.4106C59.6119 34.3321 58.3251 33.6954 56.5861 33.1633C57.3339 34.8729 57.7947 35.9196 58.3076 37.0972C56.673 36.6262 55.4819 36.286 54.2994 35.9371C53.682 35.3701 53.1343 34.6897 52.4387 34.2536C47.3696 31.096 42.318 27.8774 37.1446 24.8943C34.2057 23.2021 31.0843 21.8065 27.9542 20.4981C27.1891 20.1841 26.0674 20.7423 25.1023 20.8906C25.7631 21.8239 26.45 21.9897 27.1021 22.2601C30.5018 23.6644 34.0492 24.807 37.2576 26.569C42.5701 29.4998 47.6566 32.8405 52.8386 36.0068C52.0213 36.443 51.1953 36.8704 50.378 37.3065H50.3607Z" fill="#DCCBA6"/>
<path d="M22.1721 30.9739C21.3201 30.2587 20.468 29.5434 19.6159 28.8282C19.7115 28.5316 19.8072 28.2437 19.9028 27.9472C22.5026 28.392 25.0936 28.9328 27.702 29.2643C32.4928 29.8749 35.3274 33.5209 38.8053 36.1987C39.7269 36.914 40.8486 37.3676 41.8832 37.9345L41.8397 37.8996C42.7005 39.4784 43.5613 41.0659 44.4308 42.6447C45.2133 44.0665 46.0045 45.4883 46.7871 46.9101C44.6134 44.5899 42.318 42.7756 39.9704 41.0311C35.0491 37.385 30.1018 33.7564 25.1197 30.1976C24.911 30.0493 24.1981 30.5901 23.7198 30.8082C23.1982 30.8605 22.6851 30.9129 22.1634 30.9652L22.1721 30.9739Z" fill="#DCCBA6"/>
<path d="M12.547 99.3939C14.3903 99.2282 16.2423 99.0537 18.5638 98.8444C18.6073 98.8967 19.1899 99.5335 19.7637 100.17C20.1463 100.598 20.5202 101.025 20.9027 101.452C20.7636 101.784 20.6158 102.107 20.4767 102.438C17.8334 101.426 15.1902 100.414 12.547 99.3939Z" fill="#7B94A4"/>
<path d="M22.1721 30.9739C22.6938 30.9216 23.2069 30.8692 23.7198 30.8169C26.337 32.7184 28.9541 34.62 32.232 36.9925C30.7104 37.1495 30.1105 37.2193 29.5105 37.2803C29.0497 37.2542 28.5976 37.228 28.1455 37.1931C27.902 36.5389 27.8324 35.6841 27.3803 35.2742C25.7196 33.7651 23.9285 32.3957 22.1809 30.9739H22.1721Z" fill="#7B94A4"/>
<path d="M137.056 28.6799C133.413 26.6475 132.839 23.0102 130.622 20.6464C132.639 20.751 135.265 23.9173 137.056 28.6799Z" fill="#DCCBA6"/>
<path d="M8.53004 64.6082C8.34745 64.0064 8.1562 63.3958 7.97361 62.7939C8.64311 63.3871 9.31256 63.9889 9.99075 64.582C9.86033 64.7129 9.7386 64.8437 9.60818 64.9746C9.2517 64.8525 8.88652 64.7303 8.53004 64.6082Z" fill="#7B94A4"/>
<path d="M87.9916 96.655C88.4612 97.5621 88.9394 98.4606 89.4089 99.3677C89.9827 100.004 90.4609 101.06 91.1304 101.208C93.1824 101.644 95.3213 102.002 97.3994 101.897C103.634 101.575 109.859 101.025 116.093 100.563C117.032 100.449 117.98 100.362 118.919 100.231C122.258 99.7428 125.579 99.1409 128.935 98.8182C129.657 98.7484 130.483 99.6381 131.257 100.083C130.657 101.191 129.596 102.272 129.535 103.406C129.274 108.361 129.301 113.333 129.214 118.304C130.048 121.741 130.744 125.221 131.744 128.615C132.918 132.618 134.344 136.552 135.665 140.512C135.683 140.756 135.7 141.001 135.717 141.245C134.291 141.437 132.848 141.873 131.431 141.777C126.083 141.437 121.275 142.989 116.624 145.44C106.329 150.857 96.0604 156.326 85.644 161.507C77.4362 165.59 68.8283 168.616 59.6814 169.872C58.6468 170.012 57.586 170.701 56.6383 170.535C55.7427 170.378 54.7341 169.602 54.2298 168.808C53.4212 167.543 52.9864 166.034 52.3865 164.63C52.3169 164.098 52.3518 163.514 52.1518 163.034C49.9607 157.635 52.4821 154.311 59.1771 154.538C58.5076 158.097 57.8469 161.577 57.2034 165.005C60.351 164.613 62.1334 156.727 59.3597 152.689C61.0813 151.843 62.742 151.058 64.3853 150.212C67.5589 148.572 70.776 146.984 73.8713 145.214C75.9929 144.001 77.9578 142.51 79.9837 141.123C80.9141 140.486 82.227 140.015 82.6704 139.125C83.8181 136.805 85.0702 134.354 85.4093 131.842C86.331 124.96 86.8352 118.025 87.4091 111.108C87.496 110.105 87.1483 109.032 86.87 108.029C85.9223 104.584 84.905 101.156 83.9225 97.7279C85.6006 97.2918 86.8005 96.9777 88.0003 96.6724L87.9916 96.655Z" fill="#EDE2DA"/>
<path d="M87.9916 96.655C86.7918 96.969 85.5919 97.2743 83.9138 97.7104C84.8963 101.138 85.9136 104.566 86.8613 108.012C87.1396 109.015 87.4873 110.088 87.4004 111.091C86.8265 118.017 86.3223 124.951 85.4006 131.825C85.0615 134.337 83.8094 136.788 82.6617 139.108C82.2183 139.998 80.9141 140.477 79.9751 141.105C77.9492 142.483 75.9841 143.975 73.8626 145.196C70.7586 146.967 67.5502 148.554 64.3766 150.194C62.742 151.04 61.0726 151.825 59.351 152.671C62.116 156.71 60.3423 164.604 57.1947 164.988C57.8382 161.56 58.4989 158.079 59.1684 154.521C52.4734 154.285 49.952 157.608 52.1431 163.016C52.3431 163.496 52.3082 164.081 52.3778 164.613C51.717 164.639 51.0562 164.665 50.3954 164.691C49.8737 162.772 50.6649 160.164 47.7261 159.493C47.9348 157.242 48.1521 157.007 51.1257 155.428C52.7865 154.547 54.4211 153.596 56.5861 152.384C55.1341 150.988 54.195 150.09 53.2647 149.182C59.7075 152.166 64.4896 147.586 69.9847 146.182C69.9413 145.92 69.8978 145.659 69.863 145.406C68.2197 145.161 66.5764 144.926 64.9244 144.682C64.8809 144.307 64.8375 143.931 64.8027 143.548C70.7499 145.249 74.8104 141.62 79.1925 139.021C81.9401 137.398 82.0096 135.462 79.6533 133.953C81.0184 132.688 82.3922 131.423 84.0094 129.932C80.6793 128.039 77.6622 126.731 75.1494 124.768C72.7236 122.866 70.8368 120.276 68.7066 117.982C69.0022 117.703 69.2892 117.423 69.5848 117.144C71.715 119.29 73.6626 121.68 76.0363 123.503C78.4187 125.335 81.2271 126.6 83.8442 128.117C86.0701 123.974 85.0615 121.68 78.9577 119.081C79.0708 118.784 79.1838 118.488 79.2969 118.191C81.2097 118.933 83.1226 119.674 85.4962 120.59V111.623C83.6529 110.899 81.8792 110.192 80.1055 109.495C80.2185 109.163 80.3402 108.823 80.4533 108.492C82.0183 108.806 83.5921 109.128 86.2701 109.669C82.5139 103.284 77.8014 98.6787 73.6452 93.7155C74.1264 93.4306 76.2508 94.5849 80.0185 97.1784C79.8533 92.0233 78.9839 91.0551 74.3148 90.8371C71.3672 90.6975 66.9851 86.7462 65.7765 83.1263C66.046 82.8646 66.3156 82.6029 66.5938 82.3412C68.0632 83.0739 67.9415 85.8216 70.376 85.3244C70.5325 86.1618 70.6803 86.9904 70.9238 88.2901C73.0105 88.7524 75.4538 89.2932 78.1491 89.8863V86.6502C77.9405 86.8421 77.7405 87.0427 77.5318 87.2346C74.6104 84.173 71.6889 81.1114 68.7762 78.0585C69.037 77.7706 69.2979 77.474 69.5587 77.1862C72.1497 79.7419 74.7495 82.2976 77.3405 84.8534C77.6883 84.6091 78.0274 84.3736 78.3752 84.1294C78.097 81.7394 77.8274 79.3494 77.5057 76.5669C72.4541 77.5351 70.6977 72.8162 67.3589 70.6006C67.5589 70.2954 67.7589 69.9988 67.9676 69.6935C70.1152 71.3944 72.2541 73.0953 74.4017 74.7962C74.6104 74.5781 74.8277 74.3601 75.0364 74.142C73.5931 72.2841 72.1411 70.4262 70.7064 68.5596C68.611 65.8294 68.637 64.5821 71.5672 62.855C74.9929 60.8313 78.5926 59.017 82.2617 57.4906C86.1309 55.8769 89.035 57.2115 91.1478 60.7877C94.4171 66.3179 94.6519 72.3364 94.7475 78.5644C94.8257 83.2222 93.6606 87.1561 91.1391 90.9156C89.9306 92.7212 89.0263 94.7448 87.9916 96.6638V96.655ZM79.9664 75.5115C80.0881 79.6285 80.1577 83.8677 80.3577 88.0894C80.4359 89.7816 80.6098 91.5261 81.0967 93.1311C81.3662 94.0295 82.2792 95.1199 83.0965 95.3292C83.7486 95.4949 84.7658 94.5355 85.5223 93.9423C86.5048 93.166 87.5134 92.3548 88.2959 91.3866C90.7913 88.3162 93.1129 85.2633 93.3128 80.9282C93.5824 75.1189 92.3651 69.6412 90.6696 64.1983C89.3741 60.055 84.5137 57.3161 81.601 59.3049C79.4621 60.7616 77.6448 62.7067 75.532 64.5733C73.7322 63.6749 72.0019 63.8057 71.1324 66.3527C73.0279 68.6642 74.793 70.9147 76.6971 73.043C77.0797 73.4704 77.9926 73.6099 78.6535 73.5838C80.6793 73.514 82.7139 73.0604 84.705 73.2261C85.7571 73.3134 86.7396 74.3775 87.7482 74.9968C87.6004 75.1713 87.4613 75.337 87.3135 75.5115H79.9577H79.9664Z" fill="#262626"/>
<path d="M17.2248 113.638C19.2159 114.658 20.5549 116.368 23.659 115.478C25.3545 114.99 28.3281 116.909 31.0061 116.333C32.1016 116.098 33.2841 116.298 34.4318 116.298C34.5101 116.586 34.5883 116.883 34.6665 117.171C35.3708 116.56 36.0664 115.941 36.2838 115.749H43.7004C40.892 118.915 32.4407 120.206 27.8064 118.2C27.6673 118.933 27.5369 119.604 27.4151 120.276L27.1543 120.223L26.8848 120.25C25.9979 120.633 25.111 121.017 24.2328 121.401C24.0154 121.41 23.7981 121.418 23.5807 121.427C20.9636 122.186 18.3465 122.945 15.7293 123.704C15.625 123.093 15.512 122.491 15.4076 121.881C15.1381 121.968 14.8686 122.064 14.599 122.151L15.6772 123.817C15.2859 124.367 14.9033 124.925 14.5121 125.474C13.6687 125.649 12.8166 125.815 11.9732 125.989C12.2079 125.387 12.434 124.794 12.6688 124.201C12.8427 123.329 13.0166 122.448 13.1905 121.575C13.5991 120.476 13.9991 119.377 14.4077 118.278L14.6251 118.331C14.7903 118.13 14.9642 117.921 15.1294 117.72C15.9815 117.956 16.8249 118.191 17.677 118.427C16.9466 119.028 16.2075 119.63 14.8946 120.703C17.2857 120.974 19.0855 121.261 20.894 121.323C21.3201 121.34 21.7896 120.599 22.1896 120.171C22.3113 120.04 22.2678 119.761 22.3026 119.543C22.9025 119.308 23.5024 119.063 24.5632 118.636C21.2505 117.458 18.5204 116.499 15.7902 115.531C15.2598 114.135 15.6597 113.446 17.2161 113.638H17.2248Z" fill="#0D0D0D"/>
<path d="M5.99118 105.779C6.19985 106.546 6.56503 107.314 6.58242 108.082C6.63458 110.254 7.59101 111.51 9.79079 111.728C11.3385 111.972 12.8862 112.216 14.4338 112.469C14.4338 113.507 14.4338 114.545 14.4338 115.574L12.5905 116.272C11.7819 115.644 11.0603 114.737 10.1473 114.449C5.03478 112.809 4.02615 110.803 5.98247 105.779H5.99118Z" fill="#0D0D0D"/>
<path d="M12.5992 116.272L14.4425 115.574C14.8946 115.557 15.3468 115.539 15.7902 115.531C18.5204 116.499 21.2505 117.467 24.5632 118.636C23.5024 119.063 22.9025 119.299 22.3026 119.543C20.7549 119.168 19.2159 118.793 17.6683 118.427C16.8162 118.191 15.9728 117.956 15.1207 117.72C14.9555 117.921 14.7816 118.13 14.6164 118.331L14.399 118.278C13.7991 117.607 13.1992 116.944 12.5905 116.272H12.5992Z" fill="#DCCBA6"/>
<path d="M19.042 167.282H23.1895C22.5026 165.825 22.033 164.813 21.5635 163.801C21.7548 163.601 21.9461 163.409 22.1374 163.208C22.7721 163.74 23.6242 164.15 24.0154 164.822C25.2153 166.889 26.9978 167.57 29.1888 167.247C31.1973 166.95 33.2406 166.636 35.1448 165.982C37.8663 165.049 38.1705 162.511 36.1968 159.03C38.9183 159.78 41.6832 160.539 44.4395 161.307C44.596 161.019 44.7438 160.731 44.9003 160.443C44.2917 159.65 43.6744 158.856 43.0657 158.062C43.1614 157.922 43.2657 157.774 43.3613 157.635C44.8133 158.254 46.2741 158.873 47.7261 159.493C46.7784 160.347 45.8915 161.839 44.8829 161.935C41.4311 162.249 39.4747 164.517 37.1619 166.61C35.8925 167.762 33.8231 168.424 32.0581 168.555C28.3889 168.843 24.685 168.695 20.9984 168.555C20.3289 168.529 19.6942 167.718 19.042 167.273V167.282Z" fill="#262626"/>
<path d="M13.1122 163.409C13.886 162.676 14.6599 161.944 16.0945 160.583C16.2423 162.371 16.3119 163.226 16.3814 164.089C15.2946 163.863 14.2077 163.636 13.1122 163.409Z" fill="#7B94A4"/>
<path d="M14.5121 125.474C14.9033 124.925 15.2859 124.367 15.6772 123.817L15.7293 123.695C18.3465 122.936 20.9636 122.177 23.5807 121.418C23.7981 121.41 24.0154 121.401 24.2328 121.392C25.1197 121.008 26.0066 120.625 26.8848 120.241C27.076 122.046 26.9891 123.922 27.4933 125.631C29.8149 133.517 26.1891 139.474 21.2592 144.873C20.4419 145.763 17.877 146.077 16.7727 145.475C13.86 143.87 13.9295 146.051 13.2948 148.206C11.5298 146.635 9.99075 145.344 8.5735 143.923C8.34744 143.696 8.50394 142.763 8.79087 142.379C9.53862 141.393 10.4429 140.538 11.4341 139.474C11.8862 139.718 12.4688 140.024 13.1209 140.364C13.3035 139.902 13.4861 139.614 13.5208 139.308C13.8078 136.831 14.1382 134.354 14.3208 131.868C14.4773 129.748 14.4512 127.603 14.5033 125.474L14.5121 125.474ZM20.4593 141.14C20.3028 141.114 20.5723 141.254 20.7027 141.166C22.8677 139.736 25.1979 132.33 24.1806 130.08C24.0415 129.766 23.5894 129.583 23.2851 129.347C22.946 129.792 22.3895 130.202 22.2939 130.699C21.6418 134.11 21.0766 137.529 20.4593 141.14Z" fill="#DCCBA6"/>
<path d="M13.7469 128.667C12.2253 132.252 10.695 135.837 9.17344 139.413C8.76479 139.256 8.35616 139.09 7.9475 138.933C7.90403 134.816 10.7472 131.746 12.3645 128.239L13.7469 128.667Z" fill="#DCCBA6"/>
<path d="M131.257 100.066C130.483 99.6207 129.666 98.731 128.935 98.8008C125.579 99.1322 122.258 99.7253 118.919 100.214C117.98 100.353 117.032 100.441 116.093 100.545C115.858 100.135 115.624 99.7166 115.389 99.3067C120.788 97.7889 126.162 96.245 131.9 96.6724C132.987 96.7509 134.335 96.1229 135.239 95.4077C137.743 93.4189 140.23 91.3604 142.421 89.0402C143.595 87.8016 144.134 85.9611 144.96 84.391C146.647 81.3381 148.342 78.2852 150.029 75.2323C150.211 75.1625 150.385 75.0928 150.568 75.0143C150.855 75.965 151.133 76.9071 151.42 77.8578C149.072 81.8266 147.168 86.1705 144.256 89.6595C140.995 93.5672 136.813 96.6986 133.031 100.17C132.448 100.127 131.857 100.092 131.274 100.048L131.257 100.066Z" fill="#262626"/>
<path d="M135.665 140.495C134.352 136.535 132.918 132.601 131.744 128.597C130.753 125.204 130.048 121.724 129.214 118.287C129.796 118.287 130.387 118.287 130.97 118.287C133.039 125.16 135.039 132.051 137.204 138.898C137.804 140.8 137.839 141.576 135.656 140.503L135.665 140.495Z" fill="#262626"/>
<path d="M91.9217 1.53517C90.461 1.53517 88.9916 1.53517 87.5308 1.53517C88.9916 1.53517 90.4523 1.53517 91.9217 1.53517Z" fill="#7B94A4"/>
<path d="M66.6112 82.3325C66.3416 82.5942 66.0721 82.8559 65.7939 83.1176C64.8809 82.8646 63.9593 82.6116 63.0463 82.3587C63.5854 80.745 64.707 79.079 64.5766 77.5177C64.0114 70.7838 64.0723 63.9628 61.5073 57.4906C60.1683 54.115 59.3771 50.5038 58.4468 46.9799C58.3598 46.6571 59.0728 46.1338 59.4119 45.6976C61.5334 52.4053 64.1766 59.0083 65.6113 65.8643C66.7242 71.1938 66.3329 76.8286 66.6112 82.3325Z" fill="#0D0D0D"/>
<path d="M54.2994 35.9371C55.4819 36.2772 56.673 36.6174 58.3076 37.0972C57.7947 35.9196 57.3339 34.8729 56.5861 33.1633C58.3251 33.6954 59.6119 34.3321 60.9335 34.4106C62.1855 34.4891 64.1419 36.2511 64.6375 33.3814C64.8461 32.9888 65.0635 32.5876 65.2722 32.1951C67.585 32.9714 69.6804 35.0997 72.4106 32.8405C73.0366 32.3259 74.5321 32.858 75.6537 33.6605C74.793 33.8262 73.9322 33.9832 72.9671 34.1664C73.5496 37.7252 70.9325 37.7339 68.9936 37.1582C64.6375 35.8673 61.403 36.3383 59.7597 41.0921C59.7162 41.2055 59.1598 41.1445 58.8381 41.1619C58.6381 38.1177 56.1514 39.0249 54.4298 38.5626C53.0647 38.1962 51.7257 37.7339 50.3693 37.3152C51.1866 36.8791 52.0126 36.4517 52.8299 36.0156C53.3169 35.9894 53.8125 35.972 54.2994 35.9458V35.9371Z" fill="#0D0D0D"/>
<path d="M65.2722 32.1864C65.0635 32.5789 64.8461 32.9801 64.6375 33.3726C57.8642 28.7409 51.178 23.9697 44.2656 19.5386C41.9441 18.047 39.1183 17.2271 36.4229 16.4857C35.11 16.1281 33.8145 16.3549 34.0231 14.4359C38.8487 13.6509 42.5093 16.1193 46.1698 18.7187C52.5083 23.2457 58.8989 27.6942 65.2722 32.1776V32.1864Z" fill="#262626"/>
<path d="M115.389 99.3154C115.624 99.7253 115.858 100.144 116.093 100.554C109.859 101.016 103.634 101.575 97.3994 101.889C95.3213 101.993 93.1824 101.636 91.1304 101.199C90.4522 101.06 89.9741 99.9958 89.4089 99.359C98.0689 99.3416 106.729 99.3241 115.389 99.3067V99.3154Z" fill="#0D0D0D"/>
<path d="M150.029 75.241C148.342 78.2939 146.647 81.3469 144.96 84.3998C144.195 84.6876 143.43 84.9755 142.664 85.2546C142.473 85.115 142.273 84.9754 142.082 84.8359C143.221 83.1873 144.551 81.6347 145.464 79.864C147.707 75.5551 150.411 71.4903 148.942 65.9951C148.264 63.4743 149.342 60.4824 150.029 57.6825V75.241Z" fill="#EDE2DA"/>
<path d="M32.7276 101.33C32.3451 100.196 31.9625 99.0537 31.4321 97.4575C36.1795 98.6525 41.6224 96.9341 45.2655 101.514C46.9175 103.589 47.2566 103.005 48.1261 100.999C49.5433 97.7541 51.0301 94.4569 53.056 91.5785C54.4211 89.642 56.7513 88.3947 58.6555 86.8334C55.9166 93.1573 58.0903 95.4775 62.8464 100.755C64.7679 102.892 65.846 105.796 67.8371 107.837C65.7243 107.898 56.8991 98.5129 54.9515 91.0028C49.9172 101.662 55.8123 109.678 60.064 118.034C55.8557 112.748 51.3692 107.689 50.8649 100.092C50.2128 101.461 49.439 102.796 48.9347 104.218C48.3695 105.814 48.1174 107.523 47.6218 109.146C47.1001 110.855 46.7523 112.26 48.4913 113.743C49.3607 114.484 49.2999 116.298 49.6737 117.633C50.6302 120.991 51.604 124.341 52.656 127.987C50.378 126.922 49.4303 125.065 49.0216 122.727C48.7434 121.166 47.9609 119.622 48.0044 118.086C48.1261 113.638 45.4046 113.455 42.1441 113.682C41.6746 113.716 41.1615 113.123 40.9268 112.984C42.5527 112.347 45.3437 111.963 45.5263 111.047C46.048 108.448 46.7697 105.692 44.2917 103.057C40.1008 98.6089 38.8748 98.1466 33.684 101.383C33.4667 101.522 33.058 101.357 32.7363 101.33H32.7276Z" fill="#262626"/>
<path d="M37.8749 132.06C40.8746 132.575 41.9615 134.712 42.544 137.398C43.1266 140.093 43.3526 143.042 44.6655 145.353C46.4306 148.458 49.0738 151.066 51.4997 154.085C47.3349 153.622 45.6307 149.636 42.3962 147.333C43.5178 150.002 44.6395 152.663 45.7611 155.332C45.4481 155.471 45.1351 155.62 44.8307 155.759C43.7961 153.866 42.5266 152.061 41.7876 150.063C40.2225 145.807 39.04 141.411 37.4663 137.163C36.9359 135.732 35.6925 134.555 34.7274 133.29C34.0318 132.374 33.2667 131.502 32.5277 130.612C32.7276 130.411 32.9276 130.211 33.1276 130.01C34.7187 131.118 36.3099 132.226 37.9097 133.342C38.6749 135.741 39.44 138.14 40.2051 140.538C41.4572 136.57 40.9703 135.401 37.9271 133.325C37.9271 132.889 37.9271 132.452 37.9271 132.016L37.8749 132.06Z" fill="#262626"/>
<path d="M43.6222 124.105C46.3871 125.309 48.5173 127.184 49.6216 130.246C50.9519 133.927 52.0387 137.747 53.8472 141.184C54.8297 143.059 57.1165 144.228 58.7598 145.772C59.351 146.33 59.8031 147.037 59.9857 147.944C53.0734 145.51 50.665 139.841 48.926 133.49C48.3 131.223 46.8305 129.129 45.4828 127.132C44.8742 126.225 43.6309 125.754 42.6744 125.082C42.9875 124.759 43.3092 124.428 43.6222 124.105Z" fill="#262626"/>
<path d="M62.3594 112.687C63.4811 113.917 64.7939 115.016 65.6895 116.394C67.4459 119.089 68.8631 122.003 70.6108 124.707C71.8541 126.635 73.3931 128.37 74.5756 130.83C73.5148 130.158 72.0889 129.731 71.4541 128.78C69.037 125.16 66.8894 121.357 64.6027 117.65C63.6897 116.167 62.6725 114.754 61.7073 113.315C61.9334 113.106 62.1507 112.896 62.3768 112.696L62.3594 112.687Z" fill="#262626"/>
<path d="M80.3837 114.868C78.6969 113.978 76.5232 113.49 75.4103 112.129C72.4193 108.5 69.8891 104.497 67.5154 99.987C68.4023 100.406 69.6022 100.598 70.1239 101.295C71.7846 103.511 73.0279 106.04 74.7321 108.23C76.4015 110.376 78.4187 112.234 80.2881 114.222C80.3229 114.44 80.3576 114.658 80.3837 114.885V114.868Z" fill="#262626"/>
<path d="M61.3508 140.713C58.8989 133.778 56.4383 126.844 53.9864 119.918L55.334 119.403C57.8816 126.303 60.4292 133.203 62.9767 140.102C62.4377 140.303 61.8986 140.512 61.3595 140.713H61.3508Z" fill="#262626"/>
<path d="M37.901 155.419C35.0491 149.069 32.5016 142.632 32.9015 135.331C34.8752 141.934 36.8403 148.546 38.814 155.149C38.5096 155.236 38.214 155.323 37.9097 155.41L37.901 155.419Z" fill="#262626"/>
<path d="M30.2931 112.783C25.2936 114.624 17.9552 109.451 17.277 105.386C21.6592 107.872 26.0153 110.349 30.2931 112.783Z" fill="#262626"/>
<path d="M44.9438 134.057C40.3703 130.708 41.5789 124.864 37.0924 121.951C40.4573 121.872 43.1787 126.39 44.9438 134.057Z" fill="#262626"/>
<path d="M27.6934 147.9C28.2498 152.052 28.7976 156.204 29.354 160.356C29.1628 160.496 28.9715 160.635 28.7802 160.783C28.3455 160.094 27.6586 159.449 27.5369 158.708C26.9369 155.088 25.8848 151.442 26.7021 147.787C27.0325 147.822 27.3629 147.857 27.702 147.891L27.6934 147.9Z" fill="#262626"/>
<path d="M19.3985 161.865C15.5033 159.527 14.199 153.579 17.0596 151.79C17.8335 155.122 18.616 158.498 19.3985 161.865Z" fill="#262626"/>
<path d="M70.0195 96.0619C66.759 93.8812 62.429 92.9305 61.1856 87.6446C64.5766 90.4271 67.5763 92.8781 70.576 95.3292C70.3934 95.5734 70.2021 95.8176 70.0195 96.0531V96.0619Z" fill="#262626"/>
<path d="M14.4425 112.469C12.8948 112.225 11.3472 111.981 9.79949 111.728C9.84297 111.326 9.88645 110.916 9.92123 110.515C10.9385 110.934 11.9471 111.344 13.1383 111.832C11.9297 110.079 10.9472 108.649 9.9734 107.218C10.2777 107.209 10.582 107.192 10.8863 107.183C12.321 108.579 13.2252 110.786 15.825 110.411C15.3641 111.1 14.912 111.789 14.4512 112.478L14.4425 112.469Z" fill="#7B94A4"/>
<path d="M38.2836 105.221C38.8314 104.479 39.3704 103.746 40.379 102.368C40.5616 104.226 41.0398 105.639 40.7181 106.843C40.4138 107.994 39.2922 108.928 38.2227 110.376C37.8662 110.097 37.2228 109.608 36.5794 109.111C37.0228 107.977 37.4576 106.843 37.901 105.709C38.0314 105.543 38.1532 105.386 38.2836 105.221Z" fill="#7B94A4"/>
<path d="M9.9647 107.218C10.9472 108.649 11.9297 110.079 13.1296 111.832C11.9384 111.344 10.9298 110.934 9.91253 110.515C8.17937 107.695 8.05766 105.421 9.54737 103.694C9.70387 105.055 9.83428 106.136 9.9647 107.218Z" fill="#262626"/>
<path d="M37.9271 132.016C36.2838 129.565 34.6405 127.123 32.9972 124.672C33.371 124.463 33.7362 124.245 34.1101 124.035C35.823 126.46 38.614 128.292 37.8836 132.069L37.9358 132.025L37.9271 132.016Z" fill="#262626"/>
<path d="M63.4811 129.687C62.4985 127.655 61.5073 125.623 60.5248 123.582C60.9422 123.372 61.3682 123.154 61.7856 122.945L64.8287 129.033C64.3766 129.251 63.9332 129.469 63.4811 129.687Z" fill="#262626"/>
<path d="M34.1536 107.663C34.2492 106.878 34.3448 106.084 34.4405 105.299C33.8753 104.209 33.3015 103.118 32.7276 102.028L32.6929 101.906C35.2404 101.845 37.2924 102.63 38.2836 105.221C38.1532 105.386 38.0314 105.543 37.901 105.7C37.3185 105.369 36.7272 105.037 36.7011 105.02C35.5969 106.119 34.8231 106.895 34.0405 107.663H34.1536Z" fill="#262626"/>
<path d="M14.4425 112.469C14.9033 111.78 15.3554 111.091 15.8163 110.402C16.8162 110.655 17.8247 110.899 18.5203 111.073C19.5463 113.045 15.6945 111.483 17.2248 113.638C15.6598 113.446 15.2598 114.126 15.7989 115.531C15.3468 115.548 14.8946 115.566 14.4512 115.574C14.4512 114.536 14.4512 113.498 14.4512 112.469H14.4425Z" fill="#262626"/>
<path d="M15.8076 110.411C13.2165 110.794 12.3123 108.579 10.8689 107.183C10.9298 106.573 10.9907 105.971 11.0515 105.36C11.295 105.229 11.5298 105.107 11.7732 104.976C13.1209 106.782 14.4599 108.596 15.8076 110.402V110.411Z" fill="#262626"/>
<path d="M34.0405 107.672C34.8231 106.895 35.5969 106.119 36.7011 105.029C36.7272 105.046 37.3185 105.378 37.901 105.709C37.4576 106.843 37.0228 107.977 36.5794 109.111C35.736 108.631 34.8839 108.151 34.0405 107.672Z" fill="#EDE2DA"/>
<path d="M24.2067 64.5123C23.6068 64.8524 22.9982 65.1839 22.3982 65.5241C22.3808 65.873 22.3634 66.2132 22.3461 66.5621C29.0671 67.2076 36.5098 65.2711 41.6398 71.377C38.614 76.1046 29.9801 79.4802 24.8676 77.7095C24.3807 77.5438 23.7459 76.8896 23.7198 76.4448C23.6068 73.8978 23.6677 71.3421 23.6677 67.7658C21.72 67.6437 19.1377 67.6088 16.5988 67.2599C15.625 67.1291 14.1817 66.4661 13.9295 65.716C13.2426 63.6749 13.0774 61.4594 12.7035 59.3049C13.2861 59.3834 14.3469 59.366 14.3817 59.5491C14.9468 62.4537 17.0944 61.3896 18.7725 61.3285C19.4855 61.3024 20.2245 61.0232 20.8853 60.7092C26.1631 58.2407 31.3886 58.6856 36.5968 60.8924L35.9882 61.9914C31.5451 60.4563 27.1195 59.8806 22.5374 61.6513C20.7897 62.3316 18.8073 62.5759 16.9205 62.6805C14.6599 62.8026 14.7729 63.8581 15.5554 65.7771C18.5204 64.8612 21.4244 63.9715 24.3198 63.0818C24.285 63.5615 24.2415 64.0325 24.2067 64.5123ZM26.2239 74.552C27.6847 76.7413 30.2757 76.4622 31.5799 75.18C32.5711 74.2031 32.658 71.2984 31.9451 69.8418C30.7191 67.3297 28.2846 68.6468 26.0239 68.9957C27.3716 70.3913 28.4498 71.4991 29.5192 72.6068C28.4846 73.2174 27.4499 73.8367 26.2326 74.5607L26.2239 74.552ZM34.2927 74.3775C36.1534 73.5576 37.7532 72.8511 39.353 72.1358C39.3443 71.8305 39.3357 71.5252 39.327 71.2199C37.5098 70.4524 35.6926 69.6848 33.4493 68.734C33.7797 70.9583 33.9797 72.2841 34.2927 74.3775Z" fill="#0D0D0D"/>
<path d="M29.5105 37.2716C30.1105 37.2106 30.7104 37.1408 32.232 36.9838C28.9628 34.6112 26.3457 32.7097 23.7198 30.8082C24.1981 30.5901 24.911 30.0406 25.1197 30.1976C30.1018 33.7651 35.0491 37.385 39.9704 41.0311C42.318 42.7668 44.6134 44.5899 46.7871 46.9101C46.0045 45.4883 45.2133 44.0665 44.4308 42.6447C43.5613 41.0659 42.7092 39.4872 41.8397 37.8996C46.0654 40.8304 48.613 44.5375 47.387 50.3904C46.6306 49.963 45.9611 49.7449 45.4916 49.3001C43.6656 47.5556 42.1006 45.4796 40.0747 44.0316C37.4837 42.1737 34.5275 40.8304 31.7712 39.1819C30.9365 38.6847 30.2583 37.9171 29.5018 37.2716H29.5105ZM46.6827 47.7387C46.6132 47.8172 46.4828 47.8957 46.4915 47.9568C46.5176 48.1051 46.6045 48.2359 46.6654 48.3755C46.7349 48.3057 46.8653 48.2272 46.8566 48.1749C46.8306 48.0266 46.7436 47.8957 46.6827 47.7387Z" fill="#262626"/>
<path d="M35.9882 61.9827C36.1881 61.6164 36.3968 61.25 36.5968 60.8837C41.1007 63.5615 45.6046 66.2306 50.0998 68.9085C49.9172 69.2138 49.7433 69.5278 49.5607 69.8331C41.1876 67.6524 33.4928 62.2008 24.2067 64.5123C24.2415 64.0325 24.285 63.5615 24.3198 63.0818C27.6238 63.0643 30.9278 63.0992 34.2231 62.9858C34.823 62.9684 35.3969 62.3403 35.9882 61.9914V61.9827Z" fill="#262626"/>
<path d="M19.7376 50.0677H35.823C30.4844 48.0789 25.1197 47.8172 19.7376 50.0677Z" fill="#0D0D0D"/>
<path d="M11.9384 84.9231C13.6687 80.2042 15.2946 75.7383 16.9901 71.2985C17.0336 71.1851 17.7726 71.3333 18.2073 71.3595C16.4597 80.0298 14.4512 84.5393 11.9384 84.9231Z" fill="#262626"/>
<path d="M49.3694 53.2252C52.3952 54.7342 52.0648 57.2115 52.1691 59.3398C52.2648 61.3809 52.8821 63.6487 51.3258 66.0562C50.6215 61.4594 50.0563 57.7087 49.3694 53.2252Z" fill="#262626"/>
<path d="M32.7276 102.037C33.3015 103.127 33.8666 104.217 34.4405 105.308C33.3362 105.003 32.2233 104.689 30.6409 104.244C31.4756 103.363 32.1103 102.7 32.7363 102.037H32.7276Z" fill="#7B94A4"/>
<path d="M51.3605 9.6908C55.4992 10.7898 59.7249 11.6447 63.7593 13.0403C69.4631 15.029 75.0886 17.2882 80.6358 19.6869C84.3398 21.2831 87.7743 23.4899 91.4695 25.1123C95.2083 26.7522 99.1122 27.9908 103.034 29.9795C101.886 29.9795 100.66 30.2499 99.6165 29.9272C96.0169 28.8282 92.5477 27.7291 89.2784 25.4176C85.7136 22.8968 81.1749 21.7105 77.0188 20.0532C72.7845 18.3611 68.524 16.7387 64.2288 15.2122C60.7422 13.9736 57.186 12.9618 53.682 11.758C52.7604 11.444 51.9518 10.816 51.091 10.3363C51.1779 10.1182 51.2736 9.90014 51.3605 9.68208V9.6908Z" fill="#262626"/>
<path d="M54.2994 35.9371C53.8125 35.9632 53.3169 35.9807 52.8299 36.0069C47.6479 32.8406 42.5614 29.4998 37.2489 26.569C34.0492 24.7983 30.5018 23.6557 27.0934 22.2601C26.4413 21.9897 25.7544 21.8326 25.0936 20.8906C26.05 20.7336 27.1804 20.1754 27.9455 20.4981C31.0756 21.8065 34.2057 23.1934 37.1359 24.8943C42.3093 27.8774 47.3609 31.0873 52.43 34.2536C53.1342 34.6897 53.6733 35.3701 54.2907 35.9371L54.2994 35.9371Z" fill="#262626"/>
<path d="M79.9577 75.5115H87.3135C87.4613 75.337 87.6004 75.1713 87.7482 74.9968C86.7396 74.3775 85.7571 73.3134 84.705 73.2261C82.7139 73.0604 80.6793 73.514 78.6535 73.5838C77.9926 73.6099 77.0884 73.4704 76.6971 73.043C74.793 70.9147 73.0366 68.6642 71.1324 66.3527C72.0019 63.797 73.7235 63.6662 75.532 64.5733C77.6361 62.7154 79.4534 60.7703 81.601 59.3049C84.5137 57.3161 89.3741 60.055 90.6696 64.1983C92.3651 69.6412 93.5824 75.1189 93.3128 80.9282C93.1129 85.2633 90.7826 88.3162 88.2959 91.3866C87.5134 92.3548 86.5048 93.166 85.5223 93.9423C84.7658 94.5355 83.7486 95.4949 83.0965 95.3292C82.2705 95.1199 81.3662 94.0295 81.0967 93.1311C80.6098 91.5261 80.4359 89.7816 80.3577 88.0894C80.1577 83.859 80.0881 79.6285 79.9664 75.5115H79.9577ZM78.1752 67.0767C82.2444 66.9371 88.2438 69.0393 88.6263 71.6561C89.0611 74.6392 88.9481 77.7357 88.7394 80.7625C88.6176 82.5506 87.8612 84.2864 87.3917 86.0483C88.4698 86.0483 89.1654 85.7169 89.3393 85.2022C90.0697 83.1088 90.9305 81.0067 91.2261 78.8348C92.3999 70.2605 87.2265 65.8992 80.1229 66.0562C79.4708 66.0736 78.8274 66.7191 78.184 67.068L78.1752 67.0767Z" fill="#EDE2DA"/>
<path d="M17.677 118.427C19.2246 118.802 20.7636 119.177 22.3113 119.543C22.2765 119.752 22.3113 120.04 22.1983 120.171C21.7983 120.607 21.3288 121.34 20.9027 121.322C19.0942 121.261 17.2944 120.974 14.9033 120.703C16.2162 119.63 16.9466 119.028 17.6857 118.427L17.677 118.427Z" fill="#262626"/>
<path d="M15.7293 123.695L15.6772 123.817C15.3207 123.259 14.9555 122.701 14.599 122.151C14.8686 122.064 15.1381 121.968 15.4076 121.881C15.512 122.491 15.625 123.093 15.7293 123.704V123.695Z" fill="#262626"/>
<path d="M20.4593 141.149C21.0853 137.538 21.6418 134.119 22.2939 130.708C22.3895 130.211 22.946 129.801 23.2851 129.356C23.5894 129.6 24.0328 129.775 24.1806 130.089C25.1979 132.339 22.8677 139.745 20.7027 141.175C20.5723 141.262 20.3028 141.123 20.4593 141.149Z" fill="#262626"/>
<path d="M37.9184 133.325C40.9529 135.401 41.4485 136.57 40.1965 140.538C39.4313 138.14 38.6662 135.741 37.901 133.342L37.9184 133.325Z" fill="#DCCBA6"/>
<path d="M35.9882 61.9827C35.4056 62.3316 34.823 62.9597 34.2231 62.9771C30.9278 63.0905 27.6238 63.0556 24.3198 63.073C21.4157 63.9627 18.5204 64.8612 15.5554 65.7683C14.7729 63.8406 14.6599 62.7939 16.9205 62.6718C18.816 62.5671 20.7897 62.3229 22.5374 61.6425C27.1195 59.8719 31.5451 60.4475 35.9882 61.9827Z" fill="#DCCBA6"/>
<path d="M26.2326 74.552C27.4499 73.828 28.4846 73.2174 29.5192 72.5981C28.4498 71.4903 27.3716 70.3826 26.0239 68.9869C28.2846 68.6293 30.7191 67.3122 31.9451 69.833C32.658 71.2897 32.5711 74.203 31.5799 75.1713C30.2757 76.4535 27.6847 76.7413 26.2239 74.5432L26.2326 74.552Z" fill="#7B94A4"/>
<path d="M46.6827 47.7475C46.7523 47.8957 46.8306 48.0353 46.8566 48.1836C46.8653 48.2359 46.7349 48.3144 46.6654 48.3842C46.6045 48.2446 46.5176 48.1051 46.4915 47.9655C46.4828 47.9132 46.6132 47.826 46.6827 47.7475Z" fill="#DCCBA6"/>
<path d="M78.184 67.0854C78.8274 66.7365 79.4708 66.0823 80.1229 66.0736C87.2352 65.9079 92.3999 70.2779 91.2261 78.8522C90.9305 81.0241 90.0697 83.1263 89.3393 85.2197C89.1567 85.7343 88.4612 86.0658 87.3917 86.0658C87.8612 84.3038 88.6176 82.5593 88.7394 80.7799C88.9481 77.7532 89.0611 74.6566 88.6263 71.6735C88.2438 69.0567 82.2444 66.9546 78.1752 67.0942L78.184 67.0854Z" fill="#262626"/>
</svg>
