<svg width="194" height="215" viewBox="0 0 194 215" fill="none" xmlns="http://www.w3.org/2000/svg">
<path d="M76.6406 77.9372C77.2752 77.2338 77.8632 75.9677 78.5538 75.9208C83.8548 75.5269 89.1745 75.3487 94.4848 75.133C98.0406 74.9829 101.335 75.9677 104.788 76.8118C109.819 78.031 115.269 77.4683 120.542 77.7028C121.914 77.7684 123.64 77.5152 124.564 78.2467C126.375 79.6629 127.579 79.1752 128.923 77.8622L129.1 78.0967L129.361 77.956C129.168 79.7129 130.341 80.7415 132.88 81.0416C133.561 83.405 132.926 86.9033 137.229 86.1811C140.271 86.1811 143.314 86.1811 145.759 86.1811C144.891 83.7896 144.07 81.5011 143.239 79.2127C143.808 78.6969 144.378 78.1811 145.395 77.2526C145.61 79.1189 145.74 80.2256 145.927 81.7637C147.43 80.5539 148.727 79.5129 150.071 78.4249C150.201 80.8071 150.304 82.636 150.407 84.4742C152.451 84.1928 154.494 83.9584 156.529 83.6301C160.215 83.0393 163.883 82.0732 167.588 81.8575C172.899 81.548 178.246 81.7825 183.575 81.7825C183.137 74.6172 184.173 67.1704 176.473 63.1188C176.94 61.9934 177.416 60.8679 177.882 59.7519C178.153 52.6428 174.943 46.5466 172.292 40.2723C169.203 32.9568 163.407 28.2206 157.285 23.6813C153.235 20.6801 149.455 17.3131 145.414 14.2838C138.517 9.11612 130.397 6.85584 122.194 4.93321C110.164 2.11959 97.9099 3.63894 85.7774 3.7421C81.8389 3.77962 77.8819 6.64014 73.9994 8.35645C67.9985 11.02 62.1002 13.9368 56.0619 16.4972C53.0381 17.7821 51.2928 19.9579 49.7623 22.7153C48.6983 24.6285 46.7011 26.0072 45.6092 27.9111C44.4146 29.9932 43.724 32.3847 42.912 34.6825C42.3147 36.3613 42.3147 38.4528 41.2788 39.747C37.275 44.7647 38.6283 51.1703 36.5751 56.61C33.8592 63.7847 34.3165 71.2314 33.7659 78.6312C33.2619 85.3183 34.3259 91.6114 36.7244 97.8107C37.8257 100.652 38.283 103.747 39.4869 106.524C41.3254 110.753 43.3133 114.955 45.7025 118.885C49.109 124.512 52.0208 130.242 51.9274 136.986C51.8248 144.329 51.8155 151.701 51.1622 159.007C50.8822 162.13 48.1664 165.122 48.185 168.17C48.213 175.523 43.724 180.812 40.6815 186.684C39.0763 189.779 35.7165 191.945 33.0286 194.646C33.6259 194.871 34.7645 195.303 35.8938 195.725C35.9498 195.997 36.0058 196.269 36.0618 196.541C34.6992 196.813 33.2899 197.46 31.974 197.3C25.6278 196.503 19.6081 198.942 14.8578 201.886C9.87406 204.972 5.385 205.047 0 204.269C0.746621 203.828 1.54924 202.946 2.23986 203.031C6.82225 203.565 10.714 202.262 14.3258 199.42C15.6324 198.388 17.5082 198.069 19.1228 197.432C20.2894 196.963 21.456 196.503 22.6226 196.034C28.6702 195.903 32.8606 192.311 36.3604 188.015C38.6843 185.155 40.1402 181.6 42.1934 178.496C44.3026 175.298 45.9918 172.137 45.7678 168.057C45.6652 166.247 46.7664 164.4 47.2144 162.543C48.0917 158.904 49.2116 155.284 49.6409 151.579C50.0609 147.996 49.5569 144.32 49.7716 140.709C50.2662 132.381 47.0091 125.44 42.66 118.632C40.3175 114.974 38.9363 110.678 37.2937 106.599C35.9778 103.354 34.8672 100.024 33.7659 96.7041C32.954 94.2375 32.31 91.7052 31.5914 89.2105C31.806 79.616 32.03 70.0122 32.2447 60.4178C33.1873 57.8386 34.1206 55.2688 35.0632 52.6897C35.1285 51.7612 35.2032 50.8327 35.2685 49.9136C36.1831 46.8749 36.5844 43.5267 38.1523 40.8819C39.7202 38.2464 40.7748 35.7986 40.9988 32.7224C41.1388 30.7341 42.0627 28.6333 43.164 26.9357C44.6666 24.6285 47.1118 22.8747 48.353 20.4738C49.9956 17.2944 52.3474 15.353 55.4926 14.0212C60.5696 11.8735 65.8146 10.0165 70.593 7.32478C75.9873 4.29545 81.5403 2.17586 87.6159 1.31302C90.9104 1.20985 94.1955 1.09731 97.49 0.994143C103.062 0.862841 108.633 0.740914 114.205 0.609612C124.368 3.81714 135.353 4.5862 144.462 10.9168L144.648 11.0763C149.091 14.4526 153.692 17.6414 157.948 21.2428C163.529 25.9603 169.987 29.8994 173.132 36.9991C175.232 41.7541 177.276 46.5279 179.348 51.2923C179.348 51.5267 179.348 51.7612 179.348 52.005C179.562 53.9089 179.674 55.8316 180.01 57.7167C180.356 59.6768 180.72 61.6745 181.419 63.5221C182.642 66.739 184.49 69.7496 185.414 73.0415C186.384 76.5023 186.226 80.2913 187.206 83.752C188.036 86.6595 189.791 89.3042 191.135 92.0616C191.182 96.2726 191.238 100.484 191.284 104.695C191.014 106.374 190.64 108.052 190.5 109.74C189.978 116.052 189.838 122.421 188.942 128.676C188.54 131.452 186.702 134.031 185.433 136.667C185.358 136.817 184.583 136.629 184.135 136.601C183.753 136.526 183.361 136.46 182.978 136.385C182.763 132.54 184.509 129.323 186.179 126.05C186.459 125.506 185.806 124.484 185.573 123.677C185.582 123.396 185.591 123.124 185.601 122.843C186.291 122.027 187.495 121.258 187.579 120.385C187.831 117.572 187.672 114.721 187.672 111.738H184.91C184.658 111.738 184.406 111.719 184.163 111.719C181.158 112.226 178.153 112.732 175.148 113.239C173.701 113.239 172.255 113.239 170.799 113.239C169.455 113.004 168.102 112.77 166.758 112.545C165.498 112.62 164.247 112.695 162.987 112.77C162.325 112.423 161.699 111.926 160.99 111.766C158.498 111.204 155.978 110.753 153.468 110.266C152.74 109.581 152.012 108.887 151.284 108.202C152.189 107.705 153.095 107.218 154.009 106.711V102.256C153.683 102.359 153.347 102.463 153.02 102.566C152.423 101.403 151.825 100.249 151.228 99.0863C155.054 98.9268 155.745 98.0546 154.84 94.5001C153.692 95.316 152.535 96.132 151.387 96.9479C151.377 91.874 151.032 91.4426 145.815 89.9514C145.078 89.7357 144.322 89.5669 143.575 89.3793C142.175 89.6231 140.785 89.8763 139.385 90.1202C138.694 90.2796 138.013 90.4391 137.322 90.5985C137.033 90.9268 136.734 91.2456 136.445 91.5739C136.062 92.4367 135.689 93.2902 135.306 94.153C135.26 96.0194 135.204 97.8952 135.157 99.7615C134.709 102.172 134.373 104.62 133.757 106.993C133.514 107.94 132.814 109.234 132.031 109.487C129.651 110.266 127.131 110.613 124.658 111.119C121.177 111.119 117.695 111.119 114.214 111.119C112.824 111.138 111.442 111.147 110.052 111.166C108.633 111.344 107.215 111.513 105.787 111.691C105.115 111.485 104.443 111.269 103.78 111.063C103.538 111.025 103.295 110.997 103.052 110.96C102.632 110.791 102.203 110.631 101.783 110.463C101.456 110.453 101.13 110.435 100.803 110.425C98.9086 110.106 97.014 109.778 95.1101 109.459C94.8861 109.272 94.6528 109.084 94.4288 108.896L94.4848 108.925L92.329 108.559C91.7317 108.381 91.1344 108.202 90.5464 108.024C89.7998 105.98 89.0532 103.944 88.3065 101.9C87.8306 100.709 87.3639 99.5271 86.888 98.336C87.2893 98.1202 87.6906 97.9045 88.1012 97.6888C87.8399 97.5575 87.5786 97.4262 87.3173 97.2949C87.2053 97.6513 87.0933 98.0171 86.9813 98.3735C86.608 97.52 86.2347 96.6572 85.8614 95.8037C86.4586 95.4473 87.5133 95.166 87.5879 94.7252C87.9239 92.5493 87.9986 90.3359 88.1572 88.1319C87.9799 87.8224 87.8026 87.5035 87.6252 87.194C87.3919 87.194 87.1679 87.194 86.9346 87.2034H85.5254C84.4428 86.9596 83.3789 86.575 82.2869 86.4625C75.2407 85.7122 68.1944 85.0557 61.1482 84.3054C57.4338 83.9115 53.738 83.3019 50.0236 82.9455C47.6344 82.7204 46.2158 83.5457 46.2811 86.4437C46.3371 88.6008 45.0679 90.8517 48.045 92.1835C48.465 92.3711 48.101 94.3219 48.101 95.7099C42.2494 93.0651 42.2027 92.9807 42.8374 87.2034C42.9027 86.6219 42.8467 86.0405 42.856 85.4496C42.884 81.3698 44.7879 79.7098 48.9223 79.344C56.2485 78.7063 63.1734 81.1729 70.3223 81.7356C76.5473 82.2233 82.8189 82.0826 89.0625 82.2233C89.5291 81.2198 90.2198 80.2444 90.3317 79.2034C90.3691 78.8845 88.8385 78.0591 87.9986 78.031C84.2001 77.8997 80.4017 77.9654 76.6033 77.9654L76.6406 77.9372ZM174.289 108.774C174.672 108.352 175.055 107.93 175.437 107.508C176.025 107.415 176.604 107.321 177.192 107.227C178.554 107.039 179.646 106.177 181.363 107.171C182.633 107.902 185.181 107.508 186.487 106.617C187.252 106.092 186.898 103.607 186.711 102.041C186.496 100.165 185.638 98.3453 185.573 96.4883C185.489 94.0593 185.834 91.6114 186.151 89.1917C186.524 86.3218 185.843 84.8118 182.502 85.1682C174.971 85.9748 167.42 86.5563 158.722 87.3347C160.215 88.8072 160.99 89.9889 162.073 90.5235C163.239 91.0956 164.704 91.0487 166.039 91.2738C166.954 91.949 167.859 92.6337 168.774 93.309C170.388 94.1812 171.993 95.0628 173.673 95.9725C173.393 96.7228 173.095 97.5294 172.796 98.336C172.161 99.2363 171.517 100.137 170.883 101.046C170.425 101.056 169.978 101.065 169.52 101.075C169.894 99.9491 170.267 98.8237 170.957 96.751C168.036 95.6443 164.676 94.3688 161.317 93.0932C158.601 92.3898 158.48 94.7439 157.64 96.2445C157.546 96.3008 157.378 96.3946 157.388 96.4227C157.444 96.5915 157.546 96.751 157.63 96.9104C158.116 97.5763 158.601 98.2515 159.086 98.9174C159.058 99.6396 159.021 100.371 158.993 101.093C158.741 102.397 158.433 103.691 158.246 105.004C157.826 107.874 159.357 108.915 161.979 108.84C162.894 108.812 163.809 108.774 164.723 108.737C166.058 108.737 167.402 108.756 168.736 108.765C169.996 108.502 171.247 108.231 172.507 107.968C173.113 108.24 173.72 108.512 174.317 108.784L174.289 108.774ZM92.6183 97.7638C92.021 103.316 93.0476 105.107 99.4685 104.77C99.6925 104.76 99.9258 104.835 100.159 104.873C100.159 107.405 101.848 107.593 103.734 107.433C108.783 107.002 113.841 106.542 118.89 106.092C120.458 107.996 129.473 107.93 130.752 105.98C130.929 105.708 130.985 105.323 130.995 104.985C131.219 99.6583 131.48 94.3406 131.583 89.0135C131.592 88.3007 130.78 87.5692 130.351 86.847C129.847 86.0029 129.343 85.1588 128.829 84.3148C127.289 83.7895 125.778 82.9736 124.2 82.8048C122.539 82.6266 119.73 82.5047 119.301 83.3394C117.266 87.2597 115.101 85.112 112.861 83.9865C112.273 83.6864 111.76 83.0299 111.162 82.9736C105.927 82.4109 100.682 81.8388 95.4274 81.5574C94.5222 81.5105 93.5422 82.8611 92.5903 83.5738C93.5329 84.2772 94.4008 85.3277 95.4461 85.5715C96.4354 85.7966 97.6113 84.9994 98.7219 84.9713C100.15 84.9338 101.764 84.8587 102.996 85.4402C106.804 87.2409 110.407 89.4637 114.214 91.255C115.586 91.9022 117.313 91.7896 119.039 92.0522C119.077 92.4836 119.142 93.2902 119.207 94.0968C115.885 95.241 113.524 92.6149 110.696 91.8177C108.204 91.1143 104.602 88.2726 103.734 89.0135C101.335 91.0768 100.224 89.7357 98.6379 88.5915C97.4246 88.3101 96.1181 88.2445 95.0355 87.7099C92.8983 86.6688 92.0863 88.2632 91.993 89.5575C91.853 91.6864 92.3943 93.8529 92.6463 96.0007C92.6276 96.5915 92.6089 97.173 92.5903 97.7638H92.6183Z" fill="#0D0D0D"/>
<path d="M177.882 198.791C174.429 198.285 170.985 197.46 167.523 197.338C161.018 197.122 154.494 197.544 147.999 197.235C144.331 197.056 140.71 195.912 137.061 195.284C136.165 195.124 135.213 195.265 134.364 195.265C133.878 196.278 133.468 197.131 133.066 197.985C132.824 197.976 132.59 197.957 132.348 197.947C132.217 197.066 132.077 196.184 131.984 195.537C127.56 193.202 125.358 198.426 121.764 198.97C121.242 197.085 120.785 195.453 120.337 193.83L119.142 194.121C119.273 195.153 119.394 196.184 119.515 197.197C119.357 197.244 119.049 197.422 118.946 197.347C117.574 196.222 116.379 194.777 114.84 193.98C113.29 193.174 111.433 192.761 109.688 192.658C108.867 192.611 107.971 193.699 106.813 194.468C106.813 193.408 106.907 192.264 106.776 191.138C106.711 190.613 106.235 190.135 105.936 189.628C105.628 189.169 105.32 188.709 105.003 188.25C104.816 188.072 104.639 187.893 104.452 187.706C103.995 187.631 103.528 187.556 103.071 187.481C102.119 187.481 101.176 187.481 100.224 187.481L98.1899 187.443C99.0859 186.308 99.9912 185.174 101.251 183.57C99.8138 182.81 98.4512 182.079 96.9207 181.272C96.3607 175.288 94.7928 173.835 91.2464 176.348C90.5091 175.251 89.7718 174.154 89.0625 173.094C88.5212 173.375 87.7932 173.76 87.0653 174.144C87.5973 172.109 88.1385 170.074 88.6705 168.039C89.6971 167.776 90.7237 167.504 91.7503 167.241C91.9557 167.739 92.0676 168.32 92.3943 168.723C95.4461 172.456 98.5446 176.161 101.624 179.865C103.164 181.075 104.704 182.285 106.235 183.495C103.743 185.793 107.28 185.999 107.28 188.297C108.465 186.515 109.352 185.586 109.735 184.48C110.164 183.251 110.136 181.863 110.332 180.306C111.564 180.728 112.506 181.047 113.449 181.375C112.926 183.091 112.404 184.798 111.638 187.303C115.166 185.277 114.998 185.333 115.829 188.062C116.398 189.91 116.855 192.33 119.814 191.776C121.456 191.645 123.454 193.708 124.667 190.979C124.882 186.974 125.106 186.721 127.588 187.218C126.991 188.794 126.384 190.426 125.647 192.367H133.505C132.992 190.304 132.497 188.325 131.816 185.577C133.197 186.299 134.168 186.871 135.185 187.321C135.848 187.612 136.641 187.997 137.276 187.865C140.673 187.171 143.883 186.909 146.02 190.341C147.448 189.16 148.736 188.212 149.875 187.115C150.715 186.299 151.349 185.277 152.068 184.348C151.835 184.104 151.611 183.861 151.377 183.607C154.308 182.744 156.249 181.122 155.838 177.708C157.854 177.014 159.87 176.32 161.877 175.626C161.438 177.783 160.495 180.118 163.725 181.469H159.086C159.226 182.341 159.366 183.176 159.506 184.011C158.536 184.133 157.565 184.245 156.464 184.386C156.949 185.502 157.248 186.205 157.556 186.899C156.79 186.787 156.034 186.665 155.12 186.533C155.232 187.837 155.344 189.075 155.446 190.313C155.017 190.238 154.588 190.154 154.158 190.088C153.095 189.929 151.639 189.281 151.041 189.741C150.108 190.473 149.389 191.926 149.315 193.127C149.287 193.614 151.163 194.637 152.217 194.693C156.958 194.956 161.737 194.768 166.468 195.096C171.023 195.415 175.764 195.518 180.029 196.916C183.603 198.088 187 198.913 190.706 198.791C191.797 198.754 192.899 198.97 194 199.063C193.963 199.495 193.925 199.917 193.888 200.348L181.345 199.711C180.178 199.401 179.012 199.092 177.854 198.782L177.882 198.791ZM91.909 172.062C91.7877 171.912 91.657 171.762 91.5357 171.603L91.3117 172.156C91.349 172.559 91.3864 172.962 91.4144 173.366C91.713 173.3 92.0023 173.244 92.301 173.178C92.1703 172.803 92.0396 172.428 91.909 172.053V172.062ZM137.192 189.038C136.93 189.188 136.669 189.328 136.408 189.478C136.865 190.341 137.332 191.204 137.789 192.067C138.069 191.917 138.339 191.757 138.619 191.607C138.143 190.754 137.667 189.9 137.192 189.047V189.038Z" fill="#0D0D0D"/>
<path d="M68.1105 135.682C67.8958 136.113 67.6812 136.545 67.4665 136.986C67.1772 136.601 66.5892 136.17 66.6359 135.832C66.7852 134.744 67.1585 133.694 67.6438 131.884C66.1319 132.287 65.012 132.587 63.9014 132.878C63.4254 132.84 62.9494 132.812 62.4735 132.775C62.7628 132.052 62.8748 130.871 63.3694 130.683C64.816 130.12 66.4119 129.942 68.1758 129.567C66.7665 125.15 66.1879 120.517 60.2803 119.222C57.8818 118.697 55.8752 116.343 53.6913 114.824C53.934 114.42 54.186 114.027 54.4286 113.623C56.4725 114.777 58.4324 116.615 60.5883 116.887C62.8001 117.168 65.208 115.912 67.6438 115.302C70.6303 120.048 69.0344 125.487 69.557 130.646C69.0717 132.334 68.5864 134.013 68.1011 135.701L68.1105 135.682Z" fill="#262626"/>
<path d="M105.152 214.998C104.368 214.567 103.211 214.323 102.866 213.666C100.336 208.714 95.8661 207.561 90.929 207.176C90.5464 207.148 90.1824 206.923 89.8091 206.782C89.8465 206.445 89.8838 206.107 89.9211 205.769C92.0396 205.976 94.3448 205.722 96.23 206.491C99.0672 207.645 102.063 208.658 103.836 211.762C105.078 213.938 110.117 212.841 112.105 210.252C114.625 206.97 119.534 206.06 123.239 208.377C120.813 208.705 118.489 208.742 116.361 209.399C115.12 209.783 113.692 210.937 113.188 212.109C112.245 214.304 110.789 215.045 108.633 214.998C107.467 214.998 106.3 214.998 105.143 214.998H105.152Z" fill="#262626"/>
<path d="M71.5729 181.122C72.2355 181.225 72.8982 181.328 74.5687 181.582C72.7862 182.707 71.7689 183.851 70.6583 183.954C66.7759 184.292 65.04 186.965 63.3694 189.91C62.3615 191.692 61.3162 193.464 60.131 195.143C58.4417 197.535 56.0899 197.816 53.1874 196.972C53.5047 196.456 53.682 195.837 53.9527 195.781C58.3484 195.002 60.1123 191.654 61.7268 188.043C63.4907 184.095 67.0279 182.444 70.8916 181.3C71.1156 181.244 71.3396 181.188 71.5729 181.131V181.122Z" fill="#0D0D0D"/>
<path d="M87.6533 1.28488C89.5198 0.85346 91.3864 0.422043 93.2529 0C94.6808 0.318877 96.0994 0.647131 97.5273 0.966008C94.2328 1.06917 90.9477 1.18171 87.6533 1.28488Z" fill="#EDE2DA"/>
<path d="M159.543 184.001C159.534 184.78 159.674 185.605 159.459 186.327C159.301 186.862 158.694 187.265 158.293 187.734L157.584 186.89C157.285 186.186 156.977 185.492 156.492 184.376C157.593 184.245 158.564 184.123 159.534 184.001H159.543Z" fill="#262626"/>
<path d="M91.7503 167.232C90.7237 167.495 89.6971 167.767 88.6705 168.029C87.6812 168.029 86.6826 168.029 85.572 168.029C85.4507 167.232 85.3014 166.238 85.0681 164.681C86.9346 165.159 88.5305 165.563 90.3597 166.032C91.0784 158.669 91.7597 151.326 92.5156 143.992C92.9263 139.996 94.6061 135.748 93.7382 132.09C91.8716 124.221 93.0476 116.352 92.357 108.521C93.0756 108.643 93.7942 108.765 94.5128 108.887L94.4102 108.981L94.4662 108.859C94.6901 109.046 94.9235 109.234 95.1475 109.422C95.4928 113.473 95.8287 117.515 96.174 121.567C95.6701 123.443 95.1661 125.319 94.6621 127.185C95.0915 127.269 95.5114 127.354 95.9407 127.438C96.1741 125.478 96.4167 123.527 96.65 121.567C98.0406 117.844 99.4405 114.111 100.831 110.388C101.158 110.397 101.484 110.416 101.811 110.425C102.231 110.594 102.66 110.753 103.08 110.922C103.323 110.96 103.566 110.988 103.808 111.025C102.968 114.148 102.138 117.262 101.298 120.385C101.419 120.451 101.54 120.507 101.662 120.573C103.043 117.6 104.434 114.627 105.815 111.663C107.233 111.485 108.652 111.316 110.08 111.138C109.585 111.701 108.988 112.207 108.615 112.845C107.467 114.777 106.403 116.756 105.301 118.716C105.208 118.922 105.143 119.147 105.106 119.372C103.444 120.892 101.634 122.28 100.187 123.977C99.3192 124.99 98.6659 126.444 98.5072 127.766C98.0779 131.396 97.9939 135.054 97.7326 138.702C97.4433 142.725 97.0887 146.74 96.8553 150.772C96.8367 151.044 97.6206 151.363 98.0313 151.654C97.5273 153.858 97.0233 156.071 96.3607 158.988C97.8819 158.51 98.6939 158.266 99.4965 158.013C100.168 160.864 100.84 163.715 101.512 166.566C102.11 167.926 102.716 169.286 103.314 170.646L103.734 172.803C104.434 174.2 105.134 175.598 105.833 176.995L106.365 177.849C106.888 178.712 107.392 179.584 107.933 180.428C109.296 182.548 108.615 183.495 106.225 183.495C104.686 182.285 103.146 181.075 101.615 179.865C101.68 178.571 102.128 177.145 101.755 176.001C99.5992 169.511 97.238 163.096 94.7368 156.043C93.6355 160.17 92.6836 163.706 91.741 167.241L91.7503 167.232Z" fill="#7B94A4"/>
<path d="M68.1105 135.682C68.5958 133.994 69.0811 132.315 69.5664 130.627C71.1716 134.744 72.8142 138.833 74.3541 142.969C75.6047 146.327 76.7433 149.722 78.1152 153.642C77.8632 154.13 77.2379 155.349 76.5846 156.625C76.062 156.381 75.558 156.146 75.0634 155.912C74.4287 155.677 73.7941 155.443 73.1595 155.209C73.1128 154.168 73.0848 153.117 73.0195 152.076C72.7208 147.302 71.9369 146.496 67.4572 146.055C66.7385 145.989 66.0572 145.595 64.7507 145.145C67.1772 144.564 68.9037 144.142 71.1249 143.616C70.7983 141.319 70.5556 138.955 70.033 136.648C69.9303 136.207 68.7731 136.001 68.1011 135.682H68.1105Z" fill="#0D0D0D"/>
<path d="M149.175 48.3286C144.023 56.6475 143.174 65.5854 144.732 75.3675C143.911 73.9231 142.409 72.4976 142.371 71.0345C142.203 63.7378 142.343 56.4037 146.254 49.8479C146.786 48.9476 147.756 48.3098 148.531 47.5595C148.745 47.8221 148.951 48.0753 149.165 48.338L149.175 48.3286Z" fill="#262626"/>
<path d="M120.915 68.9243C122.054 66.9547 123.678 65.1071 124.219 62.9875C125.022 59.8175 125.544 56.4037 125.283 53.168C124.882 48.1223 123.724 43.1421 123.631 37.5712C124.378 38.6966 125.684 39.7752 125.778 40.9569C126.328 47.7752 126.599 54.6217 126.916 61.4682C126.935 61.9465 126.459 62.4342 126.244 62.9313C125.451 64.807 124.77 66.739 123.827 68.5304C123.51 69.1494 122.558 69.4307 121.895 69.8715C121.568 69.562 121.242 69.2432 120.915 68.9337V68.9243Z" fill="#262626"/>
<path d="M88.1945 88.0944C88.0266 90.2984 87.9519 92.5118 87.6252 94.6876C87.5599 95.1284 86.5053 95.4098 85.8987 95.7662C85.7214 95.7662 85.6 95.6818 85.5347 95.5223C85.3014 95.2222 85.0681 94.9221 84.8348 94.622L84.7881 94.3969C84.9934 94.0593 85.2081 93.731 85.4134 93.3934C84.5454 93.6654 83.6775 93.9373 82.8189 94.2093C82.2309 94.8752 81.503 96.1976 81.0923 96.1038C79.4777 95.7381 77.9658 94.9221 76.4259 94.2656C76.4539 93.8154 76.4726 93.3746 76.5006 92.9244C79.3658 91.6958 82.2589 90.5329 85.0587 89.1823C85.46 88.9854 85.4041 87.8693 85.5627 87.1753C86.0387 87.1753 86.5053 87.1753 86.9813 87.1659C87.1959 87.3535 87.4013 87.541 87.6159 87.7286C87.7839 87.8881 87.9799 88.01 88.1945 88.0944Z" fill="#EDE2DA"/>
<path d="M122.912 73.7731C116.855 75.3862 109.081 69.9278 104.144 60.324C104.947 60.8117 105.833 61.2056 106.533 61.8058C110.658 65.3416 114.69 68.9899 118.89 72.4319C119.814 73.1822 121.279 73.2572 122.903 73.7731H122.912Z" fill="#262626"/>
<path d="M143.239 79.2033C144.07 81.4917 144.891 83.7708 145.759 86.1717C143.314 86.1717 140.271 86.1717 137.229 86.1717C137.472 84.4273 137.602 82.6453 138.031 80.9478C138.153 80.4695 139.142 80.0943 139.795 79.8974C140.915 79.5691 142.091 79.419 143.239 79.2033Z" fill="#7B94A4"/>
<path d="M169.436 65.2009C166.31 71.6441 161.195 77.2526 153.459 74.3452C160.458 74.2326 164.602 69.1869 169.436 65.2009Z" fill="#262626"/>
<path d="M80.943 110.547C79.7297 115.865 78.4511 121.464 77.2192 126.875C74.4287 122.843 77.6579 110.894 80.943 110.547Z" fill="#262626"/>
<path d="M88.3345 101.862C89.0812 103.907 89.8278 105.942 90.5744 107.987C87.7746 107.64 84.9747 107.302 82.1656 106.964C82.2029 106.721 82.2403 106.477 82.2682 106.233C83.4815 106.13 84.6948 106.036 86.188 105.914C85.7214 104.554 85.3201 103.372 84.8068 101.872H88.3345V101.862Z" fill="#7B94A4"/>
<path d="M76.6406 77.9372C80.439 77.9372 84.2375 77.8716 88.0359 78.0029C88.8665 78.031 90.3971 78.847 90.3691 79.1752C90.2571 80.2163 89.5665 81.1916 89.0998 82.1952V79.3159C85.964 79.3159 82.8749 79.4284 79.7951 79.2503C78.7218 79.1846 77.6859 78.3968 76.6406 77.9372Z" fill="#262626"/>
<path d="M73.1595 155.199C73.7941 155.434 74.4287 155.668 75.0634 155.903C74.6061 157.947 74.0088 159.982 73.7288 162.046C73.4115 164.381 73.1035 166.585 70.2477 167.082C71.2183 163.115 72.1889 159.157 73.1595 155.19V155.199Z" fill="#262626"/>
<path d="M87.0746 174.125C87.8026 173.741 88.5305 173.356 89.0718 173.075C89.7811 174.135 90.5184 175.232 91.2557 176.329C91.4983 176.761 91.7317 177.192 91.9743 177.633C91.0224 177.661 90.0704 177.689 89.1185 177.717C88.6332 177.22 88.1386 176.733 87.6533 176.236C87.4573 175.532 87.2613 174.838 87.0746 174.135V174.125Z" fill="#DCCBA6"/>
<path d="M177.882 59.7519C177.416 60.8773 176.94 62.0028 176.473 63.1188C175.885 62.7906 175.297 62.4623 174.709 62.1341C175.419 60.8773 175.801 59.1798 177.873 59.7519L177.882 59.7519Z" fill="#DCCBA6"/>
<path d="M128.923 77.8528C128.615 77.4589 128.316 77.0556 128.008 76.6617C129.249 76.3616 130.481 76.0521 131.723 75.752C131.853 76.2584 131.975 76.7555 132.105 77.2619C131.191 77.487 130.276 77.7215 129.352 77.9466L129.091 78.0873L128.913 77.8528H128.923Z" fill="#7B94A4"/>
<path d="M82.8189 94.2093C83.6868 93.9373 84.5548 93.6654 85.4134 93.3934C85.2081 93.7216 84.9934 94.0593 84.7881 94.3969C84.1348 94.3406 83.4722 94.275 82.8095 94.2093L82.8189 94.2093Z" fill="#DCCBA6"/>
<path d="M155.866 177.699C155.213 176.977 154.56 176.254 153.906 175.532C154.074 175.335 154.242 175.129 154.41 174.932C155.12 175.129 155.829 175.326 157.22 175.72C159.749 169.914 162.782 163.978 164.938 157.741C167.224 151.129 168.139 144.104 167.262 137.117C166.767 133.169 165.236 129.361 164.257 125.478C163.977 124.371 163.977 123.19 163.874 122.036C163.585 118.941 163.305 115.846 163.015 112.742C164.275 112.667 165.526 112.592 166.786 112.517C165.936 118.735 170.323 123.462 170.892 129.276L171.76 129.089C171.452 123.799 171.144 118.5 170.827 113.211C172.273 113.211 173.72 113.211 175.176 113.211C175.409 117.009 175.689 120.807 175.857 124.606C175.969 127.044 175.67 129.52 176.006 131.912C176.604 136.273 177.388 140.54 175.353 144.789C175.017 145.492 175.652 146.655 175.848 147.612C175.363 148.024 174.868 148.446 174.383 148.859C173.701 145.051 173.02 141.244 172.329 137.426C171.303 142.069 170.789 146.683 170.117 151.279C169.903 152.742 169.25 154.149 168.83 155.584C167.206 161.127 165.591 166.669 163.977 172.212C163.837 173.019 163.697 173.825 163.566 174.622C164.238 174.754 164.77 174.857 165.311 174.969C164.182 175.185 163.053 175.41 161.923 175.626C159.907 176.32 157.892 177.014 155.885 177.708L155.866 177.699Z" fill="#7B94A4"/>
<path d="M119.235 94.0874C117.163 96.282 116.006 98.2515 119.011 100.915C119.842 101.647 118.974 104.31 118.89 106.083C113.841 106.533 108.792 106.993 103.734 107.424C101.858 107.583 100.159 107.405 100.159 104.864C101.279 104.676 102.399 104.498 103.519 104.31C104.835 104.329 106.141 104.357 107.457 104.376C109.772 104.216 112.124 104.245 114.373 103.785C115.129 103.626 116.071 102.228 116.099 101.375C116.118 100.728 114.933 99.7053 114.093 99.4239C111.9 98.6923 109.604 98.2891 107.345 97.7451C105.656 97.7451 103.976 97.7357 102.287 97.7263C99.0672 97.7263 95.8474 97.7451 92.6276 97.7545C92.6463 97.1636 92.6649 96.5821 92.6836 95.9913C95.5768 96.6009 96.818 95.5786 96.7993 92.4649C96.7993 91.1706 98.0126 89.867 98.6659 88.5727C100.252 89.7075 101.354 91.0487 103.762 88.9948C104.63 88.2538 108.232 91.105 110.724 91.799C113.542 92.5868 115.913 95.2222 119.235 94.078V94.0874Z" fill="#262626"/>
<path d="M158.984 101.093C159.012 100.371 159.049 99.6396 159.077 98.9174C159.917 99.1519 160.757 99.3864 161.942 99.724C161.69 97.1167 161.494 95.1003 161.307 93.0932C164.667 94.3687 168.027 95.6443 170.948 96.7509C170.257 98.8143 169.884 99.9397 169.511 101.075C169.007 101.15 168.503 101.225 167.999 101.29C166.002 101.365 164.014 101.44 162.017 101.506C161.009 101.365 159.991 101.234 158.984 101.093Z" fill="#262626"/>
<path d="M98.6659 88.5914C98.0033 89.8857 96.79 91.1894 96.7993 92.4836C96.8087 95.5974 95.5674 96.6196 92.6836 96.01C92.4316 93.8623 91.881 91.6864 92.0303 89.5668C92.1143 88.2726 92.9356 86.6782 95.0728 87.7192C96.1647 88.2444 97.4713 88.3195 98.6752 88.6008L98.6659 88.5914Z" fill="#DCCBA6"/>
<path d="M162.017 101.506C162.913 103.916 163.809 106.327 164.704 108.737C163.79 108.774 162.875 108.821 161.961 108.84C159.347 108.906 157.817 107.874 158.228 105.004C158.414 103.691 158.722 102.397 158.974 101.093C159.982 101.234 160.999 101.365 162.007 101.506H162.017Z" fill="#7B94A4"/>
<path d="M151.312 108.155C147.849 106.871 148.615 104.254 149.371 101.712C149.66 100.756 150.211 99.8741 150.649 98.9643C150.855 98.9925 151.06 99.0206 151.265 99.0487C151.863 100.212 152.46 101.365 153.057 102.528C153.384 102.425 153.72 102.322 154.046 102.219V106.674C153.123 107.171 152.227 107.668 151.321 108.155H151.312Z" fill="#EDE2DA"/>
<path d="M168.718 108.765C168.475 106.27 168.242 103.785 167.999 101.29C168.503 101.215 169.007 101.14 169.511 101.075C169.968 101.065 170.416 101.056 170.873 101.046C171.601 102.041 172.329 103.035 173.057 104.029C172.871 105.342 172.675 106.655 172.488 107.977C171.228 108.24 169.977 108.512 168.718 108.774V108.765Z" fill="#7B94A4"/>
<path d="M178.685 144.751C180.122 141.947 181.55 139.143 182.987 136.339C183.37 136.414 183.762 136.479 184.145 136.554C183.491 139.968 182.875 143.391 182.147 146.796C182.035 147.321 181.447 147.743 181.074 148.221C180.72 147.799 180.356 147.377 180.001 146.955C179.562 146.224 179.124 145.492 178.685 144.751Z" fill="#7B94A4"/>
<path d="M173.057 104.019C172.329 103.025 171.601 102.031 170.873 101.037C171.508 100.137 172.152 99.2363 172.787 98.3266C173.748 99.2082 174.709 100.099 175.67 100.981C175.428 101.159 175.185 101.337 174.933 101.515C175.54 102.388 176.23 103.213 176.725 104.141C176.921 104.517 176.697 105.126 176.66 105.633C176.249 106.252 175.848 106.871 175.437 107.49C175.083 107.208 174.737 106.927 174.383 106.646C173.935 105.764 173.487 104.882 173.048 103.991L173.057 104.019Z" fill="#262626"/>
<path d="M161.307 93.0932C161.503 95.1003 161.69 97.1073 161.942 99.724C160.757 99.3957 159.917 99.1519 159.077 98.9174C158.592 98.2515 158.106 97.5763 157.621 96.9104C157.621 96.6853 157.621 96.4696 157.621 96.2445C158.47 94.7533 158.592 92.3898 161.298 93.0932H161.307Z" fill="#DCCBA6"/>
<path d="M130.36 86.847C127.607 88.1319 124.854 89.4168 122.1 90.7111C121.895 90.214 121.69 89.7263 121.485 89.2292C122.763 88.8353 124.051 88.4414 125.479 88.01C125.283 87.3816 125.087 86.7626 125.003 86.4906C126.328 85.7403 127.588 85.0275 128.839 84.3241C129.343 85.1682 129.847 86.0123 130.36 86.8564V86.847Z" fill="#262626"/>
<path d="M166.03 91.2738C168.867 88.2913 171.611 87.7943 173.599 89.4918C172.031 90.7298 170.397 92.0241 168.764 93.309C167.85 92.6337 166.944 91.949 166.03 91.2738Z" fill="#DCCBA6"/>
<path d="M114.364 112.817C114.326 112.235 114.298 111.663 114.261 111.082C117.742 111.082 121.223 111.082 124.704 111.082C124.704 111.494 124.704 111.907 124.704 112.32C121.26 112.479 117.817 112.648 114.364 112.817Z" fill="#DCCBA6"/>
<path d="M105.843 111.654C104.462 114.627 103.071 117.6 101.69 120.564C101.568 120.498 101.447 120.442 101.326 120.376C102.166 117.253 102.996 114.139 103.836 111.016C104.508 111.222 105.18 111.438 105.852 111.644L105.843 111.654Z" fill="#EDE2DA"/>
<path d="M184.929 111.701C185.153 115.405 185.386 119.1 185.61 122.805C185.601 123.086 185.591 123.358 185.582 123.64C183.883 125.131 184.201 123.658 184.201 122.683C184.201 119.016 184.182 115.349 184.182 111.682C184.434 111.682 184.686 111.701 184.929 111.701Z" fill="#262626"/>
<path d="M151.265 99.0487C151.06 99.03 150.855 99.0018 150.649 98.9643C150.911 98.2797 151.163 97.595 151.424 96.9104C152.572 96.0944 153.72 95.2785 154.877 94.4625C155.792 98.0077 155.101 98.8893 151.265 99.0487Z" fill="#262626"/>
<path d="M173.057 104.019C173.505 104.901 173.953 105.783 174.392 106.674C174.355 107.377 174.327 108.08 174.289 108.774C173.683 108.502 173.076 108.231 172.479 107.959C172.675 106.645 172.861 105.332 173.048 104.01L173.057 104.019Z" fill="#DCCBA6"/>
<path d="M175.437 107.508C175.848 106.889 176.249 106.27 176.66 105.651C176.837 106.177 177.014 106.702 177.192 107.236C176.604 107.33 176.025 107.424 175.437 107.518V107.508Z" fill="#DCCBA6"/>
<path d="M87.0186 98.3359C87.1306 97.9795 87.2426 97.6138 87.3546 97.2574C87.6159 97.3887 87.8772 97.52 88.1385 97.6513C87.7372 97.867 87.3359 98.0827 86.9253 98.2984L87.0186 98.3359Z" fill="#7B94A4"/>
<path d="M174.299 108.774C174.327 108.071 174.364 107.377 174.401 106.674C174.756 106.955 175.101 107.236 175.456 107.508C175.073 107.93 174.691 108.352 174.308 108.774H174.299Z" fill="#7B94A4"/>
<path d="M157.621 96.2445C157.621 96.4696 157.621 96.6853 157.621 96.9104C157.537 96.7509 157.434 96.5915 157.378 96.4227C157.378 96.3946 157.546 96.3102 157.63 96.2445L157.621 96.2445Z" fill="#262626"/>
<path d="M87.6626 87.1565C87.8399 87.466 88.0172 87.7849 88.1945 88.0944C87.9799 88.01 87.7839 87.8881 87.6159 87.7286C87.6532 87.541 87.6719 87.3535 87.6719 87.1565H87.6626Z" fill="#EDE2DA"/>
<path d="M94.4755 108.859L94.4195 108.981L94.5221 108.887L94.4755 108.859Z" fill="#262626"/>
<path d="M106.384 177.839C109.203 178.093 111.946 178.487 113.468 181.356C112.525 181.038 111.582 180.709 110.351 180.287C110.145 181.844 110.183 183.232 109.753 184.461C109.371 185.567 108.484 186.487 107.299 188.278C107.299 185.99 103.762 185.774 106.253 183.476C108.643 183.476 109.324 182.538 107.961 180.409C107.42 179.565 106.916 178.693 106.393 177.83L106.384 177.839Z" fill="#EDE2DA"/>
<path d="M119.842 191.767C119.618 189.975 119.394 188.194 119.17 186.346C122.679 186.374 120.738 191.964 124.704 190.97C123.491 193.699 121.485 191.635 119.851 191.767H119.842Z" fill="#262626"/>
<path d="M137.192 189.028C137.667 189.882 138.143 190.735 138.619 191.589C138.339 191.739 138.069 191.898 137.789 192.048C137.332 191.185 136.865 190.322 136.408 189.46C136.669 189.31 136.93 189.169 137.192 189.019V189.028Z" fill="#7B94A4"/>
<path d="M91.909 172.062C92.0396 172.437 92.1703 172.812 92.301 173.188C92.0023 173.253 91.713 173.309 91.4144 173.375C91.377 172.972 91.3397 172.569 91.3117 172.165H91.6197L91.909 172.062Z" fill="#DCCBA6"/>
<path d="M91.909 172.062L91.6197 172.165H91.3117C91.3864 171.978 91.461 171.799 91.5357 171.612C91.657 171.762 91.7877 171.912 91.909 172.071V172.062Z" fill="#7B94A4"/>
<path d="M178.685 144.751C179.124 145.483 179.562 146.214 180.001 146.955C175.67 148.85 175.26 152.517 175.717 156.559C175.045 157.403 173.925 158.172 173.795 159.091C173.496 161.117 173.701 163.209 173.701 165.309C172.488 165.731 171.377 166.116 170.276 166.501C169.81 166.482 169.343 166.472 168.867 166.454C169.772 164.221 170.845 162.046 171.527 159.757C172.609 156.156 173.431 152.479 174.355 148.84C174.84 148.428 175.335 148.006 175.82 147.593C176.772 146.646 177.724 145.699 178.676 144.761L178.685 144.751Z" fill="#0D0D0D"/>
<path d="M168.867 166.454C169.334 166.472 169.8 166.482 170.276 166.501C170.248 167.663 170.117 168.826 170.201 169.98C170.425 173.056 169.007 173.319 166.552 172.118C166.132 173.066 165.722 174.004 165.302 174.951C164.76 174.848 164.229 174.735 163.557 174.604C163.697 173.807 163.827 173 163.967 172.193C165.6 170.28 167.234 168.367 168.867 166.454Z" fill="#262626"/>
<path d="M98.0499 151.654C100.682 145.595 103.314 139.546 105.936 133.487C106.337 132.85 106.739 132.212 107.14 131.574C107.644 131.03 108.157 130.496 108.661 129.952C109.128 129.501 109.595 129.042 110.061 128.592L115.017 122.214C115.409 121.783 115.792 121.351 116.183 120.929C117.098 120.601 118.013 120.273 118.937 119.945C119.161 120.235 119.385 120.526 119.609 120.817C113.944 128.338 106.935 135.007 104.07 144.31C103.407 145.586 102.52 146.796 102.11 148.146C101.13 151.401 100.364 154.721 99.5152 158.013C98.7126 158.266 97.9099 158.51 96.3794 158.988C97.042 156.071 97.546 153.858 98.0499 151.654Z" fill="#0D0D0D"/>
<path d="M101.531 166.566C103.902 166.819 106.291 168.329 108.643 166.472C108.867 167.635 109.1 168.808 109.324 169.971C107.597 172.653 105.479 171.743 103.332 170.637C102.735 169.277 102.128 167.917 101.531 166.557V166.566Z" fill="#EDE2DA"/>
<path d="M96.1834 121.558C96.3421 121.501 96.5007 121.511 96.6594 121.558C96.426 123.518 96.1834 125.469 95.9501 127.429C95.5208 127.344 95.1008 127.26 94.6715 127.176C95.1754 125.3 95.6794 123.424 96.1834 121.558Z" fill="#DCCBA6"/>
<path d="M103.752 172.794C106.925 172.944 107.149 174.576 105.852 176.986C105.152 175.589 104.452 174.191 103.752 172.794Z" fill="#EDE2DA"/>
<path d="M157.612 126.444C158.088 127.363 159.207 128.77 158.946 129.117C155.092 134.125 159.077 138.336 160.253 142.763C161.233 146.458 162.745 150.013 163.846 153.68C164.098 154.515 163.622 155.565 163.323 157.572C158.368 151.176 158.601 143.982 155.848 137.989C153.085 141.047 151.564 141.215 147.112 138.88C146.86 138.505 146.608 138.13 146.356 137.755C147.075 137.455 147.803 137.154 148.521 136.854C149.753 136.986 150.985 137.117 152.46 137.286C152.74 136.414 153.095 135.297 153.449 134.181C154.382 132.54 155.316 130.908 156.249 129.267C156.706 128.329 157.154 127.391 157.612 126.453V126.444Z" fill="#0D0D0D"/>
<path d="M124.023 134.153C125.787 135.476 127.541 136.798 129.24 138.074C126.17 140.662 123.734 138.374 121.298 136.113C121.372 135.898 121.326 135.72 121.177 135.56C119.795 132.615 118.619 129.68 121.578 126.941C121.839 126.735 122.11 126.538 122.371 126.331C122.922 126.331 123.482 126.331 124.032 126.331C124.966 126.331 125.899 126.331 126.823 126.331C127.289 126.331 127.756 126.313 128.223 126.313C128.428 126.416 128.633 126.463 128.867 126.453C128.885 126.913 128.895 127.372 128.913 127.832C128.26 128.104 127.607 128.376 126.953 128.657C125.628 128.948 124.303 129.239 122.231 129.689C122.8 131.124 123.407 132.643 124.004 134.172L124.023 134.153Z" fill="#0D0D0D"/>
<path d="M133.132 142.688C134.765 142.622 136.398 142.557 138.022 142.491C138.246 142.566 138.461 142.632 138.685 142.707C141.037 143.588 143.379 144.47 145.731 145.352C145.535 146.308 145.33 147.255 145.134 148.212C144.21 147.837 143.286 147.462 142.241 147.04V151.645C141.765 151.429 141.158 151.335 140.85 150.979C140.318 150.378 139.982 149.609 139.562 148.915C139.543 145.577 137.49 144.667 134.616 144.723L133.132 142.697V142.688Z" fill="#0D0D0D"/>
<path d="M147.159 112.395C147.588 111.926 147.999 111.447 148.447 110.988C148.493 110.941 148.661 111.007 148.214 111.504C150.267 114.073 152.357 116.615 154.373 119.213C155.913 121.201 158.498 122.692 157.64 125.872C154.625 123.002 151.62 120.132 148.605 117.262C148.12 116.08 147.635 114.889 147.15 113.708C147.15 113.267 147.15 112.835 147.159 112.395Z" fill="#262626"/>
<path d="M133.132 142.688L134.616 144.714V150.228H138.694C139.049 150.369 139.394 150.5 139.749 150.641C139.618 150.285 139.487 149.938 139.357 149.581C139.422 149.356 139.487 149.131 139.553 148.906C139.973 149.6 140.318 150.369 140.841 150.969C141.158 151.326 141.765 151.42 142.231 151.635C145.19 152.179 144.975 150.041 145.124 148.203C145.32 147.246 145.526 146.299 145.722 145.342C146.412 145.398 147.103 145.464 147.803 145.52C148.652 147.968 149.501 150.416 150.248 152.564C152.068 151.269 153.729 150.088 155.4 148.906C159.506 152.939 159.506 158.266 157.416 162.533C154.205 169.098 151.713 176.601 143.267 179.246C139.011 180.578 135.082 183.016 130.425 182.801C128.764 182.726 127.131 182.21 125.479 181.891C124.91 180.559 124.34 179.237 123.771 177.905C121.942 175.26 120.113 172.606 118.283 169.961C118.05 169.258 117.817 168.564 117.583 167.86C116.911 166.454 116.23 165.047 115.558 163.64C115.54 162.937 115.53 162.233 115.512 161.539C115.512 161.07 115.512 160.601 115.512 160.132C115.512 158.96 115.512 157.797 115.512 156.625C116.23 152.686 117.303 148.981 121.736 147.64C122.446 149.122 122.903 150.876 124.004 151.954C124.443 152.376 126.338 151.288 127.569 150.885C129.156 150.594 130.752 150.303 132.721 149.947C132.357 148.118 132.021 146.411 131.685 144.704C131.928 144.038 132.18 143.363 132.423 142.697C132.656 142.697 132.889 142.697 133.122 142.697L133.132 142.688Z" fill="#040404"/>
<path d="M155.4 148.915C153.739 150.097 152.068 151.279 150.248 152.573C149.501 150.425 148.652 147.978 147.803 145.53C150.967 145.22 153.515 146.327 155.4 148.915Z" fill="#0D0D0D"/>
<path d="M107.345 97.7545C107.383 99.9679 107.42 102.172 107.457 104.385C106.141 104.366 104.835 104.338 103.519 104.32C103.108 102.125 102.698 99.9397 102.287 97.7451C103.976 97.7451 105.656 97.7545 107.345 97.7638V97.7545Z" fill="#7B94A4"/>
<path d="M105.88 155.152C105.88 153.061 105.889 150.969 105.861 148.878C105.843 147.48 105.768 146.092 105.712 144.695C107.261 141.628 109.94 140.418 113.477 141.337C112.992 142.003 112.544 142.604 112.105 143.194C111.172 143.429 110.239 143.663 109.296 143.888C105.628 144.751 107.737 147.612 107.336 149.609C107.336 150.547 107.345 151.476 107.355 152.414C107.317 152.648 107.28 152.883 107.243 153.117C107.009 153.774 106.785 154.43 106.552 155.087C106.328 155.105 106.095 155.134 105.871 155.152H105.88Z" fill="#262626"/>
<path d="M132.432 142.697C132.189 143.363 131.937 144.038 131.695 144.704C127.924 145.155 127.028 147.537 127.579 150.885C126.347 151.288 124.452 152.376 124.014 151.954C122.912 150.876 122.455 149.122 121.746 147.64C125.311 145.989 128.867 144.339 132.432 142.688V142.697Z" fill="#0D0D0D"/>
<path d="M127.579 150.885C127.028 147.527 127.924 145.155 131.695 144.704C132.031 146.411 132.366 148.118 132.73 149.947C130.761 150.303 129.175 150.594 127.579 150.885Z" fill="#EDE2DA"/>
<path d="M138.694 150.228C138.918 150.013 139.142 149.797 139.357 149.581C139.487 149.938 139.618 150.285 139.749 150.641C139.394 150.5 139.049 150.369 138.694 150.228Z" fill="#0D0D0D"/>
<path d="M108.624 160.076C107.943 158.407 107.252 156.747 106.571 155.077C106.804 154.421 107.028 153.764 107.261 153.108C107.765 153.811 108.26 154.515 108.764 155.218C108.717 156.831 108.671 158.454 108.624 160.067V160.076Z" fill="#0D0D0D"/>
</svg>
