<svg width="43" height="43" viewBox="0 0 43 43" fill="none" xmlns="http://www.w3.org/2000/svg">
<path fill-rule="evenodd" clip-rule="evenodd" d="M21.5929 0.0120032C22.8722 0.029226 23.9025 0.098117 24.5121 0.192842C25.0272 0.270345 25.9201 0.451183 26.4868 0.588965C27.0534 0.726748 27.9807 0.9937 28.5473 1.19176C29.114 1.38982 30.1614 1.829 30.8654 2.17346C31.5781 2.51791 32.677 3.15516 33.3124 3.58572C33.9477 4.01629 34.8578 4.68798 35.33 5.09272C35.8022 5.48884 36.4976 6.1433 36.8754 6.53943C37.2532 6.93555 37.8628 7.63307 38.2234 8.08086C38.584 8.52865 39.1506 9.3209 39.4855 9.8462C39.8289 10.3629 40.3869 11.379 40.739 12.0852C41.0996 12.8171 41.5632 13.9366 41.8036 14.6686C42.0354 15.3833 42.3101 16.3392 42.4046 16.8042C42.5076 17.2606 42.6621 18.1734 42.7566 18.8279C42.8768 19.6373 42.9283 20.464 42.9283 21.4716C42.9283 22.4533 42.8768 23.3316 42.7652 24.1411C42.6707 24.8042 42.5162 25.717 42.4217 26.1648C42.3187 26.6125 42.1212 27.3703 41.9753 27.844C41.8293 28.3176 41.5546 29.0926 41.3657 29.5662C41.1768 30.0399 40.7905 30.8752 40.5071 31.4177C40.2238 31.9602 39.7516 32.7783 39.4683 33.2261C39.1764 33.6739 38.6269 34.4317 38.2491 34.9053C37.8799 35.3789 37.2618 36.0937 36.8754 36.4898C36.4976 36.8859 35.8022 37.5404 35.33 37.9365C34.8578 38.3326 33.9477 39.0129 33.3124 39.4435C32.677 39.8655 31.5695 40.5027 30.8654 40.8558C30.1528 41.2002 29.114 41.6394 28.5473 41.8375C27.9807 42.0269 27.0534 42.3025 26.4868 42.4403C25.9201 42.578 24.9929 42.7589 24.4262 42.845C23.6707 42.9569 22.8808 43 21.4641 43C20.3223 43 19.2319 42.9569 18.8026 42.888C18.3991 42.8278 17.6693 42.6986 17.1713 42.6039C16.6734 42.5005 15.832 42.2939 15.2996 42.1302C14.7759 41.9666 13.9431 41.6825 13.4623 41.4844C12.9729 41.2949 12.1315 40.9074 11.5906 40.6233C11.0497 40.3391 10.1225 39.7793 9.53008 39.3832C8.93767 38.9871 8.07052 38.3326 7.59831 37.9365C7.1261 37.5404 6.37914 36.8256 5.93269 36.3606C5.49482 35.8956 4.88524 35.1981 4.59333 34.8192C4.30142 34.4403 3.77769 33.6997 3.44285 33.183C3.09942 32.6577 2.54136 31.6588 2.18934 30.9441C1.84592 30.2379 1.38229 29.1443 1.17624 28.5329C0.961594 27.9129 0.695438 26.9656 0.566654 26.4231C0.446454 25.8806 0.266155 24.8903 0.171713 24.2272C0.051514 23.3919 0 22.5738 0 21.5577C0 20.5587 0.051514 19.6976 0.171713 18.8451C0.266155 18.1562 0.446454 17.1486 0.566654 16.6061C0.695438 16.0636 0.961594 15.1077 1.17624 14.4963C1.38229 13.8763 1.83733 12.7999 2.18934 12.0852C2.53277 11.379 3.09942 10.3629 3.43426 9.8462C3.77769 9.3209 4.31 8.57171 4.62767 8.16698C4.93675 7.76224 5.69229 6.92694 6.31046 6.31553C6.92004 5.69551 7.75285 4.93771 8.15638 4.6277C8.5599 4.30908 9.27251 3.80101 9.74472 3.491C10.2169 3.18099 11.0497 2.69875 11.5906 2.41458C12.1315 2.12179 12.9643 1.74289 13.4366 1.55344C13.9088 1.36399 14.6643 1.09704 15.1108 0.950643C15.5572 0.80425 16.39 0.597577 16.9567 0.477018C17.5233 0.356458 18.3304 0.218676 18.7597 0.158397C19.1804 0.106728 19.5495 0.0378373 19.5753 0.0206146C19.5925 -0.00521956 20.5026 -0.00521955 21.5929 0.0120032Z" fill="black"/>
<path d="M19.0336 17.9511V16.9659C18.6924 16.9118 18.3477 16.8823 18.0023 16.8775C14.6584 16.8707 11.6988 19.0414 10.6944 22.2365C9.68995 25.4315 10.8754 28.9109 13.6193 30.8241C10.7402 27.7366 10.9044 22.8947 13.9858 20.0098C15.3588 18.7255 17.1557 17.9926 19.0336 17.9511Z" fill="#25F4EE"/>
<path d="M19.219 29.1059C21.0882 29.1036 22.6244 27.6281 22.7071 25.7563V9.0568H25.7516C25.6894 8.70807 25.6598 8.35426 25.6634 8H21.4994V24.6827C21.4301 26.5635 19.8894 28.0535 18.0113 28.0569C17.4504 28.0524 16.8974 27.9136 16.4002 27.6539C16.7226 28.1014 17.146 28.4662 17.6359 28.7185C18.1258 28.9709 18.6682 29.1036 19.219 29.1059ZM31.4374 14.7226V13.7945C30.3168 13.7945 29.2207 13.4631 28.2878 12.8418C29.1056 13.7953 30.2113 14.4556 31.4374 14.7226Z" fill="#25F4EE"/>
<path d="M31.1641 14.5363V17.7603C29.145 17.7563 27.1783 17.0993 25.5427 15.8822V24.3526C25.534 28.5794 22.1986 32.0014 18.0867 32.0014C16.5596 32.0044 15.0693 31.52 13.8214 30.6152C16.6196 33.7084 21.3275 33.885 24.3378 31.0087C25.0866 30.2931 25.6839 29.4266 26.0924 28.4631C26.5009 27.4997 26.7117 26.46 26.7118 25.409V16.9621C28.3531 18.1706 30.322 18.8189 32.3408 18.8156V14.6659C31.945 14.6637 31.5513 14.6212 31.1641 14.5363Z" fill="#FE2C55"/>
<path d="M25.561 24.4001V16.024C27.2197 17.2199 29.2104 17.8611 31.2514 17.8568V14.6687C30.0457 14.4123 28.9553 13.7691 28.1446 12.8358C27.4972 12.4146 26.9419 11.8651 26.5126 11.221C26.0834 10.5769 25.7891 9.8516 25.6479 9.08936H22.652V25.5874C22.574 27.4965 20.9732 28.98 19.0746 28.9027C18.5552 28.8815 18.0473 28.7421 17.5891 28.4951C17.131 28.2481 16.7345 27.8999 16.4295 27.4766C14.7485 26.5867 14.1031 24.4952 14.9882 22.8049C15.2786 22.2499 15.7137 21.7848 16.2468 21.4594C16.78 21.134 17.3911 20.9606 18.0148 20.9577C18.3589 20.961 18.7008 21.014 19.0295 21.1168V17.8811C14.8804 17.9519 11.5734 21.4396 11.6438 25.6117C11.6756 27.501 12.4103 29.3098 13.703 30.6814C14.9768 31.5466 16.4855 31.9949 18.0225 31.9648C22.1804 31.9637 25.5522 28.5799 25.561 24.4001Z" fill="white"/>
</svg>
