<svg width="604" height="434" viewBox="0 0 604 434" fill="none" xmlns="http://www.w3.org/2000/svg">
<mask id="mask0_53_19" style="mask-type:alpha" maskUnits="userSpaceOnUse" x="0" y="0" width="604" height="434">
<rect width="604" height="434" fill="#D9D9D9"/>
</mask>
<g mask="url(#mask0_53_19)">
<path d="M519.458 371.702C519.529 370.975 519.597 370.289 519.669 369.547C518.228 369.217 516.919 369.537 515.642 369.716C505.997 371.068 496.296 371.89 486.604 372.794C475.875 373.794 465.148 374.801 454.418 375.791C445.665 376.598 436.909 377.373 428.156 378.18C418.415 379.077 408.676 379.998 398.936 380.904C390.372 381.702 381.807 382.483 373.244 383.289C364.776 384.086 356.311 384.923 347.842 385.709C341.066 386.337 334.285 386.913 327.506 387.517C322.093 388.001 316.681 388.489 311.269 388.987C310.916 389.019 310.57 389.145 310.096 389.259C339.879 393.605 369.501 397.927 399.123 402.249C399.139 402.279 399.153 402.308 399.169 402.337C398.889 402.365 398.61 402.398 398.33 402.42C398.19 402.432 398.047 402.42 397.905 402.432C392.722 402.866 387.634 402.039 382.538 401.287C375.622 400.267 368.698 399.283 361.778 398.291C351.303 396.792 340.821 395.334 330.35 393.796C322.359 392.623 314.38 391.355 306.394 390.138C306.085 390.091 305.763 390.133 305.397 390.133C305.939 393.663 306.201 397.14 306.052 400.636C306.017 401.483 305.923 402.334 305.77 403.168C305.678 403.67 305.468 404.225 304.828 404.264C304.109 404.31 303.831 403.744 303.713 403.186C303.539 402.358 303.431 401.508 303.382 400.663C303.201 397.55 303.058 394.433 302.901 391.317C302.891 391.128 302.867 390.937 302.884 390.751C302.949 390.013 303.217 389.223 302 388.843L302.25 388.57C302.692 388.381 303.121 388.089 303.582 388.022C306.292 387.631 309.004 387.229 311.728 386.95C319.201 386.182 326.68 385.467 334.16 384.743C340.51 384.127 346.862 383.527 353.212 382.924C360.833 382.201 368.454 381.479 376.077 380.765C382.617 380.153 389.159 379.565 395.699 378.946C403.132 378.242 410.563 377.512 417.995 376.801C424.394 376.19 430.792 375.597 437.191 374.981C444.577 374.27 451.959 373.537 459.345 372.827C465.742 372.211 472.142 371.614 478.541 371.008C485.128 370.385 491.711 369.716 498.302 369.153C503.811 368.682 509.33 368.343 514.845 367.93C516.441 367.811 518.034 367.638 519.734 367.479C519.817 366.851 519.902 366.351 519.946 365.848C520.839 355.536 521.723 345.223 522.621 334.912C523.072 329.735 523.558 324.559 524 319.38C524.061 318.666 524.39 318.217 525.009 317.99C525.895 317.666 526.79 317.348 527.704 317.125C537.021 314.851 546.334 312.558 555.666 310.348C565.044 308.127 574.443 305.996 583.833 303.825C584.891 303.581 585.949 303.34 587.003 303.083C588.169 302.798 589.098 303.262 589.353 304.274C589.61 305.29 589 306.132 587.827 306.408C578.399 308.616 568.979 310.866 559.539 313.029C549.454 315.341 539.352 317.575 529.256 319.836C528.292 320.051 527.314 320.212 526.225 320.42C526.062 322.111 525.892 323.792 525.74 325.474C524.897 334.841 524.058 344.208 523.219 353.577C522.832 357.908 522.451 362.239 522.075 366.571C522.046 366.898 521.992 367.262 522.1 367.551C522.32 368.139 522.083 368.602 521.961 369.156C521.703 370.336 521.703 371.571 521.6 372.784C521.557 373.286 521.541 373.791 521.475 374.289C521.4 374.848 521.242 375.395 521.187 375.956C520.634 381.646 520.083 387.338 519.556 393.032C519.417 394.534 519.346 396.043 519.266 397.55C519.21 398.625 518.777 398.927 517.713 398.764C516.459 398.571 515.19 398.469 513.925 398.345C504.14 397.399 494.353 396.486 484.573 395.504C477.143 394.76 469.721 393.948 462.3 393.131C457.65 392.619 453.01 392.033 448.364 391.496C447.616 391.409 446.86 391.408 446.107 391.367C445.211 391.318 444.699 390.798 444.815 390.053C444.92 389.374 445.45 389.096 446.333 389.181C451.22 389.655 456.111 390.116 461 390.578C465.564 391.011 470.128 391.438 474.691 391.87C481.278 392.494 487.868 393.086 494.451 393.754C499.998 394.316 505.537 394.961 511.079 395.578C513.14 395.808 515.198 396.066 517.428 396.331C518.017 389.391 518.598 382.54 519.197 375.487C518.452 375.554 517.859 375.574 517.279 375.666C506.31 377.395 495.347 379.171 484.372 380.855C477.507 381.909 470.61 382.765 463.747 383.822C456.93 384.872 450.135 386.059 443.331 387.189C443.059 387.235 442.792 387.316 442.402 387.409C442.476 389.036 442.548 390.621 442.622 392.272C442.897 392.36 443.148 392.48 443.412 392.52C455.694 394.406 467.986 396.226 480.255 398.186C491.033 399.908 501.781 401.802 512.547 403.583C515.017 403.992 517.509 404.256 519.991 404.585C520.085 404.598 520.195 404.574 520.271 404.616C521.746 405.443 523.19 404.833 524.648 404.542C532.107 403.057 539.579 401.642 547.025 400.093C556.69 398.083 566.334 395.972 575.985 393.901C577.185 393.645 578.38 393.369 579.579 393.101C579.809 393.05 580.037 392.951 580.268 392.947C580.857 392.935 581.271 393.213 581.393 393.809C581.501 394.338 581.274 394.738 580.796 394.968C580.589 395.067 580.348 395.104 580.118 395.15C562.371 398.66 544.724 402.629 527.082 406.625C525.378 407.01 523.661 407.344 521.941 407.654C521.442 407.745 520.899 407.745 520.4 407.657C516.218 406.915 512.055 406.061 507.861 405.398C498.901 403.979 489.921 402.691 480.959 401.284C472.417 399.944 463.886 398.54 455.357 397.124C451.209 396.436 447.077 395.656 442.937 394.927C442.524 394.855 442.099 394.794 441.682 394.811C440.56 394.855 440.107 394.642 439.777 393.611C439.548 392.899 439.416 392.138 439.358 391.391C439.238 389.839 439.109 388.279 439.143 386.724C439.184 384.934 439.985 384.472 441.724 384.873C442.385 385.026 443.131 384.943 443.818 384.835C447.691 384.228 451.564 383.609 455.427 382.941C462.41 381.734 469.386 380.486 476.366 379.262C489.862 376.895 503.36 374.534 516.856 372.168C517.689 372.022 518.52 371.866 519.451 371.697L519.458 371.702Z" fill="black"/>
<path d="M423.906 416.989C419.001 417.833 414.171 417.287 409.336 416.68C400.289 415.547 391.234 414.469 382.186 413.344C374.31 412.365 366.439 411.348 358.565 410.357C355.474 409.968 352.403 409.599 349.253 409.823C345.913 410.06 342.545 409.903 339.189 409.945C337.336 409.968 335.517 410.264 333.771 410.907C330.758 412.015 327.758 413.157 324.739 414.249C323.659 414.639 323.173 415.315 323.241 416.474C323.341 418.206 322.961 419.947 323.451 421.683C323.68 422.495 322.946 423.286 322.221 423.239C321.544 423.195 320.961 422.473 321.11 421.688C321.8 418.059 320.99 414.44 321.065 410.818C321.099 409.169 321.071 407.518 321.071 405.833C320.532 405.691 320.186 405.56 319.828 405.514C316.547 405.094 313.266 404.679 309.983 404.287C308.861 404.154 307.837 403.921 307.407 402.694C308.057 401.745 308.981 401.632 310.032 401.772C315.37 402.49 320.712 403.178 326.051 403.893C333.449 404.882 340.845 405.894 348.243 406.879C355.08 407.788 361.922 408.655 368.759 409.572C378.919 410.935 389.075 412.327 399.233 413.707C405.037 414.496 410.84 415.297 416.647 416.074C418.659 416.344 420.68 416.554 422.697 416.798C423.103 416.847 423.505 416.925 423.907 416.991L423.906 416.989Z" fill="black"/>
<path d="M276.17 184.604C278.857 182.845 281.042 180.374 284.556 180.471C284.595 179.957 284.685 179.561 284.644 179.179C284.486 177.707 284.553 176.264 284.903 174.817C284.998 174.428 284.877 173.912 284.691 173.538C283.243 170.629 280.757 168.912 277.726 168.151C275.732 167.651 275.077 166.262 274.641 164.654C274.204 163.042 274.885 161.635 276.142 160.633C276.871 160.051 277.773 159.539 278.673 159.344C281.528 158.729 284.315 159.017 286.84 160.607C290.195 162.721 291.746 165.045 292.738 169.381C296.977 168.794 300.938 169.557 304.269 172.283C304.897 172.054 305.426 171.716 305.97 171.687C308.946 171.534 311.925 171.447 314.904 171.368C315.348 171.356 315.796 171.505 316.343 171.594C317.95 170.042 319.804 168.717 322.037 168.11C323.033 167.841 324.146 167.707 325.157 167.853C327.732 168.223 328.688 170.53 327.287 172.719C327.072 173.054 326.837 173.377 326.572 173.765C327.109 173.973 327.594 174.122 328.041 174.344C328.623 174.636 329.237 174.914 329.731 175.327C330.973 176.362 331.088 177.457 329.907 178.547C328.958 179.423 327.797 180.08 326.693 180.776C326.144 181.121 325.511 181.333 324.756 181.679C325.115 182.239 325.455 182.766 325.793 183.295C326.52 184.438 326.784 185.613 326.006 186.846C325.201 188.121 324.181 188.888 322.533 188.806C319.86 188.673 317.178 188.745 314.503 188.658C313.746 188.633 313.297 188.89 312.861 189.464C312.189 190.346 311.442 191.174 310.7 192C310.27 192.481 309.727 192.74 309.069 192.475C305.715 191.121 302.131 191.276 298.635 190.845C297.289 190.68 295.928 190.45 294.641 190.037C293.705 189.739 292.856 189.131 292.013 188.589C291.469 188.239 291.007 187.76 290.421 187.266C287.542 188.85 285.394 191.33 282.683 192.995C283.322 194.513 283.981 195.877 284.466 197.301C284.838 198.389 285.03 199.546 285.217 200.688C285.273 201.029 285.158 201.591 284.918 201.756C282.932 203.119 281.057 204.699 278.62 205.313C278.605 205.369 278.529 205.486 278.561 205.547C279.356 207.097 279.29 207.282 277.68 208.441C271.487 212.895 265.3 217.357 259.113 221.818C258.63 222.167 258.17 222.552 257.432 223.131C306.61 222.919 355.459 223.116 404.481 223.331C404.246 224.127 403.83 224.127 403.456 224.146C401.64 224.232 399.822 224.368 398.004 224.374C372.486 224.446 346.966 224.526 321.448 224.546C300.527 224.562 279.606 224.54 258.687 224.415C256.513 224.403 254.868 224.925 253.222 226.285C250.068 228.889 246.762 231.309 243.524 233.81C242.652 234.484 241.795 235.176 240.629 236.1C265.459 236.1 289.926 236.074 314.392 236.107C338.837 236.139 363.283 235.898 387.786 236.145C387.835 237.161 387.22 237.156 386.696 237.185C384.981 237.281 383.264 237.413 381.549 237.413C369.27 237.416 356.99 237.382 344.712 237.373C311.511 237.349 278.311 237.332 245.112 237.311C244.001 237.311 242.887 237.331 241.779 237.281C241.102 237.25 240.432 237.1 239.595 236.982C237.473 238.622 235.205 240.392 232.919 242.137C229.785 244.526 226.621 246.877 223.507 249.291C222.846 249.803 222.367 250.546 221.757 251.136C220.02 252.817 218.319 254.544 216.482 256.11C215.569 256.889 214.365 256.63 213.295 256.206C212.168 255.758 211.066 255.254 209.941 254.803C206.028 253.239 201.953 252.217 197.802 251.639C193.268 251.007 189.329 249.077 185.552 246.68C183.249 245.219 180.975 243.706 179.059 241.73C178.885 241.55 178.678 241.398 178.471 241.256C178.403 241.209 178.283 241.236 178.025 241.219C178.181 246.65 178.923 252.068 178.172 257.664C178.656 257.84 179.156 258.033 179.662 258.207C186.395 260.516 193.139 262.801 199.861 265.143C202.387 266.024 204.884 266.996 207.364 267.999C209.659 268.929 211.873 270.01 213.65 271.826C214.398 272.591 214.438 272.541 213.959 273.581C212.271 277.249 210.561 280.907 208.933 284.6C205.987 291.28 204.141 298.319 202.264 305.344C200.193 313.1 198.301 320.907 196.056 328.611C193.319 337.997 189.35 346.901 184.784 355.54C183.816 357.371 182.861 359.209 181.853 361.017C180.951 362.636 180.208 362.865 178.481 362.094C175.942 360.961 173.357 359.964 170.452 359.286C170.337 360.056 170.205 360.775 170.126 361.501C169.622 366.17 169.194 370.849 168.612 375.508C168.007 380.339 166.527 384.965 164.991 389.568C164.655 390.574 164.08 391.161 162.971 391.332C162.191 391.452 161.458 391.862 160.703 392.143C159.981 391.392 158.424 391.116 156.28 391.402C156.16 393.331 155.971 395.285 155.933 397.242C155.85 401.586 155.86 405.929 155.801 410.273C155.774 412.242 155.707 414.211 155.586 416.178C155.525 417.16 155.355 418.15 154.503 419.093C153.594 414.292 153.747 409.613 153.533 404.962C153.319 400.32 153.378 395.683 154.011 390.979C149.705 390.23 145.452 389.49 141.083 388.729C140.916 388.957 140.674 389.272 140.448 389.598C140.221 389.927 140.039 390.165 139.519 390.179C138.742 390.197 138.362 390.72 138.241 391.564C137.758 394.939 137.978 398.32 137.968 401.704C137.959 404.78 137.798 407.857 137.598 410.928C137.52 412.11 137.269 413.311 136.458 414.558C136.321 414.113 136.186 413.87 136.18 413.625C136.147 412.263 136.132 410.9 136.136 409.537C136.144 406.861 136.176 404.187 136.183 401.511C136.192 398.338 136.185 395.165 136.185 391.952C136.039 391.952 135.879 391.91 135.756 391.958C129.537 394.443 123.045 395.925 116.496 397.198C106.899 399.063 97.2144 400.051 87.4388 400.13C86.7308 400.136 86.0153 400.186 85.3179 400.097C83.303 399.839 81.4458 400.273 79.5872 401.049C76.0941 402.506 72.4768 403.663 69.1809 405.576C68.6654 405.876 68.0636 406.028 67.401 406.287C67.1524 411.833 68.103 417.559 66.2807 423.042C66.1548 423.053 66.029 423.065 65.9032 423.076C65.7864 422.842 65.6075 422.621 65.5636 422.375C65.4286 421.631 65.2983 420.879 65.2513 420.125C64.8055 413.118 64.3719 406.109 63.9535 399.101C63.8944 398.102 63.9459 397.096 63.9459 396.131C61.4111 395.074 59.0566 394.046 56.6658 393.118C55.6622 392.729 54.56 392.488 54.0521 394.346C53.1713 393.018 52.245 392.242 52.6028 390.855C52.6877 390.524 52.6604 390.156 52.6422 389.809C52.2753 382.795 51.9296 375.782 51.5218 368.772C50.9836 359.492 50.3605 350.217 49.839 340.937C49.4509 334.028 48.9263 327.118 49.6222 320.194C49.7965 318.451 49.8738 316.697 50.0057 314.8C49.8693 314.741 49.563 314.589 49.2447 314.479C45.3817 313.135 41.5173 311.797 37.6513 310.463C35.7729 309.815 33.8445 309.507 31.8494 309.527C29.7709 309.547 27.7257 309.406 25.8154 308.38C24.3934 307.615 23.364 306.665 23.1623 304.971C22.9668 303.326 22.5726 301.697 22.4786 300.049C22.2497 296.016 22.092 291.977 22.0056 287.94C21.9449 285.155 22.3876 282.411 22.9031 279.673C23.3791 277.144 23.7672 274.596 24.0689 272.041C24.216 270.801 24.1341 269.523 24.0553 268.268C23.8097 264.317 23.8749 260.367 24.689 256.495C26.0808 249.876 27.4467 243.242 29.175 236.708C31.058 229.585 33.2593 222.543 35.4728 215.515C37.4406 209.267 40.4773 203.495 43.9218 197.942C45.7153 195.051 47.1464 192.02 48.2183 188.78C49.0885 186.152 50.2574 183.623 51.3156 181.058C51.9038 179.631 52.9848 178.677 54.3599 178.03C54.7707 177.836 55.1694 177.607 55.5955 177.457C58.667 176.37 61.1503 174.396 63.5123 172.24C64.3325 171.491 65.1163 170.7 65.9198 169.933C66.2124 169.654 66.4884 169.346 66.8204 169.125C69.0338 167.645 71.1791 166.039 73.5032 164.761C75.841 163.477 78.3409 162.474 80.8136 161.456C81.7202 161.083 82.1523 160.651 82.2569 159.631C82.4298 157.942 82.9195 157.515 84.6083 157.155C85.5422 156.957 86.4928 156.831 87.645 156.638C87.4055 155.947 87.2584 155.215 86.9143 154.59C85.8727 152.701 84.7433 150.861 83.6729 148.988C83.2985 148.333 82.9892 147.639 82.6572 146.96C82.1311 145.883 81.5853 144.815 81.0956 143.721C80.7773 143.01 80.3209 142.519 79.663 142.055C78.6912 141.372 77.6466 140.576 77.0766 139.575C74.4583 134.974 72.8755 130.068 73.3774 124.674C73.4425 123.972 73.5047 123.252 73.7063 122.583C74.6311 119.531 74.5963 116.388 74.5371 113.267C74.3522 103.437 77.451 94.8269 83.8397 87.3649C86.3761 84.4025 89.0671 81.6387 92.4797 79.6663C92.8224 79.4677 93.1074 79.166 93.2014 79.0902C93.2833 67.3589 93.3591 55.8429 93.4576 44.3269C93.4637 43.6204 93.2832 42.7881 94.1141 42.2681C94.7053 42.6244 94.5219 43.1838 94.531 43.6371C94.6068 47.5273 94.7023 51.4175 94.7038 55.3077C94.7068 62.3301 94.6492 69.3541 94.6159 76.3765C94.6128 76.9162 94.6159 77.4544 94.6159 78.129C96.9658 77.0693 99.0867 75.8989 101.347 75.1515C103.576 74.4147 105.945 74.1039 108.444 73.5657C108.444 72.8577 108.444 72.1648 108.444 71.4705C108.429 54.9985 108.409 38.5249 108.406 22.0529C108.406 20.7915 108.556 19.5317 108.595 18.2703C108.629 17.2167 109.159 16.5193 110.169 15.8477C110.82 35.0365 110.486 54.0509 110.33 73.12C110.889 73.12 111.276 73.1336 111.662 73.1184C113.879 73.029 116.097 72.8456 118.313 72.8622C120.585 72.8804 122.854 73.0972 125.125 73.217C127.637 73.3504 129.951 74.2509 132.282 75.0726C135.519 76.2142 138.744 77.3907 141.987 78.5096C144.57 79.401 146.677 80.9216 148.674 82.7939C150.975 84.9513 152.789 87.3558 153.985 90.2484C154.964 92.615 155.863 95.018 156.918 97.3512C158.181 100.142 158.908 103.076 159.293 106.078C159.575 108.273 159.535 110.509 159.658 112.727C159.749 114.377 159.875 116.025 159.978 117.674C160.01 118.176 160.054 118.681 160.026 119.179C159.826 123.014 159.456 126.848 159.45 130.682C159.447 133.279 158.345 135.679 158.457 138.261C158.477 138.711 158.325 139.166 158.337 139.617C158.403 142.31 157.316 144.564 155.499 146.416C154.208 147.733 153.574 149.367 152.913 150.965C151.133 155.277 149.556 159.67 147.801 163.993C147.235 165.386 146.356 166.653 145.633 167.983C145.151 168.868 144.688 169.764 144.244 170.603C144.311 170.782 144.318 170.912 144.385 170.961C148.177 173.718 151.964 176.487 155.78 179.211C156.679 179.854 157.642 180.439 158.645 180.898C161.988 182.433 164.981 184.457 167.599 187.035C167.813 187.246 168.045 187.44 168.256 187.63C168.807 187.357 169.318 186.908 169.837 186.899C170.448 186.888 171.109 187.178 171.671 187.48C173.985 188.724 176.263 190.03 178.563 191.299C180.29 192.251 181.642 193.57 182.588 195.304C184.544 198.886 187.32 201.702 190.713 203.933C195.481 207.07 200.254 210.201 205.014 213.351C206.024 214.02 206.98 214.764 207.861 215.401C208.745 215.401 209.538 215.401 210.331 215.401C210.532 215.401 210.814 215.478 210.921 215.375C211.908 214.419 212.664 215.175 213.583 215.803C215.04 215.02 216.572 214.265 218.039 213.397C222.826 210.559 227.379 207.385 231.651 203.805C238.43 198.124 245.302 192.557 252.038 186.829C254.09 185.083 256.324 184.241 258.939 184.244C259.782 184.244 260.443 184.029 261.113 183.47C262.117 182.631 263.226 181.91 264.347 181.227C265.843 180.315 267.276 179.883 269.169 180.625C271.46 181.526 273.599 182.549 275.499 184.096C275.693 184.253 275.898 184.4 276.176 184.611L276.17 184.604ZM81.5853 163.67C78.018 165.506 74.3355 166.597 71.1124 168.85C72.6906 171.068 73.7852 173.385 74.4174 175.898C75.0102 178.256 75.468 180.639 74.998 183.088C74.8843 183.677 74.8297 184.435 74.0399 184.414C73.1878 184.393 73.3197 183.595 73.2515 183.018C73.0817 181.565 73.0241 180.09 72.7391 178.662C72.2327 176.127 71.4201 173.679 70.0435 171.464C69.3234 170.306 68.7473 170.221 67.7285 171.105C67.0038 171.732 66.3352 172.425 65.6591 173.107C62.9681 175.82 60.0876 178.248 56.355 179.431C55.9745 179.552 55.6318 179.789 55.265 179.957C54.4038 180.353 53.7368 180.945 53.3911 181.841C52.4648 184.238 51.4051 186.597 50.6683 189.052C49.6131 192.572 48.1061 195.841 46.1019 198.909C42.4376 204.52 39.4873 210.481 37.5149 216.899C35.9882 221.87 34.6116 226.888 33.0137 231.835C31.5522 236.357 30.259 240.916 29.2645 245.561C28.5989 248.671 27.9683 251.789 27.2603 254.891C26.2415 259.359 25.8958 263.868 26.2642 268.436C26.3203 269.138 26.3415 269.858 26.2536 270.552C25.9655 272.805 25.7108 275.069 25.2742 277.296C24.3555 281.98 23.8703 286.669 24.3221 291.451C24.498 293.304 24.3585 295.184 24.3706 297.053C24.3737 297.608 24.3615 298.167 24.4328 298.716C24.7208 300.907 25.0377 303.093 25.347 305.297C27.6287 306.509 30.0483 307.258 32.6968 307.195C34.4797 307.153 36.2065 307.531 37.8939 308.107C42.9106 309.818 47.9242 311.537 52.9514 313.219C58.9535 315.226 65.0997 316.625 71.3716 317.47C76.5368 318.166 81.7293 318.445 86.9355 318.552C88.2878 318.58 89.6386 318.681 90.9364 318.745C92.0507 317.077 92.6799 313.269 92.2296 311.045H91.0092C91.0092 311.956 91.0486 312.762 90.997 313.563C90.9515 314.265 90.8682 314.976 90.6862 315.652C90.2905 317.126 89.2445 317.446 88.0877 316.46C87.7102 316.139 87.3342 315.746 87.1235 315.308C86.5383 314.084 85.8894 312.861 85.5377 311.563C84.3142 307.065 85.189 302.722 86.934 298.549C88.6426 294.465 91.1759 290.863 94.0352 287.5C95.1526 286.186 96.5201 285.281 98.353 285.349C98.4015 285.351 98.4561 285.222 98.5288 285.126C98.1013 284.409 97.3812 284.373 96.6808 284.409C95.1177 284.489 93.5516 284.568 91.9992 284.746C88.2893 285.17 84.6114 285.93 80.85 285.808C77.5177 285.702 74.1824 285.646 70.8546 285.457C67.1009 285.241 63.7034 283.789 60.365 282.19C59.898 281.965 59.4205 281.76 58.667 281.418C58.8125 282.444 58.8929 283.133 59.0127 283.816C59.2264 285.029 58.9399 286.125 58.2531 287.118C57.9742 287.522 57.5163 287.794 57.0903 287.473C56.8311 287.277 56.64 286.786 56.6719 286.453C56.7325 285.808 56.9508 285.175 57.1434 284.549C57.5042 283.374 57.4966 282.267 56.7022 281.245C56.4869 280.968 56.3383 280.64 56.1594 280.334C55.6637 279.485 55.033 279.362 54.4129 280.119C53.0045 281.835 51.5809 283.549 50.3059 285.364C47.4497 289.435 45.2423 293.857 43.4715 298.501C43.3805 298.742 43.2016 298.948 43.0637 299.171C42.9651 299.153 42.8666 299.133 42.7681 299.115C42.7423 298.386 42.5861 297.631 42.7195 296.932C43.0212 295.352 43.2684 293.716 43.8915 292.255C45.6213 288.193 47.9242 284.458 50.8835 281.153C51.3399 280.643 51.7932 280.129 52.2995 279.561C50.1301 278.78 49.3948 278.988 48.0849 280.42C46.6886 281.948 45.2438 283.433 43.7884 284.905C43.3639 285.334 42.8272 285.652 42.342 286.022C42.2389 285.604 42.2996 285.369 42.4269 285.176C43.8217 283.073 45.1938 280.952 46.6416 278.886C47.7332 277.328 49.3159 276.818 51.1655 277.099C51.7037 277.18 52.2328 277.312 52.8211 277.434C53.0075 276.955 53.1864 276.595 53.288 276.216C54.4296 271.926 55.5515 267.629 56.6946 263.339C57.8377 259.045 58.9475 254.743 60.1679 250.472C61.358 246.31 63.4168 242.551 65.6909 238.885C68.8276 233.832 71.3155 228.495 72.3555 222.575C72.4601 221.978 72.5071 221.359 72.7073 220.797C72.8179 220.484 73.1939 220.267 73.4516 220.007C73.7139 220.274 74.1672 220.516 74.2036 220.81C74.3022 221.603 74.3067 222.428 74.1991 223.221C73.7776 226.332 73.1075 229.385 71.8279 232.276C71.7066 232.549 71.6779 232.864 71.5596 233.353C73.1924 232.187 74.6099 231.135 76.0699 230.149C76.649 229.758 77.3024 229.432 77.968 229.236C78.25 229.153 78.7579 229.397 78.9656 229.653C79.1096 229.831 78.9731 230.304 78.8564 230.604C78.7745 230.818 78.5365 230.992 78.3349 231.139C76.4595 232.511 74.5402 233.824 72.7148 235.257C71.7946 235.98 70.3907 235.76 69.7343 236.871C69.1445 237.87 68.6851 238.951 68.0529 239.922C64.8177 244.885 62.6345 250.281 61.2064 256.016C59.7555 261.845 58.2425 267.661 56.7173 273.472C56.3368 274.922 55.8047 276.33 55.4166 277.526C56.2337 277.985 56.9432 278.387 57.6573 278.781C57.8316 278.877 58.0151 278.96 58.2016 279.03C60.0936 279.726 61.9811 280.435 63.8823 281.106C65.2604 281.591 66.6263 282.185 68.0499 282.452C73.8852 283.546 79.7842 283.794 85.7045 283.483C89.387 283.29 93.0649 283.032 96.7444 282.801C97.9148 282.726 99.0079 282.967 99.7386 283.925C100.341 284.717 100.936 285.582 101.24 286.51C101.517 287.358 101.397 288.334 101.458 289.338C102.695 289.568 104.096 289.638 105.345 290.109C106.835 290.673 107.825 290.26 108.827 289.201C111.294 286.598 113.811 284.041 116.305 281.463C119.078 278.596 121.764 275.639 125.107 273.386C125.471 273.142 125.735 272.61 125.851 272.161C126.718 268.841 127.49 265.495 128.395 262.185C128.77 260.816 128.604 259.662 127.881 258.457C123.864 251.773 119.411 245.395 114.231 239.568C109.951 234.755 105.077 230.589 99.6143 227.137C98.1968 226.241 98.1362 226.013 98.6092 224.4C98.6653 224.206 98.7441 224.02 98.8047 223.827C99.4885 221.656 100.498 219.641 101.984 217.561C100.597 217.727 99.4536 217.784 98.3454 218.012C96.47 218.397 94.6189 218.898 92.7542 219.332C92.0158 219.503 91.2244 219.723 90.6286 219.042C90.0859 218.424 90.3209 217.719 90.5695 217.038C90.8015 216.4 91.0137 215.754 91.2593 215.042C90.4452 214.811 89.816 214.641 89.1929 214.456C88.3 214.193 87.8436 213.683 87.6329 212.675C85.8182 204.029 84.008 195.381 82.0204 186.775C80.3588 179.578 80.0283 172.398 81.5004 165.148C81.5777 164.766 81.552 164.364 81.5914 163.674L81.5853 163.67ZM108.292 341.167C109.83 341.669 111.329 342.1 112.784 342.644C121.891 346.045 131.285 348.401 140.785 350.365C148.742 352.012 156.735 353.499 164.675 355.226C169.803 356.342 174.881 357.714 179.526 360.302C179.588 360.336 179.703 360.273 179.664 360.28C180.798 357.944 181.876 355.67 182.998 353.42C187.311 344.777 191.153 335.935 193.836 326.642C195.936 319.369 197.864 312.047 199.822 304.733C202.176 295.939 204.994 287.312 208.921 279.08C209.853 277.124 210.93 275.235 211.944 273.319C212.124 272.978 212.329 272.647 212.603 272.173C210.681 271.285 208.903 270.299 207.015 269.621C200.696 267.356 194.338 265.202 187.995 263.007C178.075 259.573 168.104 256.282 158.254 252.657C152.267 250.454 146.28 248.384 139.972 247.349C138.239 247.064 136.499 246.823 134.599 246.538C132.393 255.59 130.225 264.485 128.021 273.527C133.312 276.219 137.749 280.284 142.216 284.304C143.565 285.519 144.875 286.798 146.042 288.182C146.976 289.289 147.821 290.529 148.435 291.836C149.487 294.077 148.958 295.911 147.084 297.481C146.978 297.57 146.911 297.708 146.797 297.864C147.64 299.191 148.53 300.479 149.302 301.836C150.289 303.569 150.979 305.353 150.44 307.461C149.911 309.53 148.586 309.962 146.62 309.253C145.374 308.804 144.323 307.996 143.474 306.951C142.52 305.775 141.55 304.611 140.59 303.437C138.148 300.451 135.075 298.27 131.693 296.495C131.095 296.181 130.443 295.975 129.535 295.604C131.85 300.47 135.468 303.903 138.344 307.524C139.074 307.675 139.563 307.776 140.052 307.876C139.923 308.408 139.796 308.94 139.647 309.561C139.896 310.088 140.234 310.713 140.489 311.369C141.144 313.06 141.397 314.786 140.741 316.544C140.18 318.044 139.135 318.752 137.531 318.834C136.485 318.889 135.43 318.953 134.4 319.133C131.485 319.645 129.129 318.88 127.407 316.363C126.496 315.03 125.525 313.73 124.481 312.5C123.608 311.471 122.602 310.549 121.631 309.606C120.625 308.633 119.478 308.376 118.095 309.08C115.753 319.988 112.457 330.675 108.297 341.17L108.292 341.167ZM143.494 353.74C143.253 353.649 143.028 353.519 142.789 353.479C139.553 352.932 136.332 352.274 133.078 351.884C127.352 351.199 121.59 351.148 115.827 351.184C113.912 351.196 111.991 351.146 110.081 351.011C108.561 350.904 108.186 350.473 107.992 348.943C107.871 347.993 107.772 347.032 107.768 346.075C107.76 344.742 107.569 343.461 106.913 342.297C106.532 341.622 106.493 340.951 106.72 340.259C107.066 339.206 107.454 338.166 107.842 337.126C108.354 335.755 108.926 334.404 109.397 333.02C111.922 325.607 113.887 318.035 115.686 310.419C115.773 310.05 115.786 309.665 115.841 309.224C115.412 309.204 115.113 309.171 114.816 309.178C112.493 309.241 110.168 309.263 107.848 309.395C106.17 309.489 105.039 308.822 104.331 307.326C104.035 306.7 103.683 306.101 103.285 305.355C102.66 306.597 102.131 307.681 101.575 308.751C100.386 311.036 99.2368 311.648 96.6883 311.407C95.853 311.328 95.0131 311.29 93.9822 311.221C93.9822 312.245 94.0201 313.096 93.9731 313.94C93.9124 314.997 93.8639 316.066 93.6623 317.101C93.2241 319.357 91.752 320.576 89.4719 320.647C88.2105 320.687 86.9461 320.696 85.6832 320.672C81.5944 320.594 77.5056 320.482 73.4168 320.408C67.5087 320.3 61.5991 320.209 55.691 320.118C54.4539 320.1 53.2152 320.115 51.9524 320.115C51.9205 320.403 51.8948 320.599 51.8796 320.796C51.4066 327.067 51.9539 333.316 52.2889 339.568C52.7225 347.638 53.3335 355.699 53.6943 363.77C54.0612 371.997 54.2174 380.232 54.4705 388.462C54.4872 388.999 54.5418 389.534 54.5858 390.168C56.7947 390.033 58.5594 390.893 60.3377 391.777C61.6006 392.404 62.9271 392.911 64.2461 393.417C64.8465 393.647 65.5135 393.699 66.1185 393.917C66.8704 394.189 67.5602 394.663 68.3258 394.856C74.6069 396.431 80.9455 397.685 87.454 397.694C99.0185 397.709 110.433 396.307 121.711 393.825C126.49 392.774 131.267 391.669 135.801 389.745C137.047 389.216 138.312 388.729 139.39 388.294C140.07 386.895 140.712 385.593 141.336 384.284C141.552 383.832 141.826 383.376 141.903 382.894C142.358 380.056 142.992 377.221 143.134 374.363C143.407 368.866 143.397 363.355 143.491 357.85C143.513 356.495 143.494 355.138 143.494 353.74ZM153.619 137.75C153.551 136.845 153.345 135.896 153.433 134.974C153.765 131.507 153.131 128.148 152.443 124.789C152.088 123.056 151.802 121.323 151.885 119.534C151.994 117.175 152.011 114.857 151.486 112.48C150.904 109.841 150.927 107.066 150.694 104.349C150.451 101.523 150.076 98.7263 148.955 96.0868C148.065 93.9946 147.22 91.8706 145.636 90.1757C145.275 89.7891 144.795 89.454 144.305 89.2569C142.854 88.6732 141.356 88.2093 139.905 87.6272C138.371 87.0116 136.778 86.8312 135.154 86.8327C134.052 86.8327 132.951 86.8949 131.85 86.954C130.844 87.0086 129.822 86.9995 128.838 87.1845C125.161 87.8758 121.65 89.0932 118.245 90.635C117.014 91.1914 115.779 91.766 114.493 92.1632C112.489 92.7818 111.038 93.8127 110.389 95.9519C109.484 98.94 107.933 101.605 105.679 103.797C104.485 104.957 103.245 106.081 101.946 107.121C100.686 108.129 99.3339 109.022 98.0012 109.936C97.5464 110.248 97.3281 110.597 97.3084 111.172C97.2599 112.533 97.1204 113.89 97.0325 115.25C96.7975 118.885 96.3078 122.484 95.5028 126.037C94.8266 129.02 93.776 131.857 91.8779 134.293C91.37 134.945 90.6817 135.514 89.9646 135.93C89.0504 136.461 88.1999 136.129 87.6799 135.21C87.5086 134.906 87.4237 134.554 87.2857 134.228C85.7909 130.683 84.0398 127.266 81.8991 124.072C81.0941 122.87 80.1178 121.737 79.0414 120.77C77.9604 119.798 76.9401 120.05 76.3898 121.382C75.8773 122.625 75.4726 123.96 75.3012 125.289C74.9525 127.988 75.465 130.614 76.4231 133.151C76.884 134.373 77.2918 135.62 77.8346 136.805C78.8731 139.076 80.2072 141.035 83.0134 141.353C83.5911 141.419 84.1262 141.816 84.6932 142.025C85.3042 142.251 85.9182 142.478 86.5489 142.631C87.4631 142.854 87.5586 143.01 87.5768 143.953C87.598 145.101 87.7163 146.247 87.7997 147.393C87.8254 147.744 87.9255 148.094 87.9073 148.439C87.7527 151.347 88.8882 153.84 90.2845 156.291C91.3063 158.083 92.1432 159.981 93.0846 161.819C93.5895 162.803 94.0352 163.841 94.6902 164.719C99.1701 170.72 104.651 175.703 110.609 180.189C112.771 181.817 115.174 182.98 117.756 183.755C118.515 183.982 119.346 184.14 120.13 184.093C122.145 183.973 124.146 183.715 126.061 182.995C128.201 182.189 130.21 181.191 131.96 179.666C134.811 177.182 137.946 175.039 140.431 172.122C142.026 170.25 143.086 168.083 144.368 166.033C146.753 162.224 148.233 158.048 149.547 153.796C149.899 152.659 150.016 151.523 149.52 150.391C149.206 149.672 149.472 149.313 150.198 149.031C150.875 148.768 151.561 148.382 152.078 147.879C152.905 147.073 153.563 146.099 154.35 145.247C155.768 143.711 156.73 142.014 156.702 139.84C156.688 138.784 156.843 137.724 156.894 136.664C156.909 136.34 156.837 136.012 156.774 135.398C156.159 135.997 155.728 136.396 155.322 136.819C154.887 137.272 154.603 137.956 153.615 137.744L153.619 137.75ZM216.18 217.002C217.406 218.612 218.577 220.067 219.655 221.588C220.707 223.074 221.686 224.616 221.879 226.497C220.073 224.223 218.266 221.949 216.46 219.675C216.369 219.729 216.278 219.784 216.187 219.838C216.337 220.242 216.483 220.647 216.639 221.047C217.446 223.116 218.337 225.157 219.036 227.261C219.511 228.689 219.776 230.195 220.025 231.685C220.222 232.869 220.093 234.048 219.418 235.172C219.151 233.794 218.998 232.496 218.642 231.256C217.491 227.264 215.869 223.456 213.906 219.798C213.477 218.999 212.929 218.265 212.455 217.49C211.93 216.633 211.222 216.365 210.185 216.768C211.198 219.649 211.507 222.651 211.695 225.665C211.768 226.818 211.714 227.99 211.597 229.143C211.515 229.948 211.341 230.783 210.525 231.589C210.492 231.144 210.467 230.963 210.466 230.781C210.429 227.023 209.841 223.342 208.957 219.699C208.774 218.944 208.515 218.3 207.819 217.837C206.435 216.917 205.131 215.874 203.734 214.975C198.724 211.75 193.639 208.638 188.677 205.339C185.275 203.077 182.463 200.184 180.554 196.502C179.811 195.069 178.695 194.012 177.276 193.239C175.104 192.055 172.957 190.821 170.795 189.617C170.61 189.514 170.384 189.484 170.102 189.397C170.487 191.518 170.894 193.483 171.188 195.466C171.476 197.413 171.677 199.373 171.85 201.333C171.909 202.005 171.97 202.775 171.172 203.162C170.427 202.986 170.468 202.372 170.363 201.84C169.767 198.767 169.165 195.695 168.575 192.621C168.372 191.561 168.084 190.533 167.249 189.793C165.513 188.253 163.87 186.568 161.968 185.265C158.659 182.997 154.763 181.691 151.589 179.1C151.955 179.966 152.434 180.71 152.896 181.465C155.428 185.598 158.049 189.681 160.452 193.888C162.229 196.997 163.771 200.245 165.319 203.477C166.429 205.797 167.441 208.169 168.372 210.568C168.991 212.163 169.434 213.832 169.863 215.492C170.12 216.489 169.688 216.856 168.685 216.902C166.677 216.991 164.67 217.131 162.667 217.311C162.226 217.351 161.668 217.357 161.309 217.921C162.925 219.294 164.471 220.668 166.088 221.95C166.768 222.49 167.064 223.074 166.905 223.9C166.818 224.346 166.72 224.79 166.602 225.228C165.478 229.42 164.373 233.618 163.218 237.801C161.99 242.247 161.461 246.799 161.025 251.521C165.965 253.492 171.009 255.154 176.222 256.991C176.268 255.901 176.359 255.052 176.329 254.208C176.183 250.119 176.06 246.027 175.825 241.943C175.431 235.085 175.09 228.218 173.544 221.485C173.374 220.748 173.231 219.993 173.209 219.243C173.198 218.915 173.439 218.427 173.712 218.278C174.191 218.018 174.579 218.4 174.791 218.829C174.991 219.234 175.113 219.676 175.258 220.105C176.908 224.992 177.405 230.072 177.631 235.173C177.708 236.912 178.257 238.068 179.573 239.274C181.817 241.333 184.101 243.289 186.677 244.907C189.815 246.877 193.066 248.575 196.744 249.323C199.958 249.976 203.196 250.554 206.362 251.397C208.789 252.043 211.133 253.016 213.486 253.913C214.497 254.299 215.425 254.553 216.268 253.653C217.608 252.222 219.335 251.162 220.314 249.379C220.498 249.044 220.863 248.794 221.18 248.55C227.035 244.065 232.938 239.646 238.74 235.093C243.748 231.163 248.596 227.031 253.59 223.083C261.199 217.067 268.848 211.098 277.145 206.03C277.221 205.983 277.257 205.869 277.338 205.75C277.207 205.396 277.091 205.008 276.924 204.644C273.919 198.078 269.551 192.604 263.693 188.371C262.476 187.492 261.06 186.888 259.726 186.174C259.465 186.035 259.151 185.868 258.881 185.898C257.288 186.074 255.731 186.171 254.366 187.329C247.626 193.053 240.789 198.659 234.044 204.378C228.906 208.735 223.555 212.777 217.669 216.077C217.188 216.347 216.73 216.655 216.175 216.999L216.18 217.002ZM136.928 317.309C139.094 316.812 139.322 315.408 139.127 314.039C138.99 313.06 138.689 312.044 138.209 311.184C137.425 309.78 136.502 308.44 135.521 307.162C133.216 304.156 130.792 301.236 129.034 297.853C128.617 297.051 128.245 296.212 127.977 295.35C127.668 294.357 128.051 293.825 129.077 293.953C130.113 294.082 131.159 294.37 132.123 294.771C136.308 296.515 139.835 299.145 142.593 302.773C143.694 304.221 144.798 305.666 145.944 307.077C146.37 307.603 146.92 308.028 147.387 308.474C149.02 307.265 149.294 306.381 148.545 304.723C148.11 303.76 147.622 302.803 147.023 301.936C145.935 300.36 144.84 298.766 143.577 297.332C141.209 294.642 138.738 292.042 136.271 289.441C134.778 287.866 133.207 286.363 131.678 284.821C131.353 284.494 130.983 284.107 131.339 283.64C131.776 283.069 132.26 283.46 132.654 283.753C133.18 284.144 133.682 284.571 134.156 285.025C137.918 288.613 141.991 291.882 145.281 295.952C145.401 296.101 145.58 296.204 145.721 296.319C146.92 295.463 147.143 294.982 147 293.64C146.779 291.559 145.609 289.965 144.231 288.542C140.851 285.056 137.278 281.771 133.327 278.939C131.244 277.446 129.026 276.142 126.788 274.7C125.916 275.381 125.11 275.902 124.431 276.559C121.925 278.98 119.449 281.433 116.987 283.898C115.095 285.792 113.257 287.74 111.359 289.629C110.61 290.375 109.781 291.046 108.961 291.716C108.209 292.33 107.366 292.517 106.406 292.188C105.644 291.927 104.864 291.668 104.072 291.557C102.646 291.357 101.306 291.01 100.269 290.023C97.181 290.828 95.9333 294.906 96.3957 298.742C96.5322 298.775 96.6732 298.831 96.8172 298.84C100.606 299.074 103.185 301.112 104.981 304.31C105.327 304.926 105.656 305.555 105.95 306.196C106.33 307.024 106.896 307.421 107.853 307.332C108.856 307.238 109.874 307.299 110.88 307.236C112.793 307.117 114.723 307.086 116.609 306.783C118.94 306.407 121.133 306.362 122.983 308.078C123.976 309 124.981 309.932 125.827 310.984C126.996 312.436 128.025 314.004 129.108 315.528C130.571 317.587 132.686 317.885 135.234 317.843C134.687 316.919 134.299 316.169 133.824 315.476C130.939 311.271 128.034 307.08 125.14 302.881C124.798 302.383 124.437 301.888 124.179 301.345C124.078 301.133 124.141 300.657 124.3 300.548C124.538 300.384 124.978 300.314 125.237 300.426C125.586 300.578 125.886 300.907 126.133 301.216C126.7 301.926 127.261 302.646 127.759 303.404C130.36 307.374 132.936 311.362 135.531 315.335C135.969 316.005 136.456 316.644 136.928 317.309ZM129.387 256.829C130.04 254.336 130.647 252.102 131.192 249.853C131.264 249.562 131.085 249.164 130.923 248.869C130.114 247.416 129.261 245.986 128.447 244.535C127.511 242.866 126.474 241.238 125.713 239.49C124.964 237.77 124.235 236.06 123.1 234.559C121.517 232.469 119.855 230.434 118.342 228.295C116.129 225.163 113.982 221.982 111.878 218.774C110.216 216.242 108.724 213.598 107.048 211.077C103.533 205.789 100.803 200.125 98.635 194.17C96.752 189 94.7538 183.894 92.034 179.068C89.4446 174.472 87.8573 169.454 86.8824 164.255C86.655 163.045 86.8476 161.948 87.5055 160.924C87.7784 160.5 88.0998 160.106 88.3591 159.673C88.7821 158.969 88.5698 158.503 87.739 158.456C87.1462 158.423 86.5277 158.496 85.947 158.633C84.4492 158.987 84.4871 159.017 84.3097 160.532C84.0641 162.636 83.7609 164.734 83.4849 166.835C82.9194 171.15 82.4934 175.498 83.0407 179.82C83.4698 183.212 84.343 186.549 85.0647 189.899C86.3594 195.918 87.7057 201.925 88.9867 207.945C89.2975 209.408 89.437 210.907 89.6538 212.379C91.1956 212.693 92.5677 213.042 93.9609 213.238C95.3072 213.427 96.6823 213.412 98.0346 213.568C99.8857 213.782 101.737 214.024 103.57 214.353C104.404 214.502 105.233 214.81 106 215.18C107.122 215.721 107.178 216.856 106.177 217.583C105.935 217.76 105.616 217.843 105.395 218.039C104.498 218.836 103.417 219.528 102.79 220.506C101.908 221.885 101.368 223.485 100.673 225.01C100.944 225.219 101.086 225.355 101.252 225.454C106.114 228.325 110.478 231.838 114.253 236.016C119.582 241.914 124.179 248.372 128.312 255.16C128.618 255.663 128.949 256.151 129.387 256.832V256.829ZM162.711 389.533C166.958 379.571 167.285 369.102 168.344 358.687C160.778 356.69 153.262 355.444 145.75 354.242C145.677 354.522 145.631 354.618 145.631 354.712C145.698 360.061 145.777 365.409 145.838 370.758C145.886 375.027 145.139 379.201 144.246 383.349C144.091 384.069 143.674 384.734 143.35 385.412C143.186 385.755 142.959 386.067 142.648 386.575C149.349 388.449 156.004 389.292 162.711 389.533ZM145.954 190.572C145.977 190.44 146.03 190.336 146.004 190.256C144.71 186.221 143.41 182.189 142.103 178.157C141.979 177.774 141.764 177.419 141.656 177.032C141.517 176.531 141.462 175.973 142.05 175.723C142.674 175.457 143.122 175.801 143.409 176.346C143.595 176.702 143.751 177.078 143.883 177.458C145.111 180.983 146.376 184.497 147.546 188.044C149.747 194.717 151.426 201.533 152.54 208.468C153.18 212.452 153.589 216.479 153.944 220.501C154.271 224.22 154.596 227.96 154.546 231.686C154.485 236.226 154.047 240.76 153.735 245.295C153.663 246.333 153.439 247.361 153.284 248.4C155.245 249.161 157.116 249.888 159.147 250.677C159.262 249.653 159.355 248.765 159.461 247.88C159.635 246.427 159.705 244.95 160.019 243.528C161.344 237.517 162.56 231.48 164.459 225.609C165.289 223.045 165.393 223.582 163.359 221.817C161.338 220.063 159.23 218.409 157.161 216.711C156.253 215.966 156.204 215.565 157.029 214.76C159.035 212.801 161.432 211.771 164.261 211.825C164.705 211.834 165.148 211.864 165.704 211.89C165.621 211.509 165.581 211.223 165.493 210.951C163.312 204.203 160.528 197.713 156.937 191.599C154.764 187.9 152.352 184.341 150.119 180.677C148.336 177.751 146.004 175.319 143.547 172.983C143.375 172.819 143.151 172.712 142.874 172.527C139.29 176.115 135.575 179.478 131.153 182.511C131.993 182.85 132.542 183.189 133.131 183.288C135.409 183.671 137.498 184.484 139.44 185.732C141.608 187.125 143.823 188.447 145.575 190.387C145.66 190.481 145.821 190.51 145.956 190.572H145.954ZM130.239 196.173C130.807 196.879 131.271 197.467 131.749 198.047C134.992 201.972 137.557 206.291 139.35 211.062C139.954 212.667 140.578 214.267 141.138 215.888C142.226 219.032 143.442 222.146 144.308 225.352C146.189 232.32 147.614 239.383 147.892 246.759C148.955 247.061 150.036 247.367 151.21 247.701C151.294 246.996 151.379 246.501 151.406 246.003C151.565 243.13 151.718 240.257 151.858 237.384C152.059 233.2 152.361 229.017 151.903 224.826C151.585 221.915 151.339 218.999 151.029 216.088C150.386 210.063 149.573 204.07 148.051 198.186C147.61 196.477 146.861 194.983 145.809 193.608C143.236 190.24 139.802 187.953 136.138 185.973C135.369 185.557 134.531 185.216 133.509 185.283C133.694 185.768 133.859 186.133 133.974 186.515C134.623 188.677 134.628 190.73 133.057 192.578C132.085 193.721 131.2 194.94 130.239 196.173ZM281.81 191.484C283.352 190.248 284.868 189.014 286.408 187.809C287.282 187.125 288.158 186.435 289.096 185.85C290.505 184.971 290.867 185.045 292.153 186.17C293.219 187.104 294.274 188.072 295.715 188.377C296.947 188.638 298.191 188.852 299.437 189.026C302.23 189.416 305.074 189.382 307.811 190.237C309.56 190.783 309.622 190.73 310.734 189.159C314.98 183.156 319.701 177.587 325.414 172.909C325.761 172.624 326.084 172.284 326.335 171.913C326.918 171.053 326.763 170.416 325.862 169.91C324.945 169.393 323.972 169.287 322.936 169.538C320.873 170.039 319.075 171.029 317.539 172.468C316.176 173.744 314.865 175.077 313.563 176.417C313.153 176.838 312.821 177.343 312.506 177.843C312.074 178.526 311.733 178.641 311.035 178.174C310.323 177.698 309.641 177.175 308.948 176.667C307.949 175.933 306.843 175.507 305.596 175.442C305.248 175.424 304.897 175.342 304.562 175.24C301.254 174.229 298.405 175.005 295.913 177.364C294.888 178.335 293.778 179.217 292.683 180.112C292.357 180.377 292.004 180.791 291.355 180.245C292.259 179.122 293.282 178.104 294.325 177.125C295.388 176.127 296.472 175.096 297.715 174.364C298.908 173.661 300.317 173.323 301.677 172.806C297.805 170.754 293.878 170.697 289.885 172.081C287.483 172.913 286.612 174.137 286.518 176.708C286.492 177.411 286.577 178.119 286.601 178.824C286.619 179.328 286.669 179.836 286.627 180.336C286.511 181.675 285.952 182.196 284.609 182.316C284.01 182.369 283.36 182.325 282.827 182.549C280.916 183.353 279.319 184.66 277.627 185.83C279.063 187.771 280.403 189.582 281.812 191.487L281.81 191.484ZM116.095 185.366C115.086 185.813 114.065 186.221 113.086 186.706C110.701 187.889 108.835 189.766 106.844 191.471C106.644 191.643 106.606 192.054 106.576 192.361C106.488 193.247 106.03 193.514 105.28 193.039C104.943 192.827 104.649 192.534 104.363 192.252C102.636 190.551 100.917 188.843 99.1959 187.135C98.8533 186.796 98.5137 186.452 98.1741 186.109C98.5789 188.253 99.1959 190.269 99.7993 192.29C101.282 197.249 103.273 201.969 106.168 206.294C108.357 209.564 110.444 212.905 112.574 216.215C114.102 218.591 115.622 220.971 117.161 223.341C117.33 223.6 117.599 223.792 117.775 223.968C118.347 219.808 118.876 215.71 119.481 211.621C120.168 206.978 120.859 202.332 122.663 197.942C122.789 197.636 122.683 197.164 122.537 196.835C122.316 196.333 121.958 195.891 121.67 195.416C119.716 192.188 117.615 189.043 116.094 185.365L116.095 185.366ZM113.6 184.215C108.662 181.575 104.484 178.458 100.897 174.561C100.218 173.823 99.5355 173.06 98.7396 172.461C96.2775 170.609 94.4976 168.165 92.7011 165.727C91.7884 164.488 90.8545 163.267 89.8933 161.989C88.9579 163.151 89.2899 164.34 89.5598 165.43C90.0904 167.583 90.7105 169.72 91.4094 171.825C92.5222 175.177 93.8715 178.32 96.3897 181.032C98.9958 183.84 101.503 186.749 104.202 189.479C104.51 189.792 104.852 190.071 105.265 190.442C107.605 187.839 110.307 185.85 113.602 184.215H113.6ZM261.613 184.933C269.78 189.391 274.468 196.577 278.391 204.349C280.08 203.128 281.818 201.872 283.582 200.597C283.543 200.305 283.535 199.999 283.455 199.714C283.319 199.231 283.156 198.75 282.968 198.283C281.519 194.698 279.504 191.443 277.032 188.486C274.595 185.572 271.662 183.333 267.996 182.117C267.353 181.904 266.841 181.875 266.292 182.192C264.777 183.069 263.27 183.961 261.613 184.933ZM99.5916 288.289C98.6137 286.777 97.6677 286.509 96.42 287.608C94.9555 288.898 93.5031 290.287 92.3888 291.873C89.7508 295.629 87.9937 299.799 87.3767 304.391C87.2099 305.629 87.1129 306.877 87.454 308.072C88.2666 308.279 88.9898 308.53 89.7326 308.643C92.2705 309.033 94.813 309.392 97.3599 309.726C98.3181 309.85 99.1686 309.63 99.6553 308.66C100.509 306.956 101.374 305.258 102.295 303.439C101.471 302.752 100.724 302.127 99.8433 301.394C99.5446 302.045 99.3854 302.523 99.1262 302.937C98.4894 303.954 97.8587 304.984 97.1204 305.925C96.6898 306.475 96.044 306.929 95.2632 306.616C94.4825 306.304 94.4718 305.522 94.3612 304.829C94.3369 304.68 94.3445 304.527 94.3475 304.376C94.4142 301.807 94.4461 299.238 94.5598 296.671C94.722 293.025 95.9303 289.959 99.5916 288.289ZM291.261 169.714C290.764 168.556 290.32 167.448 289.818 166.365C287.943 162.322 283.875 160.334 279.289 160.988C278.655 161.079 278.011 161.315 277.445 161.623C276.393 162.196 275.799 163.112 275.91 164.354C276.013 165.51 276.803 166.237 278.172 166.626C280.758 167.361 282.984 168.697 284.745 170.748C285.196 171.273 285.568 171.863 286.07 172.548C287.339 170.771 289.343 170.524 291.261 169.713V169.714ZM125.054 234.755C130.85 230.768 135.744 225.991 140.492 221.073C139.976 218.952 139.725 218.334 139.084 217.573C133.889 222.44 128.251 226.703 121.92 230.104C122.995 231.7 124.006 233.201 125.054 234.756V234.755ZM143.221 231.498C138.967 236.024 134.409 239.625 129.267 242.596C130.251 243.956 130.877 245.531 132.029 246.914C132.746 244.829 132.745 244.806 134.667 244.608C135.249 244.547 135.718 244.444 136.076 243.92C136.264 243.645 136.614 243.477 136.9 243.274C139.435 241.468 141.972 239.664 144.541 237.836C144.117 235.795 143.711 233.841 143.222 231.498H143.221ZM120.807 217.89C120.951 217.951 121.095 218.012 121.239 218.072C125.933 214.443 130.384 210.539 134.554 206.16C133.891 205.098 133.236 204.047 132.493 202.856C131.376 203.986 130.431 205.022 129.403 205.968C127.184 208.007 125.151 210.286 122.345 211.6C122.116 211.708 121.887 212.022 121.837 212.273C121.468 214.141 121.144 216.018 120.807 217.892V217.89ZM320.183 180.495C318.417 182.058 315.474 185.871 315.004 187.192C315.207 187.216 315.403 187.257 315.599 187.258C318.068 187.275 320.538 187.322 323.008 187.287C324.835 187.261 325.358 186.385 324.598 184.732C323.697 182.777 322.256 181.367 320.183 180.494V180.495ZM321.298 179.164C322.971 181.017 324.519 180.434 326.07 179.484C326.499 179.222 326.963 179.006 327.363 178.706C327.989 178.236 328.575 177.712 329.296 177.111C328.221 175.75 326.962 175.256 325.524 175.125C325.314 175.105 325.029 175.256 324.871 175.418C323.654 176.669 322.457 177.941 321.296 179.164H321.298ZM131.156 191.023C128.697 192.369 126.32 193.874 123.391 194.403C123.867 195.348 124.266 196.142 124.71 197.025C125.948 196.48 127.099 195.989 128.233 195.462C128.439 195.366 128.614 195.143 128.739 194.942C129.534 193.674 130.312 192.396 131.156 191.023ZM305.59 173.1C305.544 173.229 305.497 173.357 305.452 173.486C307.892 173.843 309.988 174.91 311.862 176.525C312.886 175.363 313.791 174.337 314.883 173.098H305.59V173.1ZM99.0504 300.967C98.0103 300.716 97.2083 300.522 96.2669 300.293C96.1926 301.853 96.1274 303.214 96.0485 304.862C97.4949 303.754 97.8314 302.239 99.0488 300.967H99.0504ZM125.295 185.181C122.968 185.45 120.964 185.682 118.855 185.926C119.075 186.537 119.1 187.19 119.869 187.084C121.697 186.831 123.453 186.341 125.293 185.181H125.295ZM89.8918 310.64C89.0261 310.47 88.3712 310.341 87.592 310.187C87.8391 311.751 88.2696 312.981 89.3081 314.313C89.5219 312.972 89.6887 311.915 89.8918 310.638V310.64Z" fill="black"/>
<path d="M237.31 238.438L258.112 222.316L266.434 220.756L404.773 222.316L406.333 229.077L376.689 258.201L237.31 238.438Z" fill="white"/>
<path d="M81.3245 316.022C80.4285 315.96 79.5932 315.818 79.1126 314.96C78.8336 314.462 78.9428 313.985 79.2915 313.562C79.7296 313.03 81.2866 312.654 81.9552 312.905C82.5707 313.137 83.3606 314.476 83.1923 315.131C83.1286 315.378 82.8694 315.663 82.6313 315.755C82.219 315.916 81.7535 315.942 81.3275 316.022H81.3245Z" fill="black"/>
<path d="M74.5674 315.533C73.6077 315.533 72.7693 314.993 72.548 314.235C72.3372 313.518 72.7284 312.751 73.491 312.382C74.3096 311.988 75.1329 312.174 75.7863 312.94C76.1774 313.399 76.6232 313.88 76.3048 314.556C75.9652 315.276 75.3315 315.534 74.5689 315.533H74.5674Z" fill="black"/>
<path d="M61.0655 310.73C62.1525 310.692 63.0409 311.419 63.0697 312.37C63.097 313.268 62.4072 313.941 61.4248 313.976C60.3075 314.015 59.2796 313.19 59.2932 312.264C59.3054 311.447 60.0952 310.762 61.064 310.728L61.0655 310.73Z" fill="black"/>
<path d="M68.0361 314.304C66.9067 314.338 66.0319 313.657 66.0349 312.744C66.038 311.906 66.7869 311.178 67.692 311.137C68.6471 311.093 69.5825 311.933 69.6083 312.859C69.631 313.665 68.9639 314.279 68.0361 314.306V314.304Z" fill="black"/>
<path d="M81.0683 371.414C78.2439 370.896 75.4043 370.444 72.5981 369.836C70.5301 369.389 68.5047 368.745 66.4656 368.171C63.5896 367.362 61.22 365.852 59.6767 363.209C59.5251 362.949 59.3219 362.718 59.1506 362.47C56.8886 359.199 56.7416 358.096 58.1712 354.377C58.5138 353.485 58.9459 352.623 59.3962 351.778C59.7631 351.088 60.3119 350.696 61.1412 351.101C61.2731 351.164 61.4368 351.242 61.5687 351.219C64.287 350.729 66.8886 351.596 69.5114 351.987C76.182 352.984 82.8724 353.358 89.6022 353.021C91.6368 352.92 93.6198 353.05 95.5816 353.626C96.2395 353.819 96.5352 354.175 96.4882 354.804C96.4548 355.252 96.3548 355.706 96.2092 356.131C95.2708 358.849 94.3141 361.563 93.356 364.274C93.1437 364.874 92.7632 365.406 93.1604 366.128C93.2771 366.342 92.9482 367.015 92.6495 367.207C89.1338 369.48 85.4725 371.378 81.0683 371.413V371.414ZM94.0321 354.692C93.2741 354.692 92.6222 354.659 91.9733 354.698C90.5118 354.788 89.0534 354.938 87.5919 355.023C78.7866 355.537 70.0647 355.226 61.6354 352.365C60.6682 354.186 59.7024 356.002 58.667 357.953C59.945 359.897 61.2625 361.866 62.5405 363.861C63.0833 364.707 63.7928 365.333 64.7358 365.628C66.8022 366.272 68.8716 366.916 70.9683 367.45C71.6717 367.629 72.4934 367.618 73.2045 367.45C76.7885 366.605 80.377 365.762 83.9155 364.747C85.6271 364.255 87.2826 364.158 88.9912 364.477C89.8205 364.631 90.6331 364.871 91.3351 365.044C92.2205 361.643 93.0937 358.29 94.0321 354.691V354.692Z" fill="black"/>
<path d="M140.151 155.494C139.211 154.526 139.655 152.939 138.624 151.899C137.983 152.182 137.296 152.469 136.624 152.784C135.49 153.318 134.322 153.794 133.248 154.431C131.52 155.457 129.646 155.612 127.722 155.563C126.159 155.524 124.598 155.425 123.036 155.359C119.667 155.216 116.508 154.291 113.515 152.777C111.954 151.987 110.422 151.139 108.797 150.275C108.062 151.655 108.746 153.398 107.853 155.042C107.509 154.602 107.166 154.366 107.143 154.103C106.973 152.044 107.19 150.024 107.762 147.78C108.456 148.144 108.937 148.363 109.384 148.638C110.589 149.375 111.755 150.177 112.981 150.874C115.149 152.108 117.422 152.986 119.981 153.059C122.196 153.121 124.404 153.426 126.618 153.511C130.556 153.659 134.173 152.472 137.636 150.704C139.244 149.883 139.485 149.969 140.195 151.672C140.503 152.41 140.763 153.192 140.886 153.977C140.959 154.447 140.725 154.966 140.63 155.463C140.471 155.474 140.312 155.483 140.152 155.494H140.151Z" fill="black"/>
<path d="M107.304 110.778C108.009 110.819 108.723 110.943 109.419 110.884C111.512 110.705 113.247 111.669 114.969 112.601C116.095 113.212 116.446 114.484 116.951 115.564C117.213 116.125 116.629 116.599 115.97 116.395C114.581 115.964 113.16 115.587 111.843 114.991C110.892 114.56 109.96 114.316 108.94 114.309C106.728 114.295 104.514 114.225 102.305 114.292C101.262 114.324 100.228 114.636 99.1853 114.78C98.6562 114.853 98.0316 115.033 97.7936 114.278C97.6298 113.761 98.0468 112.973 98.6714 112.676C99.6705 112.2 100.736 111.846 101.691 111.296C103.506 110.252 105.415 110.74 107.304 110.776V110.778Z" fill="black"/>
<path d="M141.054 112.266C144.566 112.724 147.936 113.561 150.393 116.432C150.712 116.804 150.977 117.261 151.119 117.725C151.198 117.982 151.051 118.409 150.853 118.614C150.731 118.738 150.295 118.653 150.049 118.547C148.491 117.874 146.97 117.11 145.392 116.488C143.786 115.856 142.067 115.617 140.36 115.709C139.387 115.762 138.448 116.271 137.472 116.47C135.903 116.79 134.32 117.052 132.736 117.28C132.201 117.357 131.902 116.838 132.228 116.362C133.115 115.068 134.138 113.8 135.621 113.253C137.335 112.619 139.076 111.776 141.053 112.268L141.054 112.266Z" fill="black"/>
<path d="M110.021 124.423C108.7 124.194 106.884 124.006 105.146 123.53C104.009 123.218 102.881 122.63 101.94 121.914C100.309 120.674 100.404 118.882 102.134 117.806C103.056 117.231 104.134 116.81 105.198 116.579C108.264 115.915 111.335 116.095 114.326 117.014C115.322 117.32 116.303 117.816 117.154 118.421C119.07 119.783 118.982 121.769 116.935 122.898C115.939 123.448 114.796 123.791 113.679 124.049C112.656 124.284 111.578 124.278 110.024 124.425L110.021 124.423ZM113.787 117.892C111.302 117.148 108.852 116.96 106.387 117.364C105.254 117.551 104.099 117.857 103.073 118.354C101.402 119.164 101.311 120.491 102.889 121.452C106.349 123.558 110.112 123.653 113.879 123.006C113.773 122.043 113.63 121.264 113.617 120.481C113.603 119.679 113.717 118.876 113.788 117.892H113.787Z" fill="black"/>
<path d="M139.508 126.725C137.501 126.518 135.543 126.319 133.727 125.478C132.962 125.123 132.213 124.671 131.565 124.131C130.218 123.009 130.225 121.334 131.594 120.243C132.21 119.751 132.953 119.342 133.705 119.11C137.31 117.996 140.874 118.223 144.322 119.741C145.037 120.056 145.719 120.568 146.261 121.139C147.343 122.28 147.254 123.72 146.026 124.71C145.375 125.235 144.587 125.69 143.788 125.908C142.392 126.29 140.939 126.464 139.51 126.727L139.508 126.725ZM143.568 120.393C140.157 119.253 136.782 118.945 133.372 120.264C133.003 120.406 132.643 120.62 132.331 120.867C131.339 121.646 131.239 122.615 132.205 123.407C132.93 123.999 133.795 124.491 134.676 124.807C137.043 125.656 139.499 125.781 141.978 125.38C142.358 125.318 142.725 125.176 143.11 125.067C143.26 123.532 143.401 122.091 143.568 120.393Z" fill="black"/>
<path d="M109.602 176.25C110.486 175.542 110.947 176.032 111.426 176.222C113.856 177.184 116.238 178.299 118.723 179.087C119.915 179.464 121.338 179.466 122.584 179.237C124.705 178.849 126.776 178.17 128.853 177.56C129.47 177.38 130.021 176.975 130.633 176.77C130.912 176.678 131.378 176.705 131.57 176.883C131.916 177.199 131.625 177.525 131.309 177.735C130.858 178.035 130.424 178.426 129.921 178.574C127.651 179.248 125.385 179.953 123.073 180.447C120.864 180.918 118.652 180.611 116.575 179.701C114.681 178.872 112.827 177.953 110.964 177.057C110.542 176.854 110.154 176.581 109.601 176.25H109.602Z" fill="black"/>
<path d="M117.025 139.03C118.348 138 119.904 138.054 120.871 139.146C121.3 139.629 121.678 140.186 121.964 140.765C122.346 141.54 122.151 142.645 121.672 143.012C121.083 143.462 119.807 143.335 119.162 142.69C118.154 141.681 117.396 140.509 117.025 139.029V139.03Z" fill="black"/>
<path d="M102.574 149.665C102.524 147.485 103.606 145.905 105.331 144.756C105.886 144.388 106.638 144.28 107.317 144.145C107.719 144.065 108.23 144.213 108.176 144.724C108.142 145.035 107.769 145.535 107.513 145.559C105.609 145.741 104.919 147.129 104.401 148.634C104.213 149.178 104.3 149.827 104.307 150.428C104.311 150.931 104.449 151.484 103.787 151.674C103.294 151.815 102.692 151.257 102.581 150.57C102.534 150.276 102.574 149.967 102.574 149.665Z" fill="black"/>
<path d="M113.611 137.504C114.218 137.828 114.652 137.986 114.993 138.262C115.372 138.566 115.772 138.93 115.959 139.359C116.07 139.612 115.877 140.134 115.648 140.354C115.495 140.502 114.984 140.431 114.726 140.289C114.175 139.981 113.697 139.543 113.163 139.197C112.198 138.569 111.861 137.12 112.618 136.145C113.194 135.402 113.946 134.788 114.67 134.174C114.829 134.039 115.199 134.152 115.472 134.15C115.465 134.424 115.551 134.756 115.428 134.96C115.172 135.383 114.781 135.722 114.485 136.125C114.197 136.518 113.961 136.946 113.609 137.504H113.611Z" fill="black"/>
<path d="M102.753 123.696C102.988 123.728 116.934 124.449 116.994 124.443C117.248 124.877 117.044 125.089 116.623 125.175C114.913 125.524 113.21 126.097 111.49 126.156C108.841 126.246 106.197 125.897 103.715 124.805C103.259 124.604 102.774 124.467 102.753 123.697V123.696Z" fill="black"/>
<path d="M132.019 142.665C132.241 142.113 132.422 141.76 132.526 141.385C132.842 140.259 132.705 139.241 131.914 138.294C131.151 137.38 130.509 136.367 129.816 135.404C130.872 134.608 131.023 134.59 131.52 135.253C132.155 136.097 132.74 136.978 133.374 137.822C133.926 138.558 134.168 139.31 133.791 140.216C133.618 140.629 133.553 141.091 133.479 141.537C133.363 142.24 132.945 142.569 132.017 142.665H132.019Z" fill="black"/>
<path d="M131.828 125.862C132.266 125.921 132.516 125.9 132.716 125.991C134.846 126.96 137.138 127.104 139.406 127.472C141.347 127.788 143.022 127.419 144.716 126.619C145.023 126.473 145.425 126.526 145.783 126.488C145.815 126.582 145.847 126.678 145.879 126.772C145.672 126.937 145.49 127.16 145.255 127.26C143.31 128.092 141.405 128.808 139.173 128.106C137.718 127.648 136.111 127.685 134.578 127.457C133.55 127.304 132.555 127.042 131.829 125.862H131.828Z" fill="black"/>
<path d="M141.852 151.155C142.14 147.844 140.251 146.569 137.396 146.257C137.44 145.541 137.847 145.304 138.388 145.242C140.939 144.95 143.347 147.609 142.757 150.086C142.672 150.442 142.416 150.758 142.239 151.091C142.11 151.113 141.981 151.134 141.852 151.155Z" fill="black"/>
<path d="M120.495 144.364C120.287 144.787 120.107 145.171 119.911 145.545C119.196 146.917 118.682 148.289 119.638 149.786C119.743 149.948 119.625 150.406 119.458 150.544C119.291 150.682 118.853 150.701 118.68 150.574C118.374 150.348 118.098 150.005 117.953 149.654C117.381 148.282 117.978 145.609 119.038 144.582C119.328 144.302 119.814 144.228 120.495 144.363V144.364Z" fill="black"/>
<path d="M124.093 145.659C124.202 145.936 124.352 146.124 124.329 146.287C124.123 147.765 124.711 149.046 125.293 150.331C125.334 150.422 125.395 150.507 125.43 150.6C125.597 151.059 125.965 151.615 125.331 151.917C124.714 152.211 124.453 151.619 124.234 151.177C123.597 149.898 122.554 148.755 122.855 147.148C122.98 146.485 123.131 145.862 124.093 145.659Z" fill="black"/>
<path d="M130.01 143.023C129.114 143.021 128.697 142.72 128.485 142.131C128.283 141.572 128.477 141.122 128.944 140.823C129.534 140.445 130.133 140.039 130.788 139.827C131.12 139.719 131.662 139.912 131.949 140.157C132.084 140.273 131.917 140.876 131.747 141.181C131.482 141.658 131.13 142.101 130.753 142.5C130.5 142.768 130.139 142.936 130.01 143.024V143.023Z" fill="black"/>
</g>
<rect x="313" y="296" width="114" height="48" fill="url(#paint0_linear_53_19)"/>
<path d="M110.981 72.6761L112.115 71.5493L128 27.6056L107.01 0L69 16.9014L91.125 80L95.6635 77.1831L107.01 72.6761H110.981Z" fill="white"/>
<mask id="path-29-inside-1_53_19" fill="white">
<path d="M409.366 51.6874C405.589 44.3993 408.415 35.3469 416.067 32.3755C445.268 21.0355 477.624 19.9182 507.763 29.4831C542.648 40.5543 571.706 65.03 588.545 97.5259C605.384 130.022 608.624 167.876 597.553 202.761C587.988 232.9 568.418 258.69 542.314 276.008C535.474 280.546 526.449 277.635 522.672 270.347L504.603 235.476C500.826 228.188 503.814 219.326 510.126 214.079C520.198 205.707 527.762 194.567 531.786 181.889C537.321 164.447 535.701 145.519 527.282 129.272C518.862 113.024 504.333 100.786 486.891 95.2501C474.212 91.2265 460.75 90.9835 448.102 94.3842C440.175 96.5156 431.212 93.8461 427.435 86.558L409.366 51.6874Z"/>
</mask>
<path d="M409.366 51.6874C405.589 44.3993 408.415 35.3469 416.067 32.3755C445.268 21.0355 477.624 19.9182 507.763 29.4831C542.648 40.5543 571.706 65.03 588.545 97.5259C605.384 130.022 608.624 167.876 597.553 202.761C587.988 232.9 568.418 258.69 542.314 276.008C535.474 280.546 526.449 277.635 522.672 270.347L504.603 235.476C500.826 228.188 503.814 219.326 510.126 214.079C520.198 205.707 527.762 194.567 531.786 181.889C537.321 164.447 535.701 145.519 527.282 129.272C518.862 113.024 504.333 100.786 486.891 95.2501C474.212 91.2265 460.75 90.9835 448.102 94.3842C440.175 96.5156 431.212 93.8461 427.435 86.558L409.366 51.6874Z" fill="url(#paint1_linear_53_19)" stroke="white" stroke-width="11.8901" mask="url(#path-29-inside-1_53_19)"/>
<path opacity="0.7" d="M362.028 247.148C351.567 234.517 343.467 220.053 338.166 204.447C331.302 184.239 329.325 162.691 332.399 141.571C335.473 120.451 343.509 100.361 355.849 82.9473C365.379 69.4999 377.265 57.9448 390.893 48.82C396.064 45.3573 403.18 47.4031 406.271 53.3071L424.487 88.1012C427.479 93.8156 425.302 101.234 419.778 105.865C415.071 109.812 410.872 114.358 407.296 119.405C400.718 128.686 396.435 139.395 394.796 150.652C393.158 161.91 394.211 173.395 397.87 184.167C399.859 190.023 402.588 195.578 405.975 200.703C409.95 206.716 409.922 214.447 405.425 219.072L378.047 247.23C373.401 252.008 365.998 251.941 362.028 247.148Z" fill="#B358FB" stroke="white" stroke-width="5.94505"/>
<g opacity="0.8">
<mask id="path-31-inside-2_53_19" fill="white">
<path d="M522.67 270.348C526.447 277.636 523.621 286.688 515.97 289.66C498.106 296.596 478.99 299.737 459.847 298.88C451.646 298.513 446.073 290.84 447.319 282.727L453.283 243.908C454.53 235.795 462.167 230.398 470.359 229.881C474.947 229.592 479.495 228.845 483.935 227.651C491.862 225.52 500.824 228.19 504.601 235.478L522.67 270.348Z"/>
</mask>
<path d="M522.67 270.348C526.447 277.636 523.621 286.688 515.97 289.66C498.106 296.596 478.99 299.737 459.847 298.88C451.646 298.513 446.073 290.84 447.319 282.727L453.283 243.908C454.53 235.795 462.167 230.398 470.359 229.881C474.947 229.592 479.495 228.845 483.935 227.651C491.862 225.52 500.824 228.19 504.601 235.478L522.67 270.348Z" fill="url(#paint2_linear_53_19)" stroke="white" stroke-width="11.8901" mask="url(#path-31-inside-2_53_19)"/>
</g>
<g opacity="0.8">
<mask id="path-32-inside-3_53_19" fill="white">
<path d="M451.35 283.278C450.372 291.428 442.943 297.322 434.946 295.474C416.179 291.138 398.525 282.918 383.126 271.349C376.563 266.418 376.291 256.939 381.899 250.944L408.728 222.263C414.336 216.268 423.687 216.122 430.741 220.319C434.734 222.694 438.957 224.66 443.345 226.187C451.098 228.884 457.006 236.134 456.028 244.284L451.35 283.278Z"/>
</mask>
<path d="M451.35 283.278C450.372 291.428 442.943 297.322 434.946 295.474C416.179 291.138 398.525 282.918 383.126 271.349C376.563 266.418 376.291 256.939 381.899 250.944L408.728 222.263C414.336 216.268 423.687 216.122 430.741 220.319C434.734 222.694 438.957 224.66 443.345 226.187C451.098 228.884 457.006 236.134 456.028 244.284L451.35 283.278Z" fill="url(#paint3_linear_53_19)" stroke="white" stroke-width="11.8901" mask="url(#path-32-inside-3_53_19)"/>
</g>
<defs>
<linearGradient id="paint0_linear_53_19" x1="501.1" y1="306.8" x2="254.29" y2="306.8" gradientUnits="userSpaceOnUse">
<stop offset="0.457715" stop-color="white"/>
<stop offset="0.733534" stop-color="white" stop-opacity="0"/>
</linearGradient>
<linearGradient id="paint1_linear_53_19" x1="510.334" y1="139.766" x2="161.797" y2="-445.944" gradientUnits="userSpaceOnUse">
<stop stop-color="#1B59F8"/>
<stop offset="1" stop-color="#1B59F8" stop-opacity="0"/>
</linearGradient>
<linearGradient id="paint2_linear_53_19" x1="421.702" y1="182.27" x2="770.239" y2="767.98" gradientUnits="userSpaceOnUse">
<stop stop-color="#24FF00"/>
<stop offset="1" stop-color="#58FD41" stop-opacity="0"/>
</linearGradient>
<linearGradient id="paint3_linear_53_19" x1="421.702" y1="182.27" x2="770.239" y2="767.98" gradientUnits="userSpaceOnUse">
<stop stop-color="#FF0000"/>
<stop offset="1" stop-color="#1B59F8" stop-opacity="0.46"/>
</linearGradient>
</defs>
</svg>
