<svg width="48" height="39" viewBox="0 0 48 39" fill="none" xmlns="http://www.w3.org/2000/svg">
<path d="M15.1003 39C33.2091 39 43.1166 23.994 43.1166 10.9848C43.1166 10.5629 43.1072 10.1317 43.0884 9.70983C45.0158 8.31608 46.679 6.58973 48 4.61189C46.205 5.41047 44.2993 5.93201 42.3478 6.15871C44.4026 4.9271 45.9411 2.9923 46.6781 0.712972C44.7451 1.85851 42.6312 2.66659 40.4269 3.10257C38.9417 1.52453 36.978 0.47968 34.8394 0.129562C32.7008 -0.220556 30.5064 0.14356 28.5955 1.16561C26.6846 2.18767 25.1636 3.81074 24.2677 5.78387C23.3718 7.75701 23.1509 9.97033 23.6391 12.0816C19.725 11.8852 15.8959 10.8685 12.4 9.09733C8.90405 7.32618 5.81939 4.84016 3.34594 1.80043C2.0888 3.96781 1.70411 6.53251 2.27006 8.97332C2.83601 11.4141 4.31013 13.5479 6.39281 14.9409C4.82926 14.8912 3.29995 14.4703 1.93125 13.7128V13.8347C1.92985 16.1092 2.7162 18.314 4.15662 20.0743C5.59704 21.8346 7.60265 23.0417 9.8325 23.4906C8.38411 23.8868 6.86396 23.9446 5.38969 23.6593C6.01891 25.6154 7.24315 27.3262 8.89154 28.5531C10.5399 29.7799 12.5302 30.4615 14.5847 30.5028C11.0968 33.2425 6.78835 34.7284 2.35313 34.7214C1.56657 34.7202 0.780798 34.672 0 34.577C4.50571 37.4676 9.74706 39.0028 15.1003 39Z" fill="#168EEA"/>
</svg>
