<svg width="2389" height="316" viewBox="0 0 2389 316" fill="none" xmlns="http://www.w3.org/2000/svg">
<path d="M330.952 252L277.23 48.7283H317.014L353.602 210.475L396.58 48.7283H437.525L479.341 210.475L515.929 48.7283H556.003L500.829 252H456.69L416.326 101.289L374.801 252H330.952ZM628.028 255.485C613.509 255.485 600.635 252.387 589.407 246.192C578.178 239.997 569.37 231.286 562.981 220.057C556.593 208.829 553.399 195.858 553.399 181.145C553.399 166.239 556.496 152.978 562.691 141.362C569.079 129.747 577.791 120.745 588.826 114.356C600.054 107.774 613.218 104.483 628.319 104.483C642.451 104.483 654.938 107.58 665.779 113.775C676.62 119.97 685.041 128.488 691.042 139.329C697.237 149.977 700.335 161.883 700.335 175.047C700.335 177.177 700.238 179.403 700.045 181.726C700.045 184.049 699.948 186.469 699.754 188.986H590.278C591.052 200.214 594.924 209.023 601.893 215.411C609.056 221.8 617.671 224.994 627.738 224.994C635.288 224.994 641.58 223.348 646.613 220.057C651.84 216.573 655.712 212.12 658.229 206.699H695.979C693.269 215.798 688.719 224.123 682.331 231.673C676.136 239.029 668.392 244.837 659.1 249.096C650.001 253.355 639.644 255.485 628.028 255.485ZM628.319 134.683C619.22 134.683 611.186 137.297 604.216 142.524C597.247 147.557 592.795 155.301 590.859 165.755H662.584C662.004 156.269 658.519 148.719 652.13 143.104C645.742 137.49 637.805 134.683 628.319 134.683ZM808.259 255.485C797.418 255.485 787.932 253.452 779.801 249.387C771.671 245.321 765.088 239.61 760.055 232.254L755.99 252H722.885V42.9206H760.055V128.585C764.701 122.197 770.799 116.582 778.349 111.743C786.093 106.903 796.063 104.483 808.259 104.483C821.811 104.483 833.91 107.774 844.558 114.356C855.206 120.938 863.627 129.94 869.822 141.362C876.017 152.784 879.114 165.755 879.114 180.274C879.114 194.794 876.017 207.764 869.822 219.186C863.627 230.414 855.206 239.32 844.558 245.902C833.91 252.29 821.811 255.485 808.259 255.485ZM800.419 222.961C812.228 222.961 822.004 218.993 829.748 211.055C837.492 203.118 841.364 192.858 841.364 180.274C841.364 167.691 837.492 157.333 829.748 149.203C822.004 141.072 812.228 137.006 800.419 137.006C788.416 137.006 778.543 141.072 770.799 149.203C763.249 157.14 759.474 167.4 759.474 179.984C759.474 192.567 763.249 202.924 770.799 211.055C778.543 218.993 788.416 222.961 800.419 222.961ZM970.977 255.485C957.619 255.485 945.519 253.162 934.678 248.515C923.837 243.676 915.125 236.319 908.543 226.446C901.961 216.573 898.476 204.183 898.089 189.276H934.678C934.872 199.149 938.066 207.474 944.261 214.25C950.649 220.832 959.555 224.123 970.977 224.123C981.818 224.123 990.142 221.122 995.95 215.121C1001.76 209.119 1004.66 201.569 1004.66 192.47C1004.66 181.823 1000.79 173.789 993.046 168.368C985.496 162.754 975.72 159.947 963.717 159.947H948.617V129.456H964.007C973.88 129.456 982.108 127.133 988.69 122.487C995.272 117.841 998.563 110.968 998.563 101.869C998.563 94.3193 996.047 88.3179 991.013 83.8653C986.174 79.2191 979.398 76.896 970.686 76.896C961.2 76.896 953.747 79.7031 948.326 85.3173C943.099 90.9314 940.195 97.8039 939.615 105.935H903.316C904.091 87.1564 910.576 72.3466 922.772 61.5054C935.162 50.6643 951.133 45.2437 970.686 45.2437C984.625 45.2437 996.337 47.7604 1005.82 52.7938C1015.5 57.6336 1022.76 64.1189 1027.6 72.2498C1032.64 80.3806 1035.15 89.3827 1035.15 99.2559C1035.15 110.678 1031.96 120.357 1025.57 128.295C1019.37 136.038 1011.63 141.265 1002.34 143.976C1013.76 146.299 1023.05 151.913 1030.22 160.818C1037.38 169.53 1040.96 180.565 1040.96 193.922C1040.96 205.151 1038.25 215.411 1032.83 224.704C1027.41 233.996 1019.47 241.449 1009.02 247.063C998.757 252.678 986.077 255.485 970.977 255.485ZM1068.75 252V48.7283H1143.96C1160.22 48.7283 1173.68 51.4386 1184.33 56.8592C1194.97 62.2798 1202.91 69.7331 1208.14 79.2191C1213.36 88.7051 1215.98 99.3527 1215.98 111.162C1215.98 122.39 1213.46 132.747 1208.43 142.233C1203.39 151.526 1195.55 159.076 1184.91 164.884C1174.26 170.498 1160.61 173.305 1143.96 173.305H1105.92V252H1068.75ZM1105.92 143.104H1141.64C1154.61 143.104 1163.9 140.297 1169.52 134.683C1175.32 128.875 1178.23 121.035 1178.23 111.162C1178.23 101.095 1175.32 93.2545 1169.52 87.6403C1163.9 81.8326 1154.61 78.9287 1141.64 78.9287H1105.92V143.104ZM1276.14 255.485C1263.75 255.485 1253.58 253.549 1245.65 249.677C1237.71 245.611 1231.81 240.288 1227.93 233.706C1224.06 227.123 1222.13 219.864 1222.13 211.926C1222.13 198.569 1227.35 187.727 1237.81 179.403C1248.26 171.079 1263.94 166.916 1284.85 166.916H1321.44V163.432C1321.44 153.558 1318.63 146.299 1313.02 141.653C1307.4 137.006 1300.43 134.683 1292.11 134.683C1284.56 134.683 1277.98 136.522 1272.36 140.201C1266.75 143.685 1263.26 148.912 1261.91 155.882H1225.61C1226.58 145.428 1230.06 136.329 1236.06 128.585C1242.26 120.841 1250.2 114.937 1259.88 110.871C1269.56 106.612 1280.4 104.483 1292.4 104.483C1312.92 104.483 1329.09 109.613 1340.89 119.873C1352.7 130.134 1358.61 144.653 1358.61 163.432V252H1326.96L1323.47 228.769C1319.21 236.513 1313.21 242.901 1305.47 247.935C1297.92 252.968 1288.14 255.485 1276.14 255.485ZM1284.56 226.446C1295.21 226.446 1303.43 222.961 1309.24 215.992C1315.24 209.023 1319.02 200.408 1320.57 190.147H1288.92C1279.04 190.147 1271.98 191.986 1267.72 195.665C1263.46 199.149 1261.33 203.505 1261.33 208.732C1261.33 214.346 1263.46 218.702 1267.72 221.8C1271.98 224.897 1277.59 226.446 1284.56 226.446ZM1398.55 315.885L1431.94 242.417H1423.23L1367.19 107.968H1407.55L1447.92 209.313L1490.02 107.968H1529.52L1438.04 315.885H1398.55ZM1545.1 252V107.968H1577.92L1581.11 127.424C1585.76 120.454 1591.86 114.937 1599.41 110.871C1607.15 106.612 1616.05 104.483 1626.12 104.483C1648.38 104.483 1664.16 113.098 1673.45 130.327C1678.68 122.39 1685.65 116.098 1694.36 111.452C1703.27 106.806 1712.95 104.483 1723.4 104.483C1742.18 104.483 1756.6 110.097 1766.67 121.325C1776.74 132.554 1781.77 149.009 1781.77 170.691V252H1744.6V174.176C1744.6 161.786 1742.18 152.3 1737.34 145.718C1732.69 139.136 1725.43 135.845 1715.56 135.845C1705.49 135.845 1697.36 139.523 1691.17 146.88C1685.17 154.236 1682.17 164.496 1682.17 177.661V252H1645V174.176C1645 161.786 1642.58 152.3 1637.74 145.718C1632.9 139.136 1625.44 135.845 1615.38 135.845C1605.5 135.845 1597.47 139.523 1591.27 146.88C1585.27 154.236 1582.27 164.496 1582.27 177.661V252H1545.1ZM1878.33 255.485C1863.81 255.485 1850.94 252.387 1839.71 246.192C1828.48 239.997 1819.67 231.286 1813.28 220.057C1806.89 208.829 1803.7 195.858 1803.7 181.145C1803.7 166.239 1806.8 152.978 1812.99 141.362C1819.38 129.747 1828.09 120.745 1839.13 114.356C1850.36 107.774 1863.52 104.483 1878.62 104.483C1892.75 104.483 1905.24 107.58 1916.08 113.775C1926.92 119.97 1935.34 128.488 1941.34 139.329C1947.54 149.977 1950.64 161.883 1950.64 175.047C1950.64 177.177 1950.54 179.403 1950.35 181.726C1950.35 184.049 1950.25 186.469 1950.06 188.986H1840.58C1841.35 200.214 1845.23 209.023 1852.2 215.411C1859.36 221.8 1867.97 224.994 1878.04 224.994C1885.59 224.994 1891.88 223.348 1896.92 220.057C1902.14 216.573 1906.01 212.12 1908.53 206.699H1946.28C1943.57 215.798 1939.02 224.123 1932.63 231.673C1926.44 239.029 1918.69 244.837 1909.4 249.096C1900.3 253.355 1889.95 255.485 1878.33 255.485ZM1878.62 134.683C1869.52 134.683 1861.49 137.297 1854.52 142.524C1847.55 147.557 1843.1 155.301 1841.16 165.755H1912.89C1912.31 156.269 1908.82 148.719 1902.43 143.104C1896.04 137.49 1888.11 134.683 1878.62 134.683ZM1973.19 252V107.968H2006L2008.91 132.36C2013.36 123.842 2019.75 117.066 2028.07 112.033C2036.59 107 2046.56 104.483 2057.98 104.483C2075.79 104.483 2089.63 110.097 2099.51 121.325C2109.38 132.554 2114.32 149.009 2114.32 170.691V252H2077.15V174.176C2077.15 161.786 2074.63 152.3 2069.6 145.718C2064.56 139.136 2056.72 135.845 2046.07 135.845C2035.62 135.845 2027.01 139.523 2020.23 146.88C2013.65 154.236 2010.36 164.496 2010.36 177.661V252H1973.19ZM2205.32 252C2190.22 252 2178.12 248.322 2169.02 240.965C2159.93 233.609 2155.38 220.541 2155.38 201.763V139.039H2130.69V107.968H2155.38L2159.73 69.3459H2192.55V107.968H2231.46V139.039H2192.55V202.053C2192.55 209.023 2194 213.862 2196.9 216.573C2200 219.089 2205.23 220.348 2212.58 220.348H2230.59V252H2205.32ZM2314.19 255.485C2301.41 255.485 2290.18 253.452 2280.5 249.387C2270.82 245.127 2263.08 239.32 2257.27 231.963C2251.47 224.607 2247.98 216.089 2246.82 206.409H2284.28C2285.44 212.023 2288.54 216.863 2293.57 220.928C2298.8 224.8 2305.48 226.736 2313.61 226.736C2321.74 226.736 2327.64 225.091 2331.32 221.8C2335.19 218.509 2337.13 214.734 2337.13 210.475C2337.13 204.28 2334.42 200.117 2329 197.988C2323.58 195.665 2316.03 193.438 2306.35 191.309C2300.15 189.954 2293.86 188.308 2287.47 186.372C2281.08 184.436 2275.18 182.016 2269.76 179.113C2264.53 176.015 2260.27 172.143 2256.98 167.497C2253.69 162.657 2252.05 156.753 2252.05 149.783C2252.05 137.006 2257.08 126.262 2267.15 117.55C2277.41 108.839 2291.73 104.483 2310.12 104.483C2327.16 104.483 2340.71 108.451 2350.78 116.389C2361.04 124.326 2367.14 135.264 2369.07 149.203H2333.94C2331.81 138.555 2323.77 133.231 2309.83 133.231C2302.86 133.231 2297.44 134.586 2293.57 137.297C2289.89 140.007 2288.05 143.395 2288.05 147.46C2288.05 151.719 2290.86 155.107 2296.48 157.624C2302.09 160.141 2309.54 162.464 2318.84 164.593C2328.9 166.916 2338.1 169.53 2346.42 172.434C2354.94 175.144 2361.72 179.306 2366.75 184.92C2371.78 190.341 2374.3 198.181 2374.3 208.442C2374.49 217.347 2372.17 225.381 2367.33 232.544C2362.49 239.707 2355.52 245.321 2346.42 249.387C2337.32 253.452 2326.58 255.485 2314.19 255.485Z" fill="black"/>
<circle cx="99.0063" cy="219.032" r="55.475" fill="black"/>
<circle cx="160.263" cy="127.73" r="43.9178" fill="black"/>
<circle cx="73.5819" cy="68.7874" r="39.2948" fill="black"/>
<circle cx="50.4681" cy="140.443" r="23.1146" fill="black"/>
</svg>
