<svg width="211" height="211" viewBox="0 0 211 211" fill="none" xmlns="http://www.w3.org/2000/svg">
<path d="M105.385 1.20394e-06C163.732 -0.00871333 211.135 47.2927 210.994 105.651C210.855 163.612 164.278 210.823 105.52 210.965C47.3156 211.106 -0.0272212 163.609 1.1743e-05 105.445C0.0272447 47.3471 47.3384 0.00762642 105.386 1.20394e-06H105.385ZM132.723 68.8579C135.523 66.1509 138.08 63.6782 140.686 61.1575C140.245 60.9789 139.903 60.8405 139.502 60.6782C140.256 60.029 140.87 59.5007 141.413 59.0322C140.284 57.9397 139.294 56.9811 138.277 55.9952C138.768 55.1989 139.118 54.6314 139.475 54.0519C139.888 54.0519 140.222 53.9626 140.479 54.0661C142.06 54.7022 143.577 54.5181 145.165 53.9985C146.08 53.699 147.12 53.7959 148.096 53.6586C148.996 53.5323 149.885 53.334 150.778 53.1663C150.838 53.3297 150.898 53.4942 150.956 53.6576C149.987 54.3166 149.017 54.9756 147.906 55.7305C148.522 58.5148 146.695 60.8808 146.401 63.5006C145.728 64.1161 145.124 64.6684 144.537 65.2054C144.759 65.7413 144.911 66.1052 144.906 66.0965C143.889 67.2315 143.065 68.1498 142.242 69.0681C142.293 69.1204 142.344 69.1727 142.394 69.2261C141.743 69.6041 141.092 69.9821 140.317 70.4319C140.21 71.0387 140.098 71.677 139.986 72.3165C140.221 72.1563 140.456 71.9973 140.692 71.8372C141.625 72.8165 142.559 73.7947 143.494 74.774C143.353 74.9439 143.211 75.1138 143.071 75.2838C143.59 75.2565 144.111 75.2293 144.338 75.2173C145.571 75.9156 146.589 76.4918 147.731 77.1378C148.548 74.7957 150.802 75.3339 152.113 74.3633C152.478 73.417 152.475 72.5619 152.103 71.798C151.111 72.2729 150.115 72.75 148.929 73.3176C148.646 72.628 148.437 72.1215 148.254 71.677C149.69 69.6193 152.733 68.7402 151.815 65.8307C152.293 64.8329 152.654 64.0801 153.024 63.3056C151.747 59.6804 152.868 56.2218 153.48 52.3264V49.4931C152.936 48.6315 152.429 47.8297 151.932 47.0443C151.239 46.699 150.528 46.3472 150.02 46.0933C150.117 44.8864 150.186 44.0095 150.242 43.321C149.073 41.8962 147.137 41.5858 146.84 39.7187C147.035 39.1315 147.232 38.5411 147.492 37.7601C145.452 37.9518 143.846 38.3897 142.635 39.8831C141.686 41.0531 140.613 42.1228 139.494 43.3483C139.41 43.87 139.304 44.528 139.197 45.1849C138.13 45.6435 137.26 46.2524 136.755 47.0835C135.174 49.6826 133.71 52.3536 132.246 55.0203C131.698 56.0181 131.366 57.139 130.772 58.1041C129.962 59.4211 129.744 60.7632 130.062 62.1869C130.588 62.5758 131.05 62.9178 131.654 63.3645C131.088 64.5965 130.566 65.7359 129.842 67.3121C129.153 66.3416 128.75 65.7424 128.315 65.1673C127.767 64.4429 127.242 63.6934 126.623 63.0322C125.535 61.8699 124.296 60.8394 123.285 59.6172C122.346 58.4843 121.354 57.9843 119.899 58.407C119.098 58.6401 118.255 58.7708 117.423 58.8362C116.704 58.8928 115.973 58.7915 115.279 58.761C114.779 57.407 114.516 56.1368 113.028 55.785C112.428 55.9506 111.778 56.1303 111.225 56.2839C110.616 56.066 110.122 55.8896 109.792 55.7708C107.873 56.517 106.12 57.2 104.503 57.8286C103.729 57.3798 103.217 57.0835 102.617 56.7349C101.805 57.1564 101.013 57.5693 100.4 57.8885C100.032 58.8939 99.7574 59.6434 99.4241 60.5518C98.7607 60.1096 98.2858 59.7937 97.605 59.3405C97.0363 60.2926 96.5145 61.1651 95.9459 62.1172C94.6714 62.2381 93.3436 62.3645 91.6431 62.5257C91.4536 62.761 90.9514 63.2381 90.6235 63.8143C88.7347 67.1346 86.849 70.4777 85.946 74.2217C85.336 76.7478 83.6573 78.2031 81.5179 79.5506C81.1051 78.7729 80.7565 78.1138 80.4319 77.5005C79.8295 77.0975 79.275 76.7271 78.4515 76.177C80.1127 74.0452 81.1236 71.6324 82.8273 69.6596C83.4297 70.1041 83.8044 70.3807 84.5854 70.9581C84.3512 67.4254 86.0658 65.0126 87.4765 62.5137C88.5516 60.6096 89.9492 58.8885 91.0745 57.0094C93.0636 53.6892 91.1976 49.8025 87.3229 49.2916C84.9896 48.9833 82.616 48.9713 80.4308 48.8373C78.2467 50.3972 76.25 51.8373 76.3753 54.8177C72.6411 56.1183 69.493 58.2294 66.3993 60.4342C66.0954 60.651 65.6912 60.725 65.3764 60.9309C64.3013 61.6335 63.1717 62.2795 62.2011 63.1085C60.9854 64.1466 59.8634 65.3045 58.7828 66.4864C58.127 67.2043 57.4277 67.9908 57.1009 68.8764C56.3253 70.9842 55.7599 73.1694 55.0312 75.579C54.3471 75.7805 53.419 76.055 52.7981 76.238C50.5138 78.5463 48.4528 80.6301 46.5378 82.5658C46.4822 83.4841 46.4463 84.0833 46.4419 84.1464C45.625 85.4623 44.8951 86.2859 44.5574 87.2477C43.2949 90.8436 42.1555 94.4819 40.9834 98.1082C40.5128 99.5657 40.1903 101.036 40.8222 102.53C41.9028 103.016 42.9191 103.473 43.9354 103.93L43.7709 104.397C42.8145 104.116 41.857 103.835 40.6991 103.494C40.5171 104.092 40.3668 104.586 40.1784 105.208C41.9627 105.497 43.7851 104.781 45.15 106.513H40.137V112.513C41.8134 112.476 43.4027 111.614 44.9855 112.908C43.1086 113.568 41.4333 114.157 39.9365 114.683C39.4148 117.44 40.1642 124.627 41.0749 126.364C41.894 124.952 42.6751 123.562 43.503 122.201C43.8668 121.601 44.308 121.007 45.3385 121.883C45.0182 122.549 44.6587 123.265 44.3287 123.994C43.8298 125.099 43.0226 126.186 42.9256 127.331C42.6261 130.854 43.2524 134.309 44.284 137.69C44.5912 138.697 44.8406 139.722 45.1184 140.739C46.0411 144.106 47.309 147.231 50.6881 148.919C51.5998 149.902 52.6064 150.772 53.5868 151.672C55.931 153.822 58.2458 156.008 60.6172 158.127C61.0518 158.516 61.6956 158.68 62.2566 158.916C64.8514 160.011 67.4494 161.1 70.0518 162.177C70.542 162.38 71.0703 162.685 71.5638 162.653C73.7696 162.514 75.7217 163.326 77.6999 164.098C78.1138 164.259 78.5833 164.279 79.1062 164.378C79.8589 163.925 80.6214 163.466 81.3927 163.001C81.8208 163.489 82.251 163.98 82.6606 164.447C84.1268 163.703 85.9732 163.668 88.1998 164.343C88.8436 163.893 89.5506 163.4 90.2946 162.88C90.5135 163.529 90.6758 164.015 90.8882 164.645C91.5244 164.309 92.0396 164.038 92.5494 163.769C92.8708 164.116 93.1627 164.433 93.52 164.821C94.7139 164.284 95.849 163.773 97.0178 163.247C96.7673 162.456 96.617 161.986 96.4274 161.389C96.7313 161.024 97.0124 160.686 97.203 160.456C98.4949 160.773 99.4513 161.008 100.315 161.219C101.921 160.526 102.975 159.675 103.477 158.667C102.366 155.895 99.398 154.964 97.4089 152.95C97.6115 152.307 97.7858 151.752 97.91 151.358C97.7433 150.218 96.2858 149.744 96.9056 148.088C98.8239 149.795 100.041 151.614 100.738 153.923C102.226 154.972 103.765 156.058 105.373 157.192C105.717 156.597 105.957 156.181 106.213 155.74C107.024 156.433 107.737 157.042 108.462 157.663C109.265 157.058 109.862 156.607 110.284 156.289C111.913 156.052 113.316 155.85 114.507 155.676C115.472 156.514 116.22 157.164 117.313 158.113H114.103C112.939 158.831 111.436 159.357 110.556 160.406C109.52 161.64 108.229 161.899 106.955 162.319C106.493 162.853 106.056 163.357 105.584 163.903C105.058 163.557 104.629 163.275 104.266 163.037C102.873 164.171 101.545 165.252 100.406 166.179C99.3729 165.848 98.7324 165.644 98.3402 165.518C96.1431 165.85 95.1976 167.372 94.2205 168.663C92.824 168.925 91.5625 169.162 90.2891 169.401C89.8316 168.904 89.4318 168.47 89.0407 168.045C87.532 168.253 86.1127 168.448 84.8687 168.619C84.1606 168.041 83.641 167.616 83.5234 167.522C80.7652 167.522 78.4896 167.482 76.2151 167.53C72.2054 167.615 68.7784 166.304 65.9407 163.447C65.5747 163.078 65.0812 162.806 64.6041 162.581C60.9462 160.857 57.2795 159.152 53.6107 157.452C51.3896 156.423 49.3504 156.43 47.6369 158.48C47.2524 158.941 46.7208 159.279 46.3319 159.61V161.362C45.7317 162.504 45.1772 163.691 44.9921 164.931C44.7687 166.426 44.7742 167.972 44.8308 169.489C44.9757 173.336 44.8101 177.123 43.2328 180.721C43.1489 180.913 43.1881 181.16 43.1729 181.349C51.1914 189.507 69.9712 198.603 85.6334 201.813C98.5559 204.461 111.496 204.557 124.692 201.92C124.207 201.079 123.875 200.503 123.575 199.981C122.737 199.751 122.02 199.555 121.436 199.395C120.868 198.422 120.39 197.603 119.925 196.807C118.732 197.363 117.792 197.802 117.242 198.06C115.896 197.294 114.903 196.729 113.537 195.953C113.425 195.75 113.104 195.17 112.667 194.382C113.401 194.077 113.985 193.835 114.493 193.625C115.123 194.134 115.58 194.501 115.973 194.818C117.283 194.584 118.452 194.374 119.689 194.154C120.121 194.871 120.509 195.513 120.645 195.739C121.751 196.628 122.444 197.32 123.259 197.804C124.131 198.32 125.119 198.638 126.055 199.042C125.807 199.637 125.674 199.956 125.505 200.365C125.981 200.761 126.429 201.136 126.88 201.51C142.112 198.046 155.684 191.464 167.603 181.749C167.449 180.446 167.326 179.415 167.167 178.078C166.189 178.137 165.172 177.998 164.298 178.288C161.927 179.078 159.516 179.172 157.063 179.109C155.004 179.056 152.942 179.116 150.885 179.061C149.633 179.027 148.385 178.867 147.135 178.763C144.994 179.023 142.857 179.588 140.717 180.144C140.062 180.313 139.368 180.593 138.824 179.525C139.965 178.778 141.121 178.019 142.303 177.246C141.759 176.759 141.352 176.394 140.935 176.02C143.653 173.347 146.009 172.404 148.064 173.281C147.199 174.05 146.405 174.756 145.661 175.418C146.187 176.872 147.068 176.903 148.143 176.541C149.661 176.031 151.187 175.541 152.727 175.1C153.413 174.903 154.199 174.562 154.798 175.579C154.138 176.05 153.521 176.49 152.496 177.221C153.751 177.073 154.492 176.985 155.293 176.89C156.539 177.869 157.962 177.695 159.428 177.534C161.381 177.319 163.354 177.29 165.309 177.085C166.346 176.976 167.355 176.652 168.091 175.654C166.606 174.38 164.54 176.152 163.11 174.562C164.72 172.808 167.132 173.616 168.818 172.51C168.915 170.889 168.723 169.639 168.242 168.757C166.306 169.592 164.345 170.403 162.416 171.284C160.747 172.046 159.242 171.953 157.784 170.774C159.341 168.857 161.273 167.754 163.014 167.806C162.695 168.456 162.402 169.052 161.96 169.952C164.264 168.964 166.313 168.354 167.758 166.505C167.318 165.73 166.923 165.033 166.61 164.482C165.139 164.328 163.874 165.47 162.539 164.125C163.301 163.566 163.955 163.086 164.611 162.606C164.566 162.562 164.522 162.518 164.478 162.475C165.221 161.606 165.963 160.735 166.712 159.859C166.037 159.294 165.435 158.789 164.622 158.108C165.661 157.432 166.472 156.906 167.254 156.398C167.468 155.282 167.677 154.196 167.908 152.993C166.277 152.842 164.746 152.841 163.284 152.527C161.755 152.198 160.229 153.669 158.452 152.367C159.037 151.893 159.44 151.487 159.915 151.199C161.024 150.527 162.179 149.93 163.292 149.266C163.888 148.91 164.168 148.414 163.636 147.758C162.957 147.245 161.707 147.974 161.265 146.44C162.084 146.039 162.918 145.57 163.798 145.212C166.043 144.301 166.721 143.304 166.699 140.899C166.695 140.385 166.831 139.868 166.891 139.436C167.682 138.865 168.36 138.375 168.907 137.979H173.501C173.662 139.077 173.927 140.043 173.922 141.008C173.904 144.821 173.803 148.635 173.73 152.449C173.698 154.126 173.582 155.806 173.644 157.48C173.834 162.667 174.09 167.851 174.327 173.035C174.356 173.689 174.424 174.343 174.485 175.127C196.904 154.877 212.371 114.757 198.799 74.2293C184.75 32.2775 142.972 2.55663 94.7597 7.73742C49.7001 12.5794 13.3441 47.9909 7.87795 93.6551C5.19278 116.086 9.82129 137.044 21.3746 156.496C26.6578 165.39 38.0967 178.37 42.0781 180.015C42.2601 179.101 42.5237 178.221 42.5977 177.324C43.0868 171.469 43.6152 165.616 43.9703 159.754C44.247 155.187 44.4267 150.606 44.381 146.034C44.3592 143.777 44.0847 141.397 43.3189 139.294C39.2938 128.252 37.832 116.944 39.4148 105.294C40.0193 100.842 40.5291 96.3098 41.8134 92.0342C43.4093 86.7205 45.7099 81.6127 47.8068 76.4559C49.4822 72.3339 52.236 69.0137 55.7534 66.2936C59.3754 63.4919 62.9592 60.6401 66.5409 57.7872C69.6673 55.2959 71.5376 52.0748 72.0256 48.0846C72.1553 47.0247 72.3176 45.9648 72.3666 44.9005C72.5594 40.7078 72.7239 36.5128 72.8764 32.3189C72.9428 30.5009 73.3372 28.8299 74.8175 27.612C76.409 26.3026 78.1901 26.5935 79.2739 28.3255C79.5169 28.7122 79.7609 29.1109 79.9221 29.5346C82.0038 35.0128 85.3055 39.7884 88.5811 44.577C90.8871 47.9484 94.1682 49.6859 98.1823 50.0171C100.92 50.2436 103.67 50.3014 106.414 50.4582C111.514 50.7502 116.616 51.0432 121.714 51.3711C122.914 51.4484 124.106 51.6663 125.604 51.8569C126.28 51.0552 126.929 50.2033 127.661 49.4299C132.222 44.6032 136.811 39.8015 141.37 34.9736C143.292 32.9398 145.575 31.7503 148.407 31.625C151.049 31.5085 153.511 33.1479 154.045 35.9376C154.934 40.5825 155.934 45.2066 156.922 49.833C157.976 54.7665 157.684 59.6706 155.539 64.1716C153.839 67.7413 154.344 70.7141 156.206 73.8873C157.631 76.3153 158.939 78.8295 160.066 81.4079C161.465 84.605 161.953 87.9983 161.466 91.4917C161.318 92.5494 161.253 93.6279 161 94.6594C160.49 96.7389 161.014 98.4797 162.162 100.269C164.614 104.09 165.884 108.39 166.966 112.981H162.014C161.206 111.48 160.467 110.109 159.664 108.617C159.76 108.319 159.917 107.833 160.064 107.377C159.433 106.938 158.895 106.563 158.412 106.228C158.845 104.001 158.461 102.608 157.262 102.047C156.856 103.347 156.45 104.647 156.014 106.04C157.035 108.362 156.73 110.673 155.62 112.99H150.896C150.334 112.46 149.77 111.927 149.284 111.468C150.133 110.295 150.815 109.355 151.735 108.085C152.208 107.782 153.035 107.253 153.828 106.745C154.122 104.811 153.593 103.208 152.496 101.879C152.99 100.544 153.435 99.3402 153.972 97.8882C153.285 97.3609 152.72 96.7433 152.017 96.4383C151.281 96.118 150.414 96.0973 149.504 95.9274C149.451 95.3424 149.405 94.8424 149.357 94.3174C149.687 94.117 149.953 93.9797 150.19 93.8032C150.416 93.6333 150.611 93.4209 150.868 93.1834C150.471 91.1867 150.084 89.2499 149.708 87.3632C149.051 86.9623 148.488 86.6181 147.918 86.2706C148.061 84.7401 148.192 83.3284 148.32 81.9526C147.319 81.555 146.303 81.4177 145.68 80.8491C144.285 79.5757 143.08 78.0942 141.811 76.6857C140.959 75.7391 140.133 74.7707 139.293 73.8132C138.306 72.689 136.966 71.8415 136.534 70.2784C136.502 70.1651 136.311 70.0964 136.184 69.9995C135.694 70.1694 135.203 70.3415 134.593 70.5529C134.107 70.1106 133.622 69.6694 132.734 68.8622L132.723 68.8579ZM164.608 149.709C164.759 149.815 164.912 149.922 165.063 150.027C165.244 149.718 165.425 149.408 165.606 149.099C165.499 149.025 165.392 148.952 165.285 148.878C165.06 149.155 164.834 149.432 164.608 149.709Z" fill="black"/>
<path d="M132.722 68.8579C133.61 69.6651 134.095 70.1062 134.581 70.5485C135.19 70.3361 135.682 70.1651 136.172 69.9951C136.299 70.0921 136.49 70.1607 136.522 70.274C136.954 71.8372 138.294 72.6846 139.281 73.8088C140.121 74.7652 140.947 75.7347 141.799 76.6813C143.067 78.0909 144.272 79.5724 145.668 80.8447C146.291 81.4133 147.307 81.5506 148.308 81.9482C148.181 83.324 148.049 84.7357 147.906 86.2662C148.476 86.6137 149.039 86.958 149.696 87.3588C150.072 89.2455 150.459 91.1823 150.856 93.1791C150.599 93.4165 150.404 93.6289 150.178 93.7989C149.941 93.9764 149.675 94.1126 149.345 94.313C149.393 94.8381 149.439 95.3381 149.492 95.923C150.402 96.093 151.269 96.1137 152.005 96.4339C152.707 96.7389 153.273 97.3566 153.96 97.8838C153.423 99.3359 152.978 100.538 152.484 101.875C153.58 103.205 154.109 104.806 153.816 106.741C153.023 107.249 152.197 107.778 151.723 108.081C150.803 109.351 150.122 110.291 149.272 111.463C149.758 111.922 150.322 112.456 150.885 112.986H155.608C156.718 110.669 157.024 108.358 156.002 106.035C156.438 104.643 156.844 103.342 157.248 102.042C158.448 102.603 158.831 103.997 158.399 106.224C158.882 106.56 159.419 106.934 160.051 107.373C159.904 107.828 159.747 108.316 159.651 108.612C160.455 110.105 161.193 111.474 162.001 112.976H166.953C165.871 108.386 164.601 104.085 162.149 100.265C161.001 98.4764 160.477 96.7346 160.987 94.6551C161.24 93.6235 161.306 92.5451 161.453 91.4873C161.941 87.9939 161.453 84.6007 160.053 81.4035C158.926 78.8262 157.618 76.311 156.193 73.8829C154.331 70.7097 153.825 67.737 155.526 64.1673C157.671 59.6662 157.963 54.7621 156.908 49.8286C155.92 45.2034 154.92 40.5792 154.032 35.9333C153.498 33.1436 151.037 31.5041 148.394 31.6207C145.563 31.746 143.279 32.9355 141.357 34.9692C136.798 39.7971 132.209 44.5988 127.648 49.4256C126.917 50.2001 126.267 51.0508 125.591 51.8526C124.093 51.6608 122.901 51.443 121.701 51.3667C116.603 51.0388 111.501 50.7458 106.401 50.4539C103.657 50.297 100.907 50.2382 98.1693 50.0127C94.1551 49.6805 90.873 47.9441 88.568 44.5727C85.2924 39.784 81.9907 35.0085 79.909 29.5303C79.7478 29.1065 79.5038 28.7079 79.2609 28.3211C78.177 26.5902 76.396 26.2994 74.8045 27.6076C73.3241 28.8244 72.9298 30.4954 72.8633 32.3146C72.7108 36.5095 72.5463 40.7034 72.3535 44.8962C72.3045 45.9604 72.1422 47.0203 72.0126 48.0803C71.5246 52.0704 69.6553 55.2915 66.5279 57.7828C62.9462 60.6368 59.3623 63.4875 55.7404 66.2893C52.2229 69.0104 49.4692 72.3306 47.7938 76.4515C45.6979 81.6072 43.3973 86.715 41.8004 92.0298C40.5161 96.3054 40.0063 100.838 39.4017 105.29C37.82 116.939 39.2808 128.247 43.3058 139.29C44.0727 141.393 44.3461 143.772 44.3679 146.029C44.4126 150.601 44.2339 155.183 43.9572 159.749C43.6021 165.613 43.0738 171.466 42.5847 177.32C42.5095 178.217 42.2459 179.097 42.0651 180.011C38.0836 178.366 26.6436 165.385 21.3615 156.491C9.80822 137.039 5.17972 116.083 7.86488 93.6507C13.3322 47.9866 49.687 12.5751 94.7466 7.73306C142.959 2.55227 184.737 32.2732 198.786 74.2249C212.358 114.753 196.89 154.872 174.472 175.123C174.412 174.337 174.344 173.685 174.314 173.03C174.077 167.846 173.821 162.662 173.631 157.476C173.57 155.803 173.685 154.122 173.717 152.444C173.79 148.631 173.891 144.817 173.909 141.003C173.914 140.038 173.648 139.072 173.488 137.975H168.894C168.347 138.37 167.669 138.861 166.878 139.431C166.818 139.865 166.682 140.38 166.686 140.894C166.707 143.301 166.029 144.296 163.785 145.208C162.905 145.565 162.072 146.035 161.252 146.436C161.694 147.969 162.944 147.241 163.623 147.754C164.155 148.41 163.875 148.905 163.279 149.261C162.166 149.927 161.011 150.523 159.902 151.195C159.427 151.483 159.024 151.889 158.439 152.363C160.216 153.664 161.742 152.194 163.271 152.523C164.734 152.837 166.264 152.839 167.895 152.989C167.664 154.192 167.455 155.277 167.241 156.393C166.458 156.901 165.648 157.428 164.609 158.103C165.421 158.785 166.024 159.29 166.699 159.855C165.951 160.732 165.208 161.601 164.465 162.47C164.51 162.514 164.554 162.558 164.598 162.601C163.943 163.082 163.288 163.563 162.526 164.121C163.862 165.466 165.126 164.323 166.597 164.478C166.909 165.028 167.305 165.725 167.745 166.501C166.299 168.35 164.25 168.958 161.947 169.948C162.389 169.048 162.681 168.452 163.001 167.802C161.26 167.749 159.328 168.853 157.771 170.77C159.23 171.95 160.734 172.042 162.403 171.28C164.332 170.4 166.293 169.589 168.229 168.753C168.71 169.634 168.902 170.885 168.805 172.505C167.119 173.612 164.707 172.803 163.097 174.558C164.527 176.148 166.592 174.376 168.078 175.65C167.342 176.648 166.333 176.971 165.296 177.08C163.342 177.285 161.368 177.315 159.415 177.529C157.95 177.69 156.526 177.865 155.28 176.885C154.48 176.98 153.737 177.068 152.483 177.217C153.509 176.486 154.125 176.046 154.785 175.575C154.186 174.558 153.4 174.898 152.714 175.096C151.174 175.537 149.648 176.027 148.13 176.537C147.055 176.897 146.174 176.868 145.648 175.414C146.392 174.751 147.186 174.046 148.051 173.276C145.996 172.4 143.641 173.343 140.922 176.016C141.339 176.39 141.747 176.755 142.29 177.242C141.109 178.015 139.952 178.773 138.811 179.52C139.355 180.589 140.05 180.308 140.704 180.139C142.843 179.585 144.98 179.019 147.122 178.759C148.371 178.863 149.62 179.022 150.871 179.056C152.93 179.112 154.991 179.052 157.05 179.104C159.503 179.168 161.914 179.075 164.285 178.284C165.159 177.993 166.176 178.133 167.153 178.074C167.313 179.41 167.435 180.442 167.59 181.745C155.671 191.46 142.099 198.042 126.867 201.506C126.417 201.131 125.968 200.757 125.491 200.36C125.661 199.952 125.794 199.632 126.042 199.038C125.107 198.634 124.118 198.316 123.246 197.799C122.43 197.317 121.739 196.624 120.632 195.735C120.496 195.508 120.108 194.867 119.676 194.15C118.438 194.371 117.27 194.579 115.96 194.813C115.567 194.496 115.11 194.129 114.48 193.621C113.972 193.831 113.388 194.074 112.654 194.378C113.091 195.166 113.412 195.746 113.524 195.948C114.89 196.725 115.883 197.289 117.229 198.055C117.779 197.798 118.72 197.359 119.912 196.802C120.377 197.599 120.854 198.418 121.423 199.391C122.007 199.551 122.724 199.747 123.562 199.977C123.863 200.499 124.195 201.075 124.679 201.916C111.484 204.553 98.544 204.458 85.6203 201.809C69.9581 198.599 51.1783 189.503 43.1598 181.345C43.1751 181.156 43.1359 180.909 43.2197 180.717C44.7971 177.118 44.9616 173.332 44.8178 169.485C44.7611 167.967 44.7557 166.423 44.979 164.927C45.1642 163.686 45.7176 162.5 46.3189 161.357V159.606C46.7077 159.274 47.2393 158.937 47.6239 158.476C49.3373 156.426 51.3766 156.418 53.5977 157.448C57.2665 159.148 60.9331 160.853 64.5911 162.576C65.0682 162.801 65.5616 163.073 65.9276 163.442C68.7664 166.299 72.1923 167.611 76.2021 167.526C78.4755 167.478 80.7522 167.517 83.5103 167.517C83.6269 167.613 84.1476 168.037 84.8556 168.614C86.0996 168.443 87.5201 168.247 89.0277 168.04C89.4199 168.466 89.8185 168.899 90.276 169.396C91.5484 169.158 92.8109 168.921 94.2074 168.659C95.1845 167.367 96.13 165.845 98.3272 165.514C98.7193 165.639 99.3599 165.844 100.393 166.174C101.532 165.247 102.859 164.167 104.253 163.033C104.616 163.271 105.045 163.553 105.571 163.899C106.043 163.353 106.48 162.848 106.942 162.315C108.216 161.894 109.507 161.636 110.543 160.402C111.423 159.353 112.926 158.827 114.09 158.109H117.3C116.207 157.16 115.459 156.51 114.494 155.672C113.303 155.844 111.899 156.048 110.27 156.284C109.849 156.602 109.252 157.053 108.449 157.659C107.724 157.038 107.011 156.429 106.2 155.735C105.945 156.176 105.704 156.593 105.36 157.187C103.752 156.053 102.213 154.968 100.725 153.918C100.029 151.61 98.8119 149.791 96.8926 148.084C96.2727 149.74 97.7303 150.213 97.8969 151.354C97.7727 151.747 97.5984 152.303 97.3958 152.945C99.3849 154.96 102.353 155.891 103.464 158.662C102.963 159.671 101.909 160.522 100.302 161.214C99.4383 161.003 98.4819 160.769 97.19 160.452C96.9982 160.682 96.7183 161.02 96.4143 161.384C96.6039 161.981 96.7531 162.453 97.0048 163.243C95.8348 163.769 94.7009 164.28 93.507 164.817C93.1486 164.429 92.8566 164.113 92.5364 163.765C92.0277 164.033 91.5113 164.305 90.8752 164.64C90.6638 164.011 90.5005 163.526 90.2815 162.876C89.5375 163.395 88.8305 163.89 88.1867 164.339C85.9602 163.664 84.1138 163.698 82.6476 164.442C82.238 163.976 81.8077 163.485 81.3796 162.997C80.6084 163.461 79.8469 163.919 79.0931 164.374C78.5703 164.274 78.1008 164.255 77.6868 164.094C75.7086 163.321 73.7566 162.51 71.5507 162.649C71.0583 162.681 70.5289 162.376 70.0387 162.173C67.4363 161.096 64.8394 160.006 62.2436 158.912C61.6837 158.675 61.0388 158.512 60.6042 158.123C58.2316 156.003 55.9179 153.818 53.5737 151.668C52.5933 150.768 51.5857 149.898 50.675 148.915C47.296 147.227 46.028 144.101 45.1054 140.734C44.8265 139.718 44.5781 138.693 44.2709 137.685C43.2383 134.306 42.613 130.851 42.9126 127.327C43.0095 126.182 43.8167 125.095 44.3156 123.989C44.6446 123.259 45.0051 122.544 45.3254 121.878C44.2949 121.002 43.8537 121.598 43.4899 122.196C42.662 123.558 41.881 124.948 41.0618 126.36C40.1522 124.622 39.4017 117.436 39.9235 114.679C41.4202 114.153 43.0956 113.563 44.9725 112.903C43.3897 111.609 41.8004 112.472 40.1239 112.509V106.509H45.1369C43.7709 104.777 41.9485 105.493 40.1653 105.204C40.3538 104.582 40.5052 104.086 40.686 103.489C41.8439 103.829 42.8004 104.111 43.7579 104.392L43.9224 103.925C42.906 103.468 41.8897 103.011 40.8091 102.525C40.1762 101.032 40.4997 99.5603 40.9703 98.1038C42.1413 94.4764 43.2818 90.8381 44.5444 87.2434C44.882 86.2826 45.6119 85.4591 46.4289 84.1421C46.4321 84.08 46.4692 83.4798 46.5247 82.5615C48.4398 80.6268 50.5007 78.543 52.785 76.2336C53.4059 76.0506 54.334 75.7761 55.0181 75.5746C55.7458 73.165 56.3112 70.9799 57.0878 68.872C57.4135 67.9864 58.114 67.1999 58.7697 66.4821C59.8493 65.3002 60.9713 64.1422 62.188 63.1041C63.1586 62.2751 64.2882 61.6292 65.3634 60.9266C65.6782 60.7207 66.0823 60.6466 66.3862 60.4298C69.4799 58.2251 72.6269 56.1129 76.3622 54.8133C76.238 51.8329 78.2337 50.3929 80.4177 48.833C82.6029 48.968 84.9765 48.98 87.3098 49.2872C91.1845 49.7981 93.0505 53.6848 91.0615 57.005C89.9362 58.8841 88.5386 60.6041 87.4634 62.5093C86.0528 65.0082 84.3382 67.4211 84.5724 70.9537C83.7914 70.3775 83.4166 70.1008 82.8142 69.6553C81.1105 71.6291 80.0997 74.0408 78.4384 76.1726C79.2609 76.7227 79.8153 77.0931 80.4188 77.4962C80.7434 78.1084 81.0931 78.7674 81.5049 79.5463C83.6443 78.1988 85.3229 76.7434 85.9329 74.2173C86.836 70.4733 88.7216 67.1291 90.6105 63.81C90.9384 63.2337 91.4405 62.7566 91.6301 62.5213C93.3316 62.3601 94.6584 62.2337 95.9329 62.1128C96.5015 61.1619 97.0233 60.2882 97.5919 59.3362C98.2727 59.7893 98.7466 60.1052 99.4111 60.5475C99.7433 59.639 100.018 58.8895 100.387 57.8841C101 57.5649 101.792 57.1532 102.604 56.7305C103.205 57.0791 103.716 57.3754 104.489 57.8242C106.107 57.1946 107.86 56.5127 109.779 55.7665C110.109 55.8852 110.604 56.0617 111.212 56.2795C111.766 56.1259 112.415 55.9462 113.014 55.7806C114.502 56.1325 114.766 57.4037 115.266 58.7566C115.96 58.7871 116.691 58.8874 117.41 58.8318C118.242 58.7664 119.085 58.6357 119.886 58.4026C121.341 57.9789 122.334 58.48 123.271 59.6129C124.283 60.834 125.522 61.8656 126.61 63.0279C127.229 63.6891 127.755 64.4374 128.302 65.1629C128.737 65.7381 129.141 66.3361 129.829 67.3078C130.552 65.7315 131.075 64.5921 131.641 63.3601C131.037 62.9135 130.575 62.5714 130.049 62.1825C129.731 60.7588 129.949 59.4168 130.759 58.0998C131.353 57.1357 131.686 56.0137 132.233 55.0159C133.697 52.3482 135.161 49.6772 136.742 47.0792C137.247 46.248 138.117 45.6391 139.184 45.1805C139.29 44.5236 139.396 43.8657 139.48 43.3439C140.6 42.1184 141.672 41.0487 142.622 39.8788C143.833 38.3853 145.439 37.9485 147.479 37.7557C147.219 38.5368 147.023 39.1272 146.827 39.7143C147.124 41.5814 149.06 41.8918 150.229 43.3167C150.173 44.0051 150.104 44.882 150.007 46.089C150.515 46.3417 151.225 46.6946 151.919 47.04C152.416 47.8254 152.923 48.6271 153.467 49.4887V52.3221C152.855 56.2164 151.734 59.676 153.011 63.3013C152.641 64.0747 152.279 64.8285 151.802 65.8263C152.721 68.7359 149.676 69.615 148.241 71.6727C148.424 72.1171 148.633 72.6247 148.916 73.3132C150.102 72.7456 151.098 72.2685 152.09 71.7936C152.461 72.5576 152.464 73.4127 152.1 74.3589C150.789 75.3306 148.535 74.7914 147.718 77.1334C146.576 76.4874 145.558 75.9112 144.325 75.213C144.098 75.2249 143.577 75.2522 143.058 75.2794C143.198 75.1095 143.34 74.9395 143.48 74.7696C142.547 73.7903 141.613 72.8121 140.679 71.8328C140.443 71.9929 140.208 72.152 139.973 72.3121C140.085 71.6727 140.197 71.0343 140.304 70.4276C141.079 69.9777 141.73 69.5997 142.381 69.2217C142.33 69.1694 142.279 69.1171 142.229 69.0638C143.052 68.1455 143.875 67.2272 144.893 66.0921C144.897 66.1008 144.746 65.7359 144.524 65.201C145.11 64.664 145.715 64.1117 146.388 63.4963C146.682 60.8754 148.509 58.5094 147.893 55.7262C149.004 54.9713 149.974 54.3122 150.943 53.6532C150.883 53.4898 150.824 53.3253 150.765 53.1619C149.871 53.3286 148.982 53.5279 148.083 53.6543C147.107 53.7905 146.066 53.6935 145.151 53.9942C143.564 54.5138 142.047 54.6979 140.466 54.0617C140.209 53.9582 139.874 54.0475 139.462 54.0475C139.105 54.6281 138.755 55.1946 138.264 55.9909C139.281 56.9756 140.271 57.9342 141.4 59.0279C140.856 59.4952 140.243 60.0246 139.489 60.6738C139.89 60.8362 140.232 60.9745 140.673 61.1531C138.067 63.6738 135.51 66.1466 132.71 68.8535L132.722 68.8579ZM93.4133 129.519L93.4057 129.617L93.3599 129.56C93.3468 129.335 93.3349 129.109 93.3196 128.85C93.8675 128.523 94.4307 128.187 95.0876 127.798C94.9263 127.081 94.7815 126.432 94.6736 125.954C93.7673 125.512 93.044 125.16 92.2455 124.77C92.0288 125.105 91.7902 125.472 91.6083 125.754C86.9525 126.838 82.3709 127.904 77.5463 129.028C77.2751 128.776 76.7838 128.319 76.3295 127.897C72.8404 127.784 70.7849 125.241 68.371 123.332C67.8252 123.779 67.3623 124.158 66.9875 124.465C65.8917 124.264 64.9287 124.087 63.9658 123.91C63.9963 123.847 64.0279 123.784 64.0584 123.721C62.4407 122.959 60.8242 122.196 59.2556 121.457C57.6238 122.034 56.0998 122.158 54.2741 121.266C54.8624 120.022 55.4048 118.876 56.0704 117.47C56.9953 117.927 57.7523 118.302 58.5432 118.693C58.8395 118.186 59.1379 117.676 59.4168 117.197H61.5116C62.3612 116.469 62.9451 115.708 63.7163 115.358C65.8547 114.385 68.0714 113.583 70.2958 112.697C70.3448 112.419 70.4069 112.063 70.4625 111.744C71.1596 111.605 71.798 111.478 72.2511 111.388C72.6553 110.152 72.957 109.143 73.3154 108.154C74.1041 105.975 73.6825 103.665 72.1422 102.516C69.9843 100.906 67.6161 99.6823 64.981 99.0537C64.4647 98.9306 63.8939 99.0363 62.8601 99.0363C63.9364 99.9045 64.6063 100.445 65.2795 100.987C64.9712 102.611 63.9636 102.265 62.9996 101.961C61.7055 101.554 60.4212 101.118 58.8602 100.606C58.7153 100.358 58.4277 99.8631 58.0486 99.2106C58.9386 98.9851 59.6151 98.8141 60.2926 98.642C60.2643 98.5004 60.236 98.3587 60.2066 98.2182C58.8504 98.4492 57.4952 98.6801 56.1173 98.9143C56.2709 99.5254 56.3558 99.8664 56.5301 100.564C55.4168 100.48 54.5672 100.415 53.6162 100.343C51.9517 101.047 51.0291 102.487 51.0062 104.23C50.9735 106.741 52.9855 107.751 54.9528 108.875C53.7927 108.963 52.6314 109.053 51.0999 109.169C51.6587 111.027 52.163 112.705 52.6761 114.414C53.4266 114.77 54.2632 115.117 53.3537 116.325C51.9888 116.023 50.6021 115.717 49.2154 115.411C49.1642 115.566 49.1129 115.72 49.0618 115.875C49.6195 116.306 50.1783 116.738 50.918 117.311C49.9888 117.724 49.2872 118.034 48.1827 118.524C48.6892 118.946 48.9626 119.174 49.162 119.34C50.0443 119.039 50.7066 118.814 51.7426 118.461C50.992 119.781 50.4572 120.722 49.8929 121.715C50.7567 122.066 51.4201 122.335 52.2153 122.657C50.7099 125.5 52.5585 127.188 54.0791 128.994C54.6216 129.037 55.1456 129.08 55.7088 129.125C57.126 130.802 58.9506 132.231 58.4647 135.031C59.7458 135.848 61.0595 136.685 62.4146 137.549C63.3536 136.91 64.5845 137 64.4745 135.442C63.9255 135.483 63.4266 135.52 62.8438 135.562C62.3089 134.828 61.7882 134.112 61.0835 133.145C62.212 132.563 63.1128 132.099 63.9908 131.646C64.103 131.231 64.2087 130.842 64.3754 130.225C64.968 130.898 65.3579 131.341 65.6412 131.662H70.1607C70.7609 131.93 71.7925 132.391 72.8633 132.869C73.055 133.469 73.2555 134.095 73.4287 134.634C74.4603 134.852 75.3382 135.038 76.2555 135.232C78.2369 132.174 80.9733 131.888 83.1345 132.758C86.0778 132.66 88.0702 132.595 90.2216 132.523C90.3523 132.238 90.5952 131.702 90.8392 131.166C90.9558 131.258 91.0734 131.35 91.19 131.442C91.9307 130.801 92.6715 130.159 93.4122 129.519H93.4133ZM108.062 115.928C104.622 114.937 101.245 113.987 97.8828 112.989C94.4961 111.985 91.0974 111.191 87.531 111.932C89.8044 113.148 92.3556 112.292 94.7096 112.913C97.142 113.555 99.6104 114.068 102.022 114.775C104.416 115.477 106.76 116.352 109.054 117.128C110.541 124.032 111.964 130.643 113.383 137.231H123.041C123.594 134.07 124.131 131.003 124.667 127.938C124.786 127.94 124.904 127.941 125.024 127.943C125.538 130.997 126.052 134.05 126.605 137.336H134.147C133.901 138.037 133.764 138.431 133.669 138.702C132.572 139.289 130.921 138.467 130.605 140.319C131.319 140.525 131.953 140.707 132.699 140.922C132.592 141.45 132.587 141.917 132.403 142.296C131.603 143.943 129.489 142.915 128.461 144.084C128.581 144.65 128.682 145.125 128.84 145.874C126.063 145.528 123.559 144.099 120.628 145.362C121.398 146.095 122.006 146.672 122.591 147.229C121.306 149.539 118.689 147.649 117.217 149.085C117.413 150.408 117.602 151.675 117.768 152.801C117.193 153.443 116.768 153.918 116.068 154.701C118.332 154.764 120.189 155.149 122.214 154.289V151.93C123.342 151.027 124.246 150.303 125.205 149.535C127.389 148.583 129.737 147.73 131.917 146.564C134.487 145.19 135.21 145.121 137.67 146.958C139.011 147.959 139.751 147.96 141.39 146.885C140.634 146.272 139.91 145.686 138.783 144.776C140.917 144.222 142.616 143.782 144.531 143.284C143.984 142.654 143.574 142.181 143.067 141.596C143.722 141.156 144.272 140.787 144.852 140.397C144.98 139.926 145.117 139.431 145.25 138.947C145.911 138.818 146.498 138.704 147.085 138.589C147.066 138.536 147.048 138.483 147.014 138.387C144.755 137.921 142.533 136.769 140.425 137.834C138.793 137.634 137.46 137.471 135.905 137.28C137.213 129.958 139.178 122.878 140.453 115.463H132.636C132.15 118.639 131.674 121.756 131.198 124.874C131.032 124.886 130.865 124.897 130.697 124.909C130.2 121.759 129.702 118.61 129.206 115.476H120.409C119.385 118.261 119.654 121.28 118.38 124.437C117.667 121.108 117.878 118.143 116.641 115.359C113.745 115.386 110.945 114.818 108.064 115.928H108.062ZM185.551 124.842C185.393 124.864 185.234 124.885 185.076 124.906C184.565 121.782 184.054 118.658 183.543 115.529H174.619C174.088 118.444 173.584 121.221 173.078 123.999C171.903 121.201 172.33 118.182 171.054 115.581C168.452 115.076 165.01 115.163 163.371 115.751C163.578 119.017 167.298 135.83 168.121 137.238H177.419C177.976 134.028 178.505 130.974 179.035 127.921C179.16 127.938 179.285 127.955 179.41 127.973C179.913 131.028 180.415 134.083 180.924 137.181H190.014C190.173 136.745 190.342 136.403 190.421 136.043C191.785 129.867 193.15 123.693 194.477 117.51C194.61 116.893 194.494 116.222 194.494 115.501H186.981C186.488 118.718 186.018 121.78 185.55 124.842H185.551ZM151.353 137.861C152.559 137.704 153.774 137.599 154.969 137.38C158.319 136.767 160.627 134.809 161.879 131.683C163.229 128.311 163.378 124.847 162.179 121.396C161.437 119.261 160.259 117.33 158.192 116.281C153.793 114.047 149.339 114.156 145.084 116.643C141.196 118.915 140.166 122.63 140.419 126.864C140.438 127.168 140.462 127.473 140.49 127.776C141.071 134.129 144.933 137.683 151.353 137.861ZM160.291 137.828C159.235 137.996 158.643 138.136 158.044 138.177C156.124 138.305 154.736 139.151 153.381 140.601C151.871 142.217 150.176 143.851 147.708 144.172C146.83 144.287 145.998 144.788 145.156 145.139C144.956 145.222 144.802 145.413 144.558 145.61C144.6 146.087 144.645 146.585 144.686 147.035C144.19 147.388 143.772 147.685 143.187 148.1C143.839 148.969 144.411 149.734 145.048 150.585C144.964 151.126 144.861 151.793 144.757 152.459C142.577 153.558 139.741 152.73 137.582 154.941C138.683 155.573 139.509 156.047 140.427 156.573C140.568 156.941 140.75 157.415 140.905 157.823C141.677 158.041 142.331 158.226 143.374 158.521C141.475 159.541 139.934 160.205 138.584 161.144C137.311 162.029 135.364 162.059 134.703 163.917C138.66 164.658 146.129 162.212 148.212 159.892C148.19 159.548 148.165 159.184 148.161 159.135C148.918 158.238 149.513 157.535 150.35 156.545C151.132 156.098 152.777 156.584 153.699 155.098C153.102 154.697 152.593 154.354 151.73 153.774C153.528 152.83 154.964 152.024 156.446 151.313C157.895 150.617 159.392 150.018 160.868 149.377C160.854 149.205 160.841 149.033 160.827 148.861C159.922 148.679 159.015 148.498 158.057 148.305C157.745 147.936 157.407 147.536 157.029 147.088H155.273C155.332 145.188 155.565 144.727 156.976 144.288C157.989 143.972 159.062 143.858 160.097 143.607C160.727 143.454 161.423 143.305 161.521 142.199C160.757 142.147 160.103 142.112 159.452 142.053C158.842 141.999 158.067 142.271 157.797 141.301C158.45 140.962 159.044 140.654 159.756 140.282C159.904 139.602 160.058 138.895 160.291 137.827V137.828ZM94.3762 93.1845C103.261 96.4808 103.737 96.411 109.228 93.6093C111.55 92.4241 113.42 90.5266 114.423 88.2935C111.524 84.1748 107.535 82.421 103.264 81.0985C99.9971 81.8839 98.0679 85.0615 94.7324 85.7564C93.7357 85.9634 92.8795 86.8436 92.056 87.3556C91.0266 86.6704 90.2771 86.1715 89.3382 85.5462C88.8109 86.0625 88.3229 86.5397 87.6105 87.2357C88.9438 88.8501 90.1181 90.2717 91.1562 91.5287H93.3817C93.7379 92.1224 94.0821 92.6954 94.3752 93.1834L94.3762 93.1845ZM71.6607 78.568C69.3612 74.8785 66.6542 73.5441 63.6357 74.6138C61.3503 75.4232 60.3525 76.9373 60.6434 79.2674C61.3198 78.7892 61.9647 78.3338 62.9625 77.6301C62.5355 79.1356 62.1129 80.1933 61.9582 81.2892C61.8057 82.3687 61.9244 83.4863 61.9244 84.6856C59.9549 84.2597 60.6989 82.3295 59.4462 81.0397C59.2828 82.8806 59.1597 84.2706 59.0551 85.4395C60.0856 86.5255 60.8645 87.3468 61.5856 88.1061C66.0595 88.764 71.298 83.7423 71.6607 78.568ZM80.7816 160.459C81.1323 159.953 81.3763 159.76 81.3535 159.609C80.5114 154.15 79.921 148.625 77.2097 144.032C77.494 143.009 77.6672 142.383 77.8361 141.777C76.0692 141.094 74.6868 141.534 73.4755 143.109C74.201 143.365 74.8927 143.61 75.5834 143.854C75.8143 144.397 76.0202 144.879 76.1966 145.294C75.2664 148.236 74.4646 151.103 74.1879 154.31C75.0006 154.208 75.482 154.148 75.9417 154.09C76.2119 152.903 76.4494 151.858 76.7674 150.457C79.4537 153.473 78.6923 157.363 80.7805 160.457L80.7816 160.459ZM138.72 151.898C137.274 150.061 135.168 150.855 133.428 150.332C130.887 148.164 129.015 148.513 126.876 151.682C128.9 153.096 131.05 153.102 133.226 152.258C133.886 152.955 134.445 153.545 135.106 154.243C136.274 153.525 137.779 153.555 138.72 151.898ZM127.652 154.708C126.795 155.472 126.003 156.051 125.372 156.771C124.44 157.833 123.419 158.623 121.971 158.844C120.595 159.054 119.988 160.071 119.627 161.295C120.545 162.06 121.488 161.957 122.461 161.634C123.603 161.254 124.773 160.943 125.884 160.488C126.977 160.039 128.011 159.445 128.935 158.984C129.289 157.244 128.961 156.009 127.653 154.709L127.652 154.708ZM116.722 104.043C115.704 103.472 114.794 103.119 114.09 102.524C113.367 101.915 112.846 101.069 112.499 100.648C110.603 100.648 109.055 100.908 107.642 100.58C106.019 100.204 104.649 100.643 103.233 101.142C102.921 101.252 102.738 101.728 102.338 102.235C104.275 102.544 105.931 102.808 108.136 103.159C109.559 102.804 111.448 103.095 113.336 103.88C114.29 104.278 115.344 104.949 116.722 104.042V104.043ZM110.663 169.212C110.072 169.58 109.449 169.968 108.792 170.377C108.611 171.453 108.517 172.466 109.705 173.225C110.482 172.66 111.202 172.035 112.012 171.566C113.929 170.46 115.176 168.914 115.677 166.414C113.704 166.341 112.04 166.755 110.303 167.528C110.426 168.105 110.532 168.603 110.662 169.21L110.663 169.212ZM128.962 176.42C129.014 176.25 129.068 176.081 129.12 175.912C128.473 175.439 127.681 175.079 127.206 174.471C125.582 172.398 123.369 172.608 121.167 172.766C120.83 172.79 120.52 173.185 120.197 173.408L120.786 173.099C121.612 173.828 122.439 174.558 123.266 175.286C123.054 175.523 122.842 175.759 122.63 175.995C124.71 176.725 126.819 176.902 128.962 176.419V176.42ZM55.1532 87.8457C54.3188 89.2303 54.0661 90.605 54.9321 91.9677C55.5051 92.8686 56.3515 93.3305 57.578 92.7607C58.2937 91.556 59.0562 90.2717 59.8253 88.9776C58.4255 88.263 57.0737 87.3425 55.1532 87.8468V87.8457ZM65.1401 144.042C64.9298 144.188 64.7196 144.334 64.5094 144.48C63.8601 146.459 63.2109 148.436 62.5617 150.414C62.6248 150.437 62.6891 150.46 62.7523 150.483C62.3885 150.959 62.0257 151.434 61.5322 152.078C61.8318 152.644 62.1423 153.227 62.5203 153.94C63.8928 152.078 65.042 150.521 66.213 148.932C65.7937 148.434 65.4625 148.039 65.1412 147.657C65.3895 146.882 65.6194 146.163 65.8503 145.444C65.9581 145.314 66.066 145.183 66.1749 145.052C65.8296 144.716 65.4843 144.38 65.139 144.044L65.1401 144.042ZM160.276 155.906C159.093 155.655 154.232 156.817 152.447 157.767C151.992 158.009 151.668 158.494 151.149 158.998C154.858 160.006 158.659 158.683 160.276 155.906ZM119.008 164.676C119.348 164.039 119.623 163.521 119.885 163.031C117.945 161.299 113.926 161.661 111.662 163.904H114.917C115.595 164.289 116.315 164.697 117.06 165.12C117.668 164.981 118.252 164.848 119.009 164.676H119.008ZM55.2044 138.053C55.0225 137.968 54.8406 137.884 54.6587 137.8C54.3373 138.057 53.8537 138.251 53.7229 138.583C53.0301 140.339 52.3417 142.106 51.8264 143.918C51.5498 144.891 51.9212 145.836 53.0062 146.619C54.5029 144.849 53.9582 142.5 54.8754 140.644C55.2404 139.906 55.1107 138.924 55.2055 138.053H55.2044ZM134.571 181.163C133.932 179.808 132.972 178.965 131.526 179.138C129.807 179.344 128.718 180.462 127.957 182.195C130.319 182.232 132.627 183.235 134.571 181.163ZM129.058 101.914C130.168 101.854 131.326 101.793 132.827 101.713C132.005 100.676 131.454 99.9818 130.864 99.2367C131.318 98.7269 131.727 98.2673 132.136 97.8086C130.29 97.886 128.662 98.2553 127.7 100.043C128.119 100.62 128.513 101.162 129.059 101.913L129.058 101.914ZM120.999 169.704C120.774 169.661 120.585 169.56 120.489 169.616C118.548 170.758 116.602 171.894 114.704 173.104C114.477 173.249 114.521 173.819 114.361 174.552C116.569 173.659 118.484 173.001 120.28 172.107C121.163 171.668 121.753 170.772 120.999 169.702V169.704ZM124.39 162.911C123.283 163.42 122.564 164.059 122.739 165.309C124.765 165.761 128.073 165.037 129.483 163.838C129.361 163.672 129.223 163.35 129.112 163.359C127.949 163.451 126.789 163.596 125.557 163.734C125.219 163.497 124.804 163.202 124.39 162.911ZM87.7815 116.316C88.0255 116.779 88.1072 117.206 88.3567 117.362C89.4373 118.035 95.9568 119.197 97.5309 118.839C94.069 117.944 91.0909 117.172 87.7815 116.316ZM115.635 188.169C116.633 188.03 117.307 187.886 117.987 187.858C118.595 187.833 119.209 187.935 119.821 187.982C119.852 187.793 119.884 187.602 119.916 187.413C118.596 186.011 116.752 186.308 115.026 186.262C114.885 186.258 114.734 186.568 114.483 186.849C114.87 187.292 115.243 187.721 115.635 188.17V188.169ZM75.5071 182.108C74.7141 181.652 74.2075 181.361 73.7174 181.08C73.8884 180.565 74.0235 180.158 74.1814 179.682C73.8492 179.511 73.6084 179.388 73.3132 179.236C72.9352 180.305 72.5975 181.262 72.2228 182.323C72.5692 182.715 72.9592 183.159 73.4526 183.719C74.115 183.199 74.6934 182.746 75.5071 182.108ZM132.119 188.446C133.387 189.322 134.727 190.027 136.673 189.322C135.073 188.63 133.865 187.592 132.119 188.446ZM81.2456 183.101C83.2096 184.214 84.7292 182.547 86.4515 182.688C86.1443 182.307 85.7445 181.921 85.4384 181.986C84.1018 182.266 82.7914 182.675 81.2456 183.101ZM43.1805 95.5657C43.4463 97.6692 44.6239 98.7901 46.6772 99.1028C45.3864 97.7967 44.284 96.6812 43.1805 95.5657ZM102.675 186.165C102.142 185.426 101.828 184.992 101.57 184.633C100.717 184.975 100.06 185.237 99.3 185.542C100.21 186.744 101.222 186.397 102.676 186.165H102.675ZM137.404 191.835C138.912 192.215 139.992 192.679 141.301 191.548C139.96 190.713 138.89 190.96 137.404 191.835ZM85.1225 184.194C84.1977 184.499 83.2728 184.804 81.97 185.234C84.4743 186.162 84.5059 186.154 85.1225 184.194ZM68.7435 119.493C68.6259 119.386 68.5082 119.28 68.3906 119.173C67.7664 119.571 67.1292 119.95 66.5333 120.386C66.4353 120.458 66.5191 120.78 66.5191 121.076H68.3503C68.4984 120.478 68.6215 119.985 68.7435 119.493ZM99.5048 175.208C99.5037 175.026 99.5015 174.845 99.5004 174.663H96.7836C97.8414 175.527 98.6518 175.522 99.5058 175.208H99.5048ZM114.765 170.591C115.323 171.228 115.801 171.228 116.196 170.591H114.765ZM78.2097 113.861C79.0289 113.439 79.457 113.22 80.0506 112.914C78.8546 112.019 78.5888 112.561 78.2097 113.861ZM63.3884 119.021C64.3115 119.519 64.9113 119.42 65.188 118.722C64.7054 118.803 64.3057 118.868 63.3884 119.021ZM146.772 50.4604C146.765 50.2676 146.758 50.0737 146.751 49.8809C146.284 49.9452 145.819 50.0094 145.353 50.0737C145.37 50.2022 145.388 50.3308 145.405 50.4604H146.772ZM81.9624 117.384C81.0604 117.251 80.7031 117.198 80.0463 117.103C80.3557 117.684 80.5125 117.98 80.7227 118.376C81.0539 118.11 81.2652 117.942 81.9624 117.385V117.384ZM84.5953 111.574C84.4166 111.647 84.2391 111.72 84.0604 111.792C84.0419 112.155 84.0223 112.517 83.9874 113.201C84.5528 112.828 84.836 112.641 85.3632 112.293C85.0168 111.969 84.8066 111.772 84.5953 111.574ZM75.2555 118.585C75.1291 118.468 75.0027 118.349 74.8764 118.231C74.6574 118.502 74.4396 118.775 74.2206 119.046C74.3023 119.123 74.384 119.201 74.4657 119.278C74.7282 119.047 74.9919 118.816 75.2544 118.584L75.2555 118.585ZM135.937 167.147L136.19 167.365C136.28 167.212 136.37 167.06 136.461 166.907L136.328 166.796C136.197 166.913 136.067 167.029 135.937 167.146V167.147ZM82.2565 121.495C82.1378 121.605 82.019 121.716 81.8992 121.826C82.08 121.966 82.2565 122.113 82.446 122.242C82.4711 122.258 82.6116 122.155 82.6105 122.153C82.4983 121.93 82.3774 121.713 82.2565 121.495ZM82.068 111.874C81.9123 111.858 81.7565 111.841 81.6007 111.824V112.486C81.6977 112.502 81.7957 112.519 81.8927 112.535C81.9515 112.315 82.0092 112.094 82.068 111.874ZM143.601 48.0672C143.654 48.1282 143.705 48.1892 143.757 48.2502C143.885 48.1336 144.013 48.0171 144.141 47.9005L143.994 47.7317C143.863 47.8439 143.732 47.9561 143.601 48.0683V48.0672ZM71.6607 119.312C71.6607 119.265 71.6607 119.218 71.6607 119.171H71.1585C71.1585 119.218 71.1585 119.265 71.1585 119.312H71.6607ZM76.1258 114.176H76.2729V113.688C76.2239 113.688 76.1749 113.688 76.1258 113.688V114.176Z" fill="white"/>
<path d="M164.607 149.71C164.832 149.434 165.058 149.156 165.284 148.879C165.391 148.953 165.498 149.026 165.604 149.1C165.424 149.41 165.243 149.719 165.062 150.028C164.91 149.923 164.758 149.816 164.607 149.71Z" fill="white"/>
<path d="M108.063 115.929C110.945 114.82 113.745 115.388 116.641 115.36C117.878 118.143 117.667 121.109 118.38 124.438C119.654 121.281 119.385 118.262 120.409 115.477H129.206C129.702 118.612 130.199 121.762 130.697 124.91C130.864 124.898 131.031 124.887 131.198 124.875C131.674 121.757 132.152 118.64 132.636 115.464H140.453C139.178 122.879 137.212 129.959 135.905 137.281C137.46 137.472 138.793 137.635 140.425 137.836C142.532 136.77 144.755 137.922 147.014 138.388C147.048 138.484 147.066 138.537 147.085 138.59C146.498 138.705 145.911 138.819 145.249 138.948C145.117 139.433 144.981 139.926 144.852 140.398C144.272 140.788 143.722 141.157 143.066 141.597C143.573 142.182 143.983 142.654 144.531 143.285C142.616 143.782 140.918 144.222 138.783 144.777C139.91 145.687 140.633 146.273 141.39 146.886C139.751 147.961 139.011 147.96 137.67 146.959C135.21 145.122 134.487 145.191 131.917 146.565C129.737 147.731 127.389 148.584 125.205 149.536C124.246 150.304 123.341 151.027 122.214 151.931V154.29C120.189 155.15 118.332 154.765 116.068 154.703C116.768 153.919 117.194 153.443 117.768 152.802C117.602 151.676 117.414 150.41 117.217 149.086C118.689 147.649 121.306 149.54 122.591 147.23C122.007 146.674 121.399 146.096 120.628 145.363C123.559 144.1 126.063 145.529 128.84 145.875C128.681 145.126 128.581 144.653 128.461 144.085C129.489 142.916 131.604 143.943 132.403 142.297C132.587 141.918 132.592 141.451 132.699 140.923C131.953 140.708 131.319 140.526 130.605 140.32C130.921 138.468 132.571 139.291 133.669 138.703C133.764 138.433 133.902 138.038 134.147 137.337H126.605C126.051 134.051 125.538 130.998 125.024 127.945C124.905 127.942 124.787 127.941 124.667 127.939C124.13 131.004 123.594 134.071 123.04 137.232H113.383C111.964 130.644 110.541 124.033 109.054 117.129C106.76 116.353 104.416 115.478 102.022 114.776C99.6104 114.068 97.142 113.555 94.7095 112.914C92.3555 112.293 89.8043 113.151 87.5309 111.933C91.0963 111.192 94.496 111.986 97.8827 112.99C101.245 113.988 104.623 114.938 108.062 115.929H108.063ZM133.617 143.421C133.703 143.636 133.789 143.853 133.875 144.069C134.296 144.069 134.813 144.228 135.123 144.041C136.449 143.245 137.816 142.463 138.97 141.449C139.905 140.626 139.716 139.98 138.573 138.792C137.873 139.668 137.27 140.625 136.468 141.368C135.616 142.158 134.575 142.745 133.617 143.421Z" fill="black"/>
<path d="M93.4133 129.519C92.6726 130.16 91.9318 130.802 91.1911 131.442C91.0745 131.35 90.9569 131.258 90.8403 131.166C90.5963 131.702 90.3523 132.237 90.2227 132.523C88.0713 132.594 86.0789 132.66 83.1356 132.758C80.9744 131.888 78.238 132.174 76.2566 135.232C75.3394 135.038 74.4614 134.852 73.4298 134.634C73.2566 134.095 73.0561 133.469 72.8644 132.869C71.7925 132.391 70.761 131.93 70.1618 131.662H65.6423C65.359 131.341 64.9691 130.898 64.3765 130.225C64.2098 130.842 64.1041 131.231 63.9919 131.646C63.1129 132.099 62.2131 132.563 61.0846 133.145C61.7893 134.113 62.31 134.828 62.8449 135.562C63.4266 135.52 63.9266 135.483 64.4756 135.442C64.5856 137 63.3536 136.91 62.4157 137.549C61.0617 136.685 59.7469 135.848 58.4658 135.031C58.9517 132.232 57.1271 130.802 55.7099 129.125C55.1456 129.08 54.6227 129.038 54.0802 128.994C52.5607 127.186 50.711 125.5 52.2164 122.657C51.4212 122.335 50.7589 122.066 49.894 121.715C50.4583 120.722 50.9931 119.781 51.7437 118.461C50.7088 118.814 50.0454 119.039 49.1631 119.34C48.9637 119.175 48.6903 118.947 48.1838 118.524C49.2883 118.034 49.9899 117.722 50.919 117.311C50.1783 116.738 49.6206 116.306 49.0629 115.875C49.1141 115.72 49.1652 115.566 49.2164 115.411C50.6031 115.717 51.9899 116.023 53.3548 116.325C54.2654 115.117 53.4277 114.77 52.6772 114.414C52.1641 112.706 51.6598 111.028 51.101 109.169C52.6325 109.053 53.7927 108.963 54.9539 108.875C52.9866 107.751 50.9746 106.741 51.0073 104.23C51.0302 102.488 51.9539 101.047 53.6173 100.344C54.5683 100.415 55.419 100.48 56.5312 100.564C56.3569 99.8664 56.2709 99.5254 56.1184 98.9143C57.4963 98.6801 58.8515 98.4492 60.2077 98.2183C60.236 98.3599 60.2643 98.5015 60.2937 98.642C59.6172 98.813 58.9408 98.9851 58.0497 99.2106C58.4288 99.862 58.7175 100.358 58.8613 100.606C60.4212 101.119 61.7066 101.554 63.0007 101.961C63.9647 102.264 64.9712 102.61 65.2806 100.987C64.6074 100.444 63.9375 99.9045 62.8612 99.0363C63.895 99.0363 64.4658 98.9307 64.9821 99.0538C67.6172 99.6823 69.9854 100.906 72.1433 102.516C73.6836 103.665 74.1052 105.974 73.3165 108.154C72.9581 109.143 72.6575 110.152 72.2522 111.388C71.7991 111.479 71.1607 111.606 70.4636 111.744C70.408 112.063 70.3459 112.419 70.2969 112.697C68.0714 113.583 65.8558 114.385 63.7174 115.358C62.9462 115.708 62.3623 116.469 61.5127 117.197H59.4179C59.139 117.675 58.8406 118.187 58.5443 118.693C57.7534 118.302 56.9964 117.927 56.0715 117.47C55.4059 118.876 54.8646 120.022 54.2752 121.266C56.0998 122.158 57.6249 122.034 59.2567 121.457C60.8253 122.196 62.4429 122.959 64.0595 123.721C64.029 123.785 63.9974 123.847 63.9669 123.91C64.9298 124.087 65.8939 124.264 66.9886 124.465C67.3634 124.158 67.8263 123.779 68.3721 123.332C70.786 125.241 72.8415 127.784 76.3306 127.897C76.7849 128.319 77.2751 128.776 77.5474 129.028C82.3731 127.905 86.9547 126.838 91.6094 125.754C91.7924 125.472 92.031 125.104 92.2466 124.77C93.0451 125.16 93.7684 125.512 94.6747 125.954C94.7815 126.432 94.9274 127.081 95.0887 127.798C94.4318 128.189 93.8686 128.524 93.3207 128.85C93.336 129.11 93.3479 129.336 93.361 129.56L93.4133 129.519ZM66.6085 111.081C64.9407 110.041 63.6107 109.122 61.871 108.85C62.2316 110.98 64.0181 111.871 66.6085 111.081ZM53.5378 118.823C54.1783 117.997 55.577 117.586 55.2415 115.95C53.6532 116.394 53.6521 117.647 53.5378 118.823ZM53.3384 120.966C53.187 120.867 53.0345 120.769 52.8831 120.67C52.7546 120.98 52.626 121.288 52.4975 121.597L52.845 121.766C53.0094 121.5 53.1739 121.233 53.3373 120.968L53.3384 120.966Z" fill="black"/>
<path d="M185.551 124.843C186.02 121.781 186.49 118.719 186.982 115.502H194.495C194.495 116.224 194.61 116.893 194.478 117.511C193.151 123.694 191.787 129.869 190.422 136.044C190.343 136.405 190.173 136.746 190.015 137.182H180.925C180.416 134.084 179.914 131.03 179.412 127.974C179.286 127.957 179.161 127.939 179.036 127.922C178.506 130.975 177.977 134.03 177.42 137.239H168.122C167.299 135.831 163.579 119.018 163.372 115.752C165.011 115.164 168.454 115.078 171.055 115.582C172.332 118.183 171.905 121.201 173.079 124C173.585 121.222 174.089 118.445 174.62 115.53H183.544C184.056 118.659 184.566 121.783 185.077 124.908C185.235 124.886 185.394 124.865 185.552 124.843H185.551Z" fill="black"/>
<path d="M151.353 137.862C144.933 137.683 141.072 134.13 140.49 127.777C140.463 127.473 140.438 127.169 140.419 126.865C140.166 122.632 141.195 118.916 145.084 116.644C149.339 114.157 153.793 114.048 158.192 116.282C160.258 117.332 161.437 119.262 162.179 121.397C163.378 124.847 163.229 128.312 161.879 131.684C160.627 134.811 158.318 136.768 154.969 137.381C153.775 137.6 152.559 137.705 151.353 137.862ZM154.619 126.216C154.465 124.967 154.43 123.742 154.143 122.579C153.803 121.201 152.832 120.448 151.747 120.543C150.551 120.647 149.828 121.39 149.51 122.507C148.813 124.953 148.693 127.438 149.263 129.918C149.598 131.379 150.406 132.091 151.504 132.133C152.709 132.18 153.692 131.48 154.076 129.994C154.395 128.762 154.45 127.462 154.618 126.215L154.619 126.216Z" fill="black"/>
<path d="M160.291 137.829C160.058 138.898 159.904 139.605 159.756 140.284C159.044 140.655 158.45 140.963 157.797 141.303C158.067 142.273 158.842 142.001 159.452 142.056C160.103 142.113 160.757 142.148 161.521 142.202C161.423 143.307 160.728 143.456 160.097 143.609C159.062 143.861 157.988 143.974 156.976 144.29C155.565 144.729 155.332 145.191 155.273 147.09H157.029C157.407 147.538 157.745 147.938 158.057 148.307C159.015 148.5 159.921 148.681 160.827 148.863C160.841 149.035 160.854 149.207 160.868 149.379C159.392 150.021 157.895 150.619 156.445 151.315C154.964 152.026 153.528 152.832 151.73 153.777C152.593 154.356 153.103 154.699 153.699 155.1C152.778 156.586 151.132 156.099 150.35 156.547C149.513 157.537 148.919 158.241 148.161 159.137C148.164 159.186 148.19 159.55 148.212 159.894C146.129 162.216 138.661 164.66 134.703 163.919C135.364 162.06 137.309 162.031 138.584 161.146C139.934 160.208 141.474 159.545 143.374 158.523C142.331 158.229 141.677 158.043 140.905 157.826C140.75 157.417 140.568 156.943 140.427 156.575C139.509 156.049 138.684 155.575 137.582 154.943C139.742 152.732 142.578 153.56 144.757 152.461C144.861 151.794 144.964 151.129 145.048 150.587C144.411 149.736 143.838 148.972 143.187 148.102C143.771 147.687 144.19 147.39 144.686 147.037C144.646 146.587 144.601 146.089 144.558 145.612C144.803 145.415 144.958 145.224 145.156 145.142C145.998 144.79 146.829 144.289 147.708 144.174C150.176 143.853 151.871 142.219 153.381 140.604C154.736 139.154 156.124 138.307 158.044 138.179C158.643 138.138 159.235 137.998 160.291 137.83V137.829ZM146.99 159.176L147.005 159.045L146.838 159.096L146.99 159.176Z" fill="black"/>
<path d="M94.3773 93.1856C94.0832 92.6965 93.7401 92.1235 93.3839 91.5309H91.1584C90.1203 90.2738 88.946 88.8523 87.6127 87.2379C88.3251 86.5408 88.8131 86.0636 89.3403 85.5484C90.2793 86.1737 91.0288 86.6726 92.0582 87.3577C92.8817 86.8458 93.739 85.9667 94.7346 85.7586C98.0701 85.0647 99.9993 81.8872 103.266 81.1007C107.537 82.4231 111.526 84.1769 114.425 88.2956C113.422 90.5287 111.553 92.4263 109.23 93.6115C103.739 96.4132 103.263 96.4829 94.3784 93.1867L94.3773 93.1856ZM105.268 85.3599C104.193 84.2172 102.817 83.6791 101.397 84.2717C98.9165 85.3076 98.0102 87.5625 97.5037 89.8523C99.0396 93.9089 103.776 96.484 105.299 93.9742C104.183 93.9111 103.086 93.8479 102.068 93.7902C100.747 91.0342 101.463 88.7161 102.659 86.4503C103.837 86.5106 104.706 86.1471 105.268 85.3599ZM109.33 92.0276C109.53 92.2161 109.728 92.4056 109.927 92.5941C110.33 92.1202 110.733 91.6464 111.138 91.1725C110.973 91.0222 110.809 90.8719 110.644 90.7215C110.206 91.1562 109.768 91.5919 109.33 92.0265V92.0276Z" fill="black"/>
<path d="M71.6618 78.5681C71.299 83.7423 66.0605 88.7641 61.5867 88.1061C60.8667 87.3469 60.0867 86.5255 59.0562 85.4395C59.1597 84.2717 59.2839 82.8818 59.4473 81.0397C60.7 82.3284 59.956 84.2587 61.9255 84.6857C61.9255 83.4863 61.8067 82.3687 61.9592 81.2892C62.1139 80.1933 62.5366 79.1345 62.9636 77.6302C61.9658 78.335 61.3209 78.7903 60.6444 79.2674C60.3536 76.9363 61.3514 75.4232 63.6368 74.6139C66.6553 73.5442 69.3622 74.8786 71.6618 78.5681ZM65.6836 77.8633C64.0671 77.5637 63.7544 77.9995 64.0758 79.5321C64.6956 78.8883 65.0649 78.506 65.6836 77.8633ZM68.5017 79.7053C68.8339 79.4254 69.1662 79.1454 69.6367 78.7489C68.5137 78.213 68.1803 78.5223 68.5017 79.7053Z" fill="black"/>
<path d="M80.7837 160.458C78.6965 157.364 79.4569 153.474 76.7706 150.459C76.4526 151.858 76.2151 152.903 75.9449 154.091C75.4853 154.149 75.0049 154.209 74.1911 154.311C74.4667 151.105 75.2696 148.237 76.1998 145.295C76.0234 144.88 75.8175 144.397 75.5866 143.855C74.8959 143.611 74.2042 143.366 73.4787 143.11C74.69 141.535 76.0724 141.095 77.8393 141.778C77.6704 142.385 77.4972 143.01 77.2129 144.033C79.9231 148.626 80.5146 154.151 81.3567 159.61C81.3795 159.761 81.1344 159.953 80.7848 160.46L80.7837 160.458Z" fill="black"/>
<path d="M138.722 151.898C137.782 153.557 136.276 153.525 135.108 154.243C134.447 153.545 133.888 152.955 133.228 152.258C131.052 153.101 128.902 153.095 126.878 151.682C129.018 148.513 130.889 148.164 133.43 150.332C135.17 150.855 137.276 150.061 138.722 151.898Z" fill="black"/>
<path d="M127.653 154.708C128.961 156.008 129.289 157.243 128.935 158.982C128.012 159.444 126.977 160.038 125.884 160.487C124.774 160.943 123.603 161.253 122.461 161.633C121.488 161.956 120.545 162.06 119.627 161.294C119.988 160.07 120.595 159.052 121.971 158.843C123.417 158.623 124.439 157.832 125.372 156.77C126.003 156.05 126.795 155.471 127.652 154.707L127.653 154.708Z" fill="black"/>
<path d="M116.725 104.043C115.347 104.95 114.292 104.279 113.338 103.882C111.45 103.095 109.561 102.804 108.139 103.16C105.933 102.809 104.278 102.544 102.34 102.236C102.74 101.729 102.923 101.253 103.236 101.143C104.651 100.644 106.022 100.205 107.644 100.581C109.057 100.908 110.605 100.65 112.501 100.65C112.848 101.071 113.37 101.916 114.092 102.525C114.798 103.12 115.706 103.473 116.725 104.044V104.043Z" fill="black"/>
<path d="M110.665 169.212C110.535 168.604 110.429 168.107 110.306 167.53C112.043 166.757 113.707 166.343 115.68 166.416C115.179 168.915 113.933 170.461 112.016 171.568C111.205 172.037 110.486 172.662 109.708 173.227C108.52 172.468 108.615 171.455 108.795 170.379C109.452 169.969 110.075 169.582 110.666 169.214L110.665 169.212Z" fill="black"/>
<path d="M128.964 176.42C126.822 176.903 124.713 176.726 122.632 175.997C122.844 175.76 123.056 175.524 123.268 175.287C122.441 174.559 121.615 173.829 120.788 173.1L120.2 173.409C120.522 173.186 120.832 172.791 121.169 172.767C123.372 172.608 125.584 172.4 127.208 174.473C127.684 175.079 128.475 175.439 129.122 175.913C129.07 176.083 129.017 176.251 128.964 176.421V176.42Z" fill="black"/>
<path d="M55.1554 87.8457C57.0758 87.3414 58.4266 88.2618 59.8275 88.9764C59.0584 90.2705 58.2959 91.5548 57.5802 92.7596C56.3536 93.3304 55.5072 92.8686 54.9343 91.9666C54.0682 90.6039 54.321 89.2302 55.1554 87.8446V87.8457Z" fill="black"/>
<path d="M65.1422 144.042C65.4875 144.379 65.8328 144.715 66.1782 145.051C66.0703 145.182 65.9625 145.313 65.8535 145.443C65.6237 146.162 65.3928 146.881 65.1444 147.656C65.4657 148.038 65.7969 148.432 66.2163 148.931C65.0453 150.52 63.896 152.077 62.5235 153.939C62.1455 153.226 61.8351 152.643 61.5355 152.077C62.0279 151.432 62.3917 150.957 62.7555 150.481C62.6923 150.459 62.6281 150.436 62.5649 150.413C63.2141 148.435 63.8634 146.457 64.5126 144.479C64.7228 144.333 64.9331 144.187 65.1433 144.041L65.1422 144.042Z" fill="black"/>
<path d="M160.278 155.906C158.661 158.683 154.86 160.006 151.151 158.998C151.669 158.494 151.993 158.008 152.449 157.767C154.235 156.817 159.096 155.656 160.278 155.906Z" fill="black"/>
<path d="M119.01 164.676C118.254 164.848 117.67 164.981 117.061 165.12C116.316 164.697 115.596 164.289 114.919 163.904H111.663C113.927 161.661 117.946 161.299 119.886 163.031C119.626 163.521 119.349 164.039 119.009 164.676H119.01Z" fill="black"/>
<path d="M55.2066 138.053C55.1107 138.924 55.2404 139.906 54.8765 140.644C53.9593 142.5 54.5051 144.849 53.0073 146.619C51.9234 145.836 51.5508 144.891 51.8275 143.918C52.3439 142.106 53.0323 140.339 53.724 138.583C53.8547 138.251 54.3384 138.057 54.6598 137.8C54.8417 137.885 55.0236 137.97 55.2055 138.053H55.2066Z" fill="black"/>
<path d="M134.573 181.163C132.629 183.235 130.32 182.232 127.959 182.195C128.72 180.462 129.81 179.344 131.528 179.138C132.974 178.965 133.934 179.808 134.573 181.163Z" fill="black"/>
<path d="M129.06 101.914C128.514 101.163 128.121 100.621 127.701 100.044C128.664 98.2564 130.291 97.8871 132.137 97.8098C131.729 98.2684 131.32 98.727 130.865 99.2378C131.455 99.9818 132.006 100.677 132.828 101.714C131.327 101.794 130.169 101.857 129.059 101.915L129.06 101.914Z" fill="black"/>
<path d="M121.001 169.704C121.755 170.773 121.164 171.669 120.282 172.108C118.486 173.002 116.572 173.659 114.363 174.553C114.523 173.82 114.48 173.25 114.706 173.105C116.605 171.895 118.55 170.759 120.492 169.618C120.587 169.561 120.777 169.662 121.001 169.705V169.704Z" fill="black"/>
<path d="M124.392 162.909C124.806 163.201 125.222 163.494 125.559 163.733C126.791 163.595 127.951 163.45 129.115 163.358C129.226 163.35 129.362 163.672 129.485 163.836C128.075 165.036 124.767 165.76 122.741 165.308C122.567 164.058 123.286 163.419 124.392 162.909Z" fill="black"/>
<path d="M87.7836 116.315C91.0919 117.171 94.0712 117.941 97.533 118.838C95.96 119.196 89.4405 118.034 88.3588 117.361C88.1082 117.205 88.0276 116.779 87.7836 116.315Z" fill="black"/>
<path d="M115.638 188.167C115.245 187.719 114.872 187.291 114.485 186.847C114.737 186.565 114.887 186.256 115.029 186.26C116.754 186.307 118.598 186.01 119.919 187.41C119.887 187.6 119.855 187.791 119.823 187.98C119.212 187.933 118.598 187.831 117.989 187.856C117.31 187.884 116.635 188.028 115.638 188.166V188.167Z" fill="black"/>
<path d="M75.5093 182.107C74.6945 182.745 74.1171 183.198 73.4548 183.718C72.9614 183.158 72.5714 182.715 72.225 182.322C72.5997 181.262 72.9374 180.305 73.3154 179.235C73.6106 179.387 73.8513 179.51 74.1836 179.681C74.0256 180.156 73.8905 180.564 73.7195 181.079C74.2097 181.36 74.7162 181.651 75.5093 182.107Z" fill="black"/>
<path d="M132.121 188.446C133.867 187.592 135.075 188.63 136.676 189.322C134.729 190.027 133.389 189.322 132.121 188.446Z" fill="black"/>
<path d="M81.2478 183.1C82.7935 182.675 84.1029 182.264 85.4406 181.984C85.7467 181.92 86.1465 182.306 86.4537 182.687C84.7314 182.544 83.2129 184.212 81.2478 183.1Z" fill="black"/>
<path d="M43.1827 95.5646C44.2851 96.6801 45.3886 97.7967 46.6794 99.1017C44.6261 98.789 43.4485 97.6681 43.1827 95.5646Z" fill="black"/>
<path d="M102.678 186.164C101.225 186.396 100.212 186.743 99.3021 185.541C100.062 185.236 100.719 184.974 101.572 184.631C101.832 184.991 102.144 185.424 102.677 186.164H102.678Z" fill="black"/>
<path d="M137.406 191.834C138.892 190.958 139.962 190.712 141.303 191.547C139.995 192.678 138.914 192.214 137.406 191.834Z" fill="black"/>
<path d="M85.1247 184.193C84.5081 186.153 84.4765 186.161 81.9722 185.233C83.275 184.804 84.1998 184.499 85.1247 184.193Z" fill="black"/>
<path d="M68.7457 119.491C68.6237 119.985 68.5006 120.477 68.3525 121.075H66.5213C66.5213 120.779 66.4364 120.457 66.5355 120.385C67.1314 119.949 67.7697 119.57 68.3928 119.172C68.5104 119.278 68.6281 119.385 68.7457 119.491Z" fill="black"/>
<path d="M99.5069 175.207C98.6529 175.52 97.8424 175.526 96.7847 174.662H99.5015C99.5026 174.844 99.5047 175.025 99.5058 175.207H99.5069Z" fill="black"/>
<path d="M114.767 170.59H116.198C115.803 171.227 115.326 171.227 114.767 170.59Z" fill="black"/>
<path d="M78.2119 113.86C78.5909 112.56 78.8567 112.018 80.0528 112.913C79.4591 113.218 79.031 113.438 78.2119 113.86Z" fill="black"/>
<path d="M63.3917 119.02C64.3089 118.867 64.7087 118.801 65.1912 118.721C64.9146 119.418 64.3147 119.518 63.3917 119.02Z" fill="black"/>
<path d="M146.774 50.4593H145.407C145.39 50.3308 145.372 50.2023 145.355 50.0726C145.821 50.0084 146.286 49.9441 146.753 49.8798C146.76 50.0726 146.767 50.2665 146.774 50.4593Z" fill="black"/>
<path d="M81.9646 117.383C81.2674 117.94 81.0572 118.109 80.7249 118.374C80.5147 117.978 80.3578 117.683 80.0485 117.1C80.7053 117.197 81.0626 117.25 81.9646 117.381V117.383Z" fill="black"/>
<path d="M84.5974 111.572C84.8088 111.769 85.019 111.968 85.3654 112.291C84.8382 112.639 84.5549 112.826 83.9896 113.199C84.0255 112.516 84.0441 112.153 84.0626 111.79C84.2412 111.717 84.4188 111.644 84.5974 111.572Z" fill="black"/>
<path d="M75.2576 118.583C74.9951 118.814 74.7314 119.045 74.4689 119.277C74.3872 119.2 74.3055 119.122 74.2238 119.045C74.4428 118.774 74.6606 118.501 74.8796 118.23C75.0059 118.348 75.1323 118.466 75.2587 118.584L75.2576 118.583Z" fill="black"/>
<path d="M135.939 167.146C136.07 167.029 136.201 166.913 136.33 166.796L136.463 166.907C136.373 167.06 136.282 167.212 136.192 167.365L135.939 167.147V167.146Z" fill="black"/>
<path d="M82.2587 121.494C82.3796 121.712 82.5005 121.929 82.6127 122.152C82.6138 122.155 82.4733 122.258 82.4482 122.241C82.2587 122.112 82.0822 121.966 81.9014 121.825C82.0201 121.715 82.1388 121.604 82.2587 121.494Z" fill="black"/>
<path d="M82.0702 111.873C82.0114 112.093 81.9537 112.314 81.8948 112.534C81.7979 112.518 81.6999 112.501 81.6029 112.485V111.823C81.7587 111.839 81.9145 111.855 82.0702 111.873Z" fill="black"/>
<path d="M143.604 48.0661C143.734 47.9539 143.865 47.8417 143.996 47.7295L144.143 47.8983C144.015 48.0149 143.887 48.1315 143.759 48.248C143.707 48.187 143.656 48.126 143.604 48.065V48.0661Z" fill="black"/>
<path d="M71.6629 119.311H71.1607C71.1607 119.264 71.1607 119.217 71.1607 119.17H71.6629C71.6629 119.217 71.6629 119.264 71.6629 119.311Z" fill="black"/>
<path d="M76.128 114.175V113.687C76.177 113.687 76.226 113.687 76.275 113.687V114.175H76.128Z" fill="black"/>
<path d="M93.361 129.561L93.407 129.617L93.4136 129.519L93.361 129.561Z" fill="black"/>
<path d="M133.617 143.419C134.575 142.744 135.617 142.157 136.469 141.367C137.27 140.624 137.873 139.667 138.573 138.791C139.715 139.979 139.905 140.625 138.97 141.448C137.816 142.462 136.45 143.243 135.123 144.04C134.814 144.227 134.296 144.068 133.875 144.068C133.789 143.852 133.703 143.635 133.617 143.419Z" fill="white"/>
<path d="M66.6085 111.082C64.0192 111.871 62.2327 110.98 61.871 108.851C63.6096 109.123 64.9407 110.042 66.6085 111.082Z" fill="white"/>
<path d="M53.5378 118.824C53.6522 117.648 53.6532 116.393 55.2415 115.951C55.577 117.587 54.1783 117.999 53.5378 118.824Z" fill="white"/>
<path d="M53.3384 120.968C53.1739 121.233 53.0094 121.5 52.846 121.766L52.4985 121.597C52.6271 121.288 52.7556 120.98 52.8842 120.67C53.0356 120.769 53.1881 120.867 53.3395 120.966L53.3384 120.968Z" fill="white"/>
<path d="M154.619 126.217C154.45 127.464 154.396 128.764 154.077 129.996C153.692 131.483 152.71 132.182 151.505 132.135C150.407 132.093 149.598 131.381 149.264 129.921C148.695 127.44 148.815 124.956 149.511 122.509C149.829 121.392 150.552 120.649 151.748 120.545C152.833 120.45 153.803 121.202 154.144 122.581C154.431 123.744 154.466 124.97 154.62 126.218L154.619 126.217Z" fill="white"/>
<path d="M146.991 159.176L146.838 159.096L147.005 159.044L146.991 159.176Z" fill="white"/>
<path d="M105.268 85.3588C104.705 86.146 103.836 86.5095 102.659 86.4492C101.464 88.715 100.747 91.032 102.068 93.7891C103.086 93.8468 104.183 93.91 105.299 93.9731C103.776 96.4829 99.0385 93.9089 97.5036 89.8512C98.0113 87.5603 98.9165 85.3055 101.397 84.2706C102.817 83.678 104.192 84.2161 105.268 85.3588Z" fill="white"/>
<path d="M109.33 92.0277C109.768 91.593 110.206 91.1573 110.644 90.7227C110.809 90.873 110.973 91.0233 111.138 91.1736C110.735 91.6475 110.331 92.1213 109.927 92.5952C109.728 92.4067 109.53 92.2172 109.33 92.0287V92.0277Z" fill="white"/>
<path d="M65.6836 77.8643C65.0649 78.5059 64.6956 78.8894 64.0758 79.5332C63.7544 78.0016 64.0671 77.5648 65.6836 77.8643Z" fill="white"/>
<path d="M68.5028 79.7064C68.1825 78.5223 68.5147 78.214 69.6378 78.75C69.1672 79.1465 68.835 79.4264 68.5028 79.7064Z" fill="white"/>
</svg>
