<svg width="43" height="43" viewBox="0 0 43 43" fill="none" xmlns="http://www.w3.org/2000/svg">
<path fill-rule="evenodd" clip-rule="evenodd" d="M21.629 0.0120032C22.9104 0.029226 23.9424 0.098117 24.553 0.192842C25.069 0.270345 25.9634 0.451183 26.531 0.588965C27.0986 0.726748 28.0274 0.9937 28.595 1.19176C29.1626 1.38982 30.2118 1.829 30.917 2.17346C31.6308 2.51791 32.7316 3.15516 33.368 3.58572C34.0044 4.01629 34.916 4.68798 35.389 5.09272C35.862 5.48884 36.5586 6.1433 36.937 6.53943C37.3154 6.93555 37.926 7.63307 38.2872 8.08086C38.6484 8.52866 39.216 9.3209 39.5514 9.8462C39.8954 10.3629 40.4544 11.379 40.807 12.0852C41.1682 12.8171 41.6326 13.9366 41.8734 14.6686C42.1056 15.3833 42.3808 16.3392 42.4754 16.8042C42.5786 17.2606 42.7334 18.1734 42.828 18.8279C42.9484 19.6373 43 20.464 43 21.4716C43 22.4533 42.9484 23.3316 42.8366 24.1411C42.742 24.8042 42.5872 25.717 42.4926 26.1648C42.3894 26.6125 42.1916 27.3703 42.0454 27.844C41.8992 28.3176 41.624 29.0926 41.4348 29.5662C41.2456 30.0399 40.8586 30.8752 40.5748 31.4177C40.291 31.9602 39.818 32.7783 39.5342 33.2261C39.2418 33.6739 38.6914 34.4317 38.313 34.9053C37.9432 35.3789 37.324 36.0937 36.937 36.4898C36.5586 36.8859 35.862 37.5404 35.389 37.9365C34.916 38.3326 34.0044 39.0129 33.368 39.4435C32.7316 39.8655 31.6222 40.5027 30.917 40.8558C30.2032 41.2002 29.1626 41.6394 28.595 41.8375C28.0274 42.0269 27.0986 42.3025 26.531 42.4403C25.9634 42.578 25.0346 42.7589 24.467 42.845C23.7102 42.9569 22.919 43 21.5 43C20.3562 43 19.264 42.9569 18.834 42.8881C18.4298 42.8278 17.6988 42.6986 17.2 42.6039C16.7012 42.5005 15.8584 42.2939 15.3252 42.1302C14.8006 41.9666 13.9664 41.6825 13.4848 41.4844C12.9946 41.2949 12.1518 40.9074 11.61 40.6233C11.0682 40.3391 10.1394 39.7793 9.546 39.3832C8.9526 38.9871 8.084 38.3326 7.611 37.9365C7.138 37.5404 6.3898 36.8256 5.9426 36.3606C5.504 35.8956 4.8934 35.1981 4.601 34.8192C4.3086 34.4403 3.784 33.6997 3.4486 33.183C3.1046 32.6577 2.5456 31.6588 2.193 30.9441C1.849 30.2379 1.3846 29.1443 1.1782 28.5329C0.9632 27.9129 0.6966 26.9656 0.5676 26.4231C0.4472 25.8806 0.2666 24.8903 0.172 24.2272C0.0516 23.3919 0 22.5738 0 21.5577C0 20.5587 0.0516 19.6976 0.172 18.8451C0.2666 18.1562 0.4472 17.1486 0.5676 16.6061C0.6966 16.0636 0.9632 15.1077 1.1782 14.4963C1.3846 13.8763 1.8404 12.7999 2.193 12.0852C2.537 11.379 3.1046 10.3629 3.44 9.8462C3.784 9.3209 4.3172 8.57171 4.6354 8.16698C4.945 7.76224 5.7018 6.92694 6.321 6.31553C6.9316 5.69551 7.7658 4.93771 8.17 4.6277C8.5742 4.30908 9.288 3.80101 9.761 3.491C10.234 3.18099 11.0682 2.69875 11.61 2.41458C12.1518 2.12179 12.986 1.74289 13.459 1.55344C13.932 1.36399 14.6888 1.09704 15.136 0.950643C15.5832 0.80425 16.4174 0.597577 16.985 0.477018C17.5526 0.356458 18.361 0.218676 18.791 0.158397C19.2124 0.106728 19.5822 0.0378373 19.608 0.0206146C19.6252 -0.00521956 20.5368 -0.00521955 21.629 0.0120032Z" fill="#FF0000"/>
<path d="M15.705 12.9625C16.7825 12.9293 17.9995 12.8961 18.4123 12.8906C18.8251 12.8795 20.0099 12.8684 21.0392 12.8629C22.0685 12.8574 23.9663 12.8795 25.2476 12.9072C26.5289 12.9349 28.1587 12.9847 28.8663 13.0179C29.574 13.0511 30.3835 13.1009 30.6623 13.1341C30.9411 13.1673 31.3056 13.2338 31.4664 13.278C31.6273 13.3168 31.8846 13.4109 32.0293 13.4828C32.1795 13.5548 32.4529 13.7319 32.6405 13.8814C32.8335 14.0308 33.0855 14.291 33.2088 14.457C33.3267 14.6231 33.5036 14.9496 33.5948 15.1766C33.6859 15.4035 33.8253 15.8408 33.9003 16.1452C33.9808 16.4663 34.088 17.1637 34.1523 17.8058C34.2435 18.6914 34.2703 19.4165 34.2917 21.4589C34.3078 23.0641 34.2971 24.3648 34.2595 24.9737C34.2274 25.5051 34.163 26.3187 34.1148 26.7726C34.0719 27.2486 33.9647 27.8741 33.8735 28.2394C33.7878 28.5881 33.6162 29.0863 33.4929 29.3464C33.3321 29.6951 33.182 29.911 32.9193 30.1822C32.6673 30.4368 32.4368 30.6084 32.1098 30.7745C31.8578 30.9018 31.4879 31.0457 31.2788 31.09C31.0697 31.1343 30.5765 31.1951 30.1798 31.2284C29.7831 31.256 28.8985 31.3114 28.223 31.3446C27.5475 31.3778 25.1672 31.4166 22.9424 31.4332C20.3905 31.4498 18.0745 31.4387 16.6699 31.3999C15.4476 31.3612 14.0484 31.3114 13.5605 31.2837C13.0727 31.2505 12.3972 31.1841 12.0594 31.1232C11.7217 31.0678 11.2875 30.9571 11.0945 30.8852C10.9015 30.8132 10.6012 30.6527 10.4297 30.5365C10.2528 30.4147 10.0062 30.1933 9.87214 30.0383C9.74348 29.8889 9.55584 29.601 9.45934 29.4018C9.36284 29.2025 9.23418 28.8815 9.17521 28.6822C9.11087 28.483 9.0251 28.1508 8.97685 27.935C8.9286 27.7191 8.84282 27.0494 8.78921 26.4405C8.73024 25.8316 8.66054 24.9128 8.62838 24.3925C8.60157 23.8722 8.57477 22.8538 8.57477 22.1231C8.57477 21.3925 8.60157 20.4072 8.62838 19.9368C8.65518 19.4663 8.71952 18.6305 8.7624 18.0825C8.81065 17.5345 8.89643 16.8482 8.95004 16.5604C9.00901 16.2725 9.10551 15.874 9.16448 15.6747C9.22345 15.4755 9.36284 15.1323 9.47542 14.9054C9.58801 14.6674 9.79173 14.3685 9.95792 14.1969C10.108 14.0364 10.3761 13.815 10.5423 13.6987C10.7138 13.588 10.998 13.4441 11.1749 13.3721C11.3518 13.3057 11.6788 13.2227 11.8986 13.1895C12.1184 13.1563 12.6277 13.1065 13.0244 13.0732C13.4212 13.0456 14.6274 12.9958 15.705 12.9625Z" fill="#F9F9F9"/>
<path d="M18.5785 27.1533V22.1551L18.5853 17.1494L18.801 17.2762C18.9223 17.3434 20.8503 18.4549 23.0951 19.753C25.3331 21.0435 27.16 22.1252 27.1532 22.1476C27.1465 22.17 25.7241 23.013 23.9916 24.0201C22.2592 25.0272 20.3312 26.1387 18.5785 27.1533Z" fill="#FF0000"/>
</svg>
